<svg width="601" height="235" viewBox="0 0 601 235" fill="none" xmlns="http://www.w3.org/2000/svg">
<path d="M120.859 206V191.455H129.637V193.017H122.62V197.932H129.183V199.494H122.62V204.438H129.751V206H120.859ZM133.835 195.091L136.449 199.551L139.062 195.091H140.994L137.471 200.545L140.994 206H139.062L136.449 201.767L133.835 206H131.903L135.369 200.545L131.903 195.091H133.835ZM143.386 210.091V195.091H145.005V196.824H145.204C145.327 196.634 145.497 196.393 145.715 196.099C145.938 195.801 146.255 195.536 146.667 195.304C147.084 195.067 147.647 194.949 148.357 194.949C149.276 194.949 150.085 195.179 150.786 195.638C151.487 196.097 152.034 196.748 152.427 197.591C152.82 198.434 153.016 199.428 153.016 200.574C153.016 201.729 152.82 202.731 152.427 203.578C152.034 204.421 151.489 205.074 150.793 205.538C150.097 205.998 149.295 206.227 148.386 206.227C147.685 206.227 147.124 206.111 146.702 205.879C146.281 205.643 145.957 205.375 145.729 205.077C145.502 204.774 145.327 204.523 145.204 204.324H145.062V210.091H143.386ZM145.033 200.545C145.033 201.369 145.154 202.096 145.396 202.726C145.637 203.351 145.99 203.841 146.454 204.196C146.918 204.546 147.486 204.722 148.158 204.722C148.859 204.722 149.444 204.537 149.913 204.168C150.386 203.794 150.741 203.292 150.978 202.662C151.219 202.027 151.34 201.322 151.34 200.545C151.34 199.778 151.222 199.087 150.985 198.472C150.753 197.851 150.4 197.361 149.927 197.001C149.458 196.637 148.869 196.455 148.158 196.455C147.477 196.455 146.904 196.627 146.44 196.973C145.976 197.314 145.625 197.792 145.388 198.408C145.152 199.018 145.033 199.731 145.033 200.545ZM160.147 206.227C159.096 206.227 158.189 205.995 157.427 205.531C156.669 205.062 156.085 204.409 155.673 203.571C155.265 202.728 155.062 201.748 155.062 200.631C155.062 199.513 155.265 198.528 155.673 197.676C156.085 196.819 156.657 196.152 157.391 195.673C158.13 195.19 158.992 194.949 159.977 194.949C160.545 194.949 161.106 195.044 161.66 195.233C162.214 195.422 162.718 195.73 163.173 196.156C163.627 196.578 163.989 197.136 164.259 197.832C164.529 198.528 164.664 199.385 164.664 200.403V201.114H156.255V199.665H162.96C162.96 199.049 162.836 198.5 162.59 198.017C162.349 197.534 162.003 197.153 161.553 196.874C161.108 196.594 160.583 196.455 159.977 196.455C159.309 196.455 158.731 196.62 158.244 196.952C157.761 197.278 157.389 197.705 157.129 198.23C156.868 198.756 156.738 199.319 156.738 199.92V200.886C156.738 201.71 156.88 202.409 157.164 202.982C157.453 203.55 157.853 203.983 158.364 204.281C158.876 204.575 159.47 204.722 160.147 204.722C160.587 204.722 160.985 204.66 161.34 204.537C161.7 204.409 162.01 204.22 162.271 203.969C162.531 203.713 162.732 203.396 162.874 203.017L164.494 203.472C164.323 204.021 164.037 204.504 163.634 204.92C163.232 205.332 162.735 205.654 162.143 205.886C161.551 206.114 160.886 206.227 160.147 206.227ZM167.214 206V195.091H168.833V196.739H168.947C169.146 196.199 169.505 195.761 170.026 195.425C170.547 195.089 171.134 194.92 171.788 194.92C171.911 194.92 172.065 194.923 172.249 194.928C172.434 194.932 172.574 194.939 172.668 194.949V196.653C172.612 196.639 172.481 196.618 172.278 196.589C172.079 196.556 171.868 196.54 171.646 196.54C171.115 196.54 170.642 196.651 170.225 196.874C169.813 197.091 169.487 197.394 169.245 197.783C169.008 198.166 168.89 198.604 168.89 199.097V206H167.214ZM174.655 206V195.091H176.331V206H174.655ZM175.507 193.273C175.181 193.273 174.899 193.161 174.662 192.939C174.43 192.716 174.314 192.449 174.314 192.136C174.314 191.824 174.43 191.556 174.662 191.334C174.899 191.111 175.181 191 175.507 191C175.834 191 176.114 191.111 176.346 191.334C176.582 191.556 176.701 191.824 176.701 192.136C176.701 192.449 176.582 192.716 176.346 192.939C176.114 193.161 175.834 193.273 175.507 193.273ZM183.975 206.227C182.924 206.227 182.017 205.995 181.255 205.531C180.497 205.062 179.913 204.409 179.501 203.571C179.094 202.728 178.89 201.748 178.89 200.631C178.89 199.513 179.094 198.528 179.501 197.676C179.913 196.819 180.486 196.152 181.219 195.673C181.958 195.19 182.82 194.949 183.805 194.949C184.373 194.949 184.934 195.044 185.488 195.233C186.042 195.422 186.546 195.73 187.001 196.156C187.455 196.578 187.817 197.136 188.087 197.832C188.357 198.528 188.492 199.385 188.492 200.403V201.114H180.083V199.665H186.788C186.788 199.049 186.665 198.5 186.418 198.017C186.177 197.534 185.831 197.153 185.381 196.874C184.936 196.594 184.411 196.455 183.805 196.455C183.137 196.455 182.559 196.62 182.072 196.952C181.589 197.278 181.217 197.705 180.957 198.23C180.696 198.756 180.566 199.319 180.566 199.92V200.886C180.566 201.71 180.708 202.409 180.992 202.982C181.281 203.55 181.681 203.983 182.192 204.281C182.704 204.575 183.298 204.722 183.975 204.722C184.415 204.722 184.813 204.66 185.168 204.537C185.528 204.409 185.838 204.22 186.099 203.969C186.359 203.713 186.56 203.396 186.702 203.017L188.322 203.472C188.151 204.021 187.865 204.504 187.462 204.92C187.06 205.332 186.563 205.654 185.971 205.886C185.379 206.114 184.714 206.227 183.975 206.227ZM192.718 199.438V206H191.042V195.091H192.661V196.795H192.803C193.059 196.241 193.447 195.796 193.968 195.46C194.489 195.119 195.161 194.949 195.985 194.949C196.724 194.949 197.37 195.1 197.924 195.403C198.478 195.702 198.909 196.156 199.217 196.767C199.524 197.373 199.678 198.14 199.678 199.068V206H198.002V199.182C198.002 198.325 197.78 197.657 197.335 197.179C196.889 196.696 196.279 196.455 195.502 196.455C194.967 196.455 194.489 196.571 194.067 196.803C193.651 197.035 193.322 197.373 193.08 197.818C192.839 198.263 192.718 198.803 192.718 199.438ZM207.173 206.227C206.15 206.227 205.27 205.986 204.531 205.503C203.792 205.02 203.224 204.355 202.826 203.507C202.429 202.66 202.23 201.691 202.23 200.602C202.23 199.494 202.433 198.517 202.841 197.669C203.252 196.817 203.825 196.152 204.559 195.673C205.298 195.19 206.16 194.949 207.145 194.949C207.912 194.949 208.603 195.091 209.218 195.375C209.834 195.659 210.338 196.057 210.731 196.568C211.124 197.08 211.368 197.676 211.463 198.358H209.787C209.659 197.861 209.375 197.42 208.934 197.037C208.499 196.649 207.912 196.455 207.173 196.455C206.52 196.455 205.947 196.625 205.454 196.966C204.967 197.302 204.585 197.778 204.311 198.393C204.041 199.004 203.906 199.722 203.906 200.545C203.906 201.388 204.038 202.122 204.304 202.747C204.574 203.372 204.952 203.857 205.44 204.203C205.932 204.549 206.51 204.722 207.173 204.722C207.609 204.722 208.004 204.646 208.359 204.494C208.714 204.343 209.015 204.125 209.261 203.841C209.507 203.557 209.682 203.216 209.787 202.818H211.463C211.368 203.462 211.134 204.042 210.76 204.558C210.39 205.07 209.9 205.477 209.289 205.78C208.683 206.078 207.978 206.227 207.173 206.227ZM218.487 206.227C217.436 206.227 216.529 205.995 215.767 205.531C215.009 205.062 214.424 204.409 214.012 203.571C213.605 202.728 213.402 201.748 213.402 200.631C213.402 199.513 213.605 198.528 214.012 197.676C214.424 196.819 214.997 196.152 215.731 195.673C216.47 195.19 217.332 194.949 218.316 194.949C218.885 194.949 219.446 195.044 220 195.233C220.554 195.422 221.058 195.73 221.512 196.156C221.967 196.578 222.329 197.136 222.599 197.832C222.869 198.528 223.004 199.385 223.004 200.403V201.114H214.595V199.665H221.299C221.299 199.049 221.176 198.5 220.93 198.017C220.689 197.534 220.343 197.153 219.893 196.874C219.448 196.594 218.922 196.455 218.316 196.455C217.649 196.455 217.071 196.62 216.583 196.952C216.1 197.278 215.729 197.705 215.468 198.23C215.208 198.756 215.078 199.319 215.078 199.92V200.886C215.078 201.71 215.22 202.409 215.504 202.982C215.793 203.55 216.193 203.983 216.704 204.281C217.216 204.575 217.81 204.722 218.487 204.722C218.927 204.722 219.325 204.66 219.68 204.537C220.04 204.409 220.35 204.22 220.61 203.969C220.871 203.713 221.072 203.396 221.214 203.017L222.833 203.472C222.663 204.021 222.377 204.504 221.974 204.92C221.572 205.332 221.074 205.654 220.483 205.886C219.891 206.114 219.225 206.227 218.487 206.227ZM235.923 195.091V196.511H230.27V195.091H235.923ZM231.917 192.477H233.593V202.875C233.593 203.348 233.662 203.704 233.799 203.94C233.941 204.172 234.121 204.329 234.339 204.409C234.562 204.485 234.796 204.523 235.042 204.523C235.227 204.523 235.378 204.513 235.497 204.494C235.615 204.471 235.71 204.452 235.781 204.438L236.122 205.943C236.008 205.986 235.85 206.028 235.646 206.071C235.442 206.118 235.184 206.142 234.872 206.142C234.398 206.142 233.934 206.04 233.48 205.837C233.03 205.633 232.656 205.323 232.358 204.906C232.064 204.49 231.917 203.964 231.917 203.33V192.477ZM240.355 199.438V206H238.679V191.455H240.355V196.795H240.497C240.752 196.232 241.136 195.785 241.647 195.453C242.163 195.117 242.85 194.949 243.707 194.949C244.45 194.949 245.101 195.098 245.66 195.396C246.219 195.69 246.652 196.142 246.96 196.753C247.272 197.359 247.429 198.131 247.429 199.068V206H245.752V199.182C245.752 198.315 245.528 197.645 245.078 197.172C244.633 196.694 244.015 196.455 243.224 196.455C242.675 196.455 242.182 196.571 241.747 196.803C241.316 197.035 240.975 197.373 240.724 197.818C240.478 198.263 240.355 198.803 240.355 199.438ZM255.069 206.227C254.018 206.227 253.111 205.995 252.349 205.531C251.591 205.062 251.006 204.409 250.594 203.571C250.187 202.728 249.984 201.748 249.984 200.631C249.984 199.513 250.187 198.528 250.594 197.676C251.006 196.819 251.579 196.152 252.313 195.673C253.052 195.19 253.914 194.949 254.898 194.949C255.467 194.949 256.028 195.044 256.582 195.233C257.136 195.422 257.64 195.73 258.094 196.156C258.549 196.578 258.911 197.136 259.181 197.832C259.451 198.528 259.586 199.385 259.586 200.403V201.114H251.177V199.665H257.881C257.881 199.049 257.758 198.5 257.512 198.017C257.271 197.534 256.925 197.153 256.475 196.874C256.03 196.594 255.504 196.455 254.898 196.455C254.231 196.455 253.653 196.62 253.165 196.952C252.683 197.278 252.311 197.705 252.05 198.23C251.79 198.756 251.66 199.319 251.66 199.92V200.886C251.66 201.71 251.802 202.409 252.086 202.982C252.375 203.55 252.775 203.983 253.286 204.281C253.798 204.575 254.392 204.722 255.069 204.722C255.509 204.722 255.907 204.66 256.262 204.537C256.622 204.409 256.932 204.22 257.192 203.969C257.453 203.713 257.654 203.396 257.796 203.017L259.415 203.472C259.245 204.021 258.959 204.504 258.556 204.92C258.154 205.332 257.656 205.654 257.065 205.886C256.473 206.114 255.808 206.227 255.069 206.227ZM267.988 206V191.455H272.903C274.044 191.455 274.977 191.661 275.701 192.072C276.43 192.48 276.97 193.031 277.32 193.727C277.671 194.423 277.846 195.2 277.846 196.057C277.846 196.914 277.671 197.693 277.32 198.393C276.975 199.094 276.44 199.653 275.715 200.07C274.991 200.482 274.063 200.688 272.931 200.688H269.408V199.125H272.874C273.656 199.125 274.283 198.99 274.756 198.72C275.23 198.45 275.573 198.086 275.786 197.626C276.004 197.162 276.113 196.639 276.113 196.057C276.113 195.474 276.004 194.954 275.786 194.494C275.573 194.035 275.228 193.675 274.749 193.415C274.271 193.15 273.637 193.017 272.846 193.017H269.749V206H267.988ZM283.666 206.256C282.975 206.256 282.348 206.125 281.784 205.865C281.221 205.6 280.773 205.219 280.442 204.722C280.11 204.22 279.945 203.614 279.945 202.903C279.945 202.278 280.068 201.772 280.314 201.384C280.56 200.991 280.889 200.683 281.301 200.46C281.713 200.238 282.168 200.072 282.665 199.963C283.167 199.849 283.671 199.759 284.178 199.693C284.84 199.608 285.378 199.544 285.79 199.501C286.206 199.454 286.509 199.376 286.699 199.267C286.893 199.158 286.99 198.969 286.99 198.699V198.642C286.99 197.941 286.798 197.397 286.415 197.009C286.036 196.62 285.461 196.426 284.689 196.426C283.889 196.426 283.261 196.601 282.807 196.952C282.352 197.302 282.033 197.676 281.848 198.074L280.257 197.506C280.541 196.843 280.92 196.327 281.393 195.957C281.872 195.583 282.393 195.323 282.956 195.176C283.524 195.025 284.083 194.949 284.632 194.949C284.982 194.949 285.385 194.991 285.839 195.077C286.299 195.157 286.741 195.325 287.168 195.581C287.598 195.837 287.956 196.223 288.24 196.739C288.524 197.255 288.666 197.946 288.666 198.812V206H286.99V204.523H286.905C286.791 204.759 286.602 205.013 286.337 205.283C286.071 205.553 285.719 205.782 285.278 205.972C284.838 206.161 284.301 206.256 283.666 206.256ZM283.922 204.75C284.585 204.75 285.143 204.62 285.598 204.359C286.057 204.099 286.403 203.763 286.635 203.351C286.872 202.939 286.99 202.506 286.99 202.051V200.517C286.919 200.602 286.763 200.68 286.521 200.751C286.285 200.818 286.01 200.877 285.697 200.929C285.39 200.976 285.089 201.019 284.795 201.057C284.507 201.09 284.272 201.118 284.092 201.142C283.657 201.199 283.25 201.291 282.871 201.419C282.497 201.542 282.194 201.729 281.962 201.98C281.734 202.226 281.621 202.562 281.621 202.989C281.621 203.571 281.836 204.011 282.267 204.31C282.703 204.603 283.254 204.75 283.922 204.75ZM291.725 206V195.091H293.345V196.739H293.458C293.657 196.199 294.017 195.761 294.538 195.425C295.059 195.089 295.646 194.92 296.299 194.92C296.422 194.92 296.576 194.923 296.761 194.928C296.946 194.932 297.085 194.939 297.18 194.949V196.653C297.123 196.639 296.993 196.618 296.789 196.589C296.591 196.556 296.38 196.54 296.157 196.54C295.627 196.54 295.154 196.651 294.737 196.874C294.325 197.091 293.998 197.394 293.757 197.783C293.52 198.166 293.402 198.604 293.402 199.097V206H291.725ZM302.377 206.256C301.686 206.256 301.058 206.125 300.495 205.865C299.932 205.6 299.484 205.219 299.153 204.722C298.821 204.22 298.656 203.614 298.656 202.903C298.656 202.278 298.779 201.772 299.025 201.384C299.271 200.991 299.6 200.683 300.012 200.46C300.424 200.238 300.879 200.072 301.376 199.963C301.878 199.849 302.382 199.759 302.888 199.693C303.551 199.608 304.089 199.544 304.501 199.501C304.917 199.454 305.22 199.376 305.41 199.267C305.604 199.158 305.701 198.969 305.701 198.699V198.642C305.701 197.941 305.509 197.397 305.126 197.009C304.747 196.62 304.172 196.426 303.4 196.426C302.6 196.426 301.972 196.601 301.518 196.952C301.063 197.302 300.744 197.676 300.559 198.074L298.968 197.506C299.252 196.843 299.631 196.327 300.104 195.957C300.583 195.583 301.103 195.323 301.667 195.176C302.235 195.025 302.794 194.949 303.343 194.949C303.693 194.949 304.096 194.991 304.55 195.077C305.01 195.157 305.452 195.325 305.879 195.581C306.309 195.837 306.667 196.223 306.951 196.739C307.235 197.255 307.377 197.946 307.377 198.812V206H305.701V204.523H305.616C305.502 204.759 305.313 205.013 305.048 205.283C304.782 205.553 304.43 205.782 303.989 205.972C303.549 206.161 303.012 206.256 302.377 206.256ZM302.633 204.75C303.296 204.75 303.854 204.62 304.309 204.359C304.768 204.099 305.114 203.763 305.346 203.351C305.583 202.939 305.701 202.506 305.701 202.051V200.517C305.63 200.602 305.474 200.68 305.232 200.751C304.996 200.818 304.721 200.877 304.408 200.929C304.101 200.976 303.8 201.019 303.506 201.057C303.218 201.09 302.983 201.118 302.803 201.142C302.368 201.199 301.96 201.291 301.582 201.419C301.208 201.542 300.905 201.729 300.673 201.98C300.445 202.226 300.332 202.562 300.332 202.989C300.332 203.571 300.547 204.011 300.978 204.31C301.414 204.603 301.965 204.75 302.633 204.75ZM314.556 206.227C313.647 206.227 312.844 205.998 312.148 205.538C311.452 205.074 310.908 204.421 310.515 203.578C310.122 202.731 309.925 201.729 309.925 200.574C309.925 199.428 310.122 198.434 310.515 197.591C310.908 196.748 311.454 196.097 312.155 195.638C312.856 195.179 313.666 194.949 314.584 194.949C315.294 194.949 315.855 195.067 316.267 195.304C316.684 195.536 317.001 195.801 317.219 196.099C317.442 196.393 317.614 196.634 317.738 196.824H317.88V191.455H319.556V206H317.936V204.324H317.738C317.614 204.523 317.439 204.774 317.212 205.077C316.985 205.375 316.66 205.643 316.239 205.879C315.818 206.111 315.257 206.227 314.556 206.227ZM314.783 204.722C315.455 204.722 316.024 204.546 316.488 204.196C316.952 203.841 317.304 203.351 317.546 202.726C317.787 202.096 317.908 201.369 317.908 200.545C317.908 199.731 317.79 199.018 317.553 198.408C317.316 197.792 316.966 197.314 316.502 196.973C316.038 196.627 315.465 196.455 314.783 196.455C314.073 196.455 313.481 196.637 313.007 197.001C312.539 197.361 312.186 197.851 311.949 198.472C311.717 199.087 311.601 199.778 311.601 200.545C311.601 201.322 311.72 202.027 311.956 202.662C312.198 203.292 312.553 203.794 313.022 204.168C313.495 204.537 314.082 204.722 314.783 204.722ZM322.858 206V195.091H324.534V206H322.858ZM323.711 193.273C323.384 193.273 323.102 193.161 322.865 192.939C322.633 192.716 322.517 192.449 322.517 192.136C322.517 191.824 322.633 191.556 322.865 191.334C323.102 191.111 323.384 191 323.711 191C324.037 191 324.317 191.111 324.549 191.334C324.785 191.556 324.904 191.824 324.904 192.136C324.904 192.449 324.785 192.716 324.549 192.939C324.317 193.161 324.037 193.273 323.711 193.273ZM335.332 197.534L333.826 197.96C333.731 197.709 333.592 197.465 333.407 197.229C333.227 196.987 332.981 196.788 332.668 196.632C332.356 196.476 331.956 196.398 331.468 196.398C330.8 196.398 330.244 196.552 329.799 196.859C329.359 197.162 329.138 197.548 329.138 198.017C329.138 198.434 329.29 198.763 329.593 199.004C329.896 199.246 330.37 199.447 331.013 199.608L332.633 200.006C333.608 200.242 334.335 200.605 334.813 201.092C335.291 201.575 335.531 202.198 335.531 202.96C335.531 203.585 335.351 204.144 334.991 204.636C334.636 205.129 334.138 205.517 333.499 205.801C332.86 206.085 332.117 206.227 331.269 206.227C330.156 206.227 329.236 205.986 328.506 205.503C327.777 205.02 327.316 204.314 327.121 203.386L328.712 202.989C328.864 203.576 329.15 204.016 329.572 204.31C329.998 204.603 330.554 204.75 331.241 204.75C332.022 204.75 332.642 204.584 333.102 204.253C333.566 203.917 333.798 203.514 333.798 203.045C333.798 202.667 333.665 202.349 333.4 202.094C333.135 201.833 332.728 201.639 332.178 201.511L330.36 201.085C329.361 200.848 328.627 200.482 328.158 199.984C327.694 199.482 327.462 198.855 327.462 198.102C327.462 197.487 327.635 196.942 327.981 196.469C328.331 195.995 328.807 195.624 329.408 195.354C330.014 195.084 330.701 194.949 331.468 194.949C332.548 194.949 333.395 195.186 334.011 195.659C334.631 196.133 335.071 196.758 335.332 197.534ZM342.627 206.227C341.576 206.227 340.67 205.995 339.907 205.531C339.15 205.062 338.565 204.409 338.153 203.571C337.746 202.728 337.542 201.748 337.542 200.631C337.542 199.513 337.746 198.528 338.153 197.676C338.565 196.819 339.138 196.152 339.872 195.673C340.61 195.19 341.472 194.949 342.457 194.949C343.025 194.949 343.586 195.044 344.14 195.233C344.694 195.422 345.199 195.73 345.653 196.156C346.108 196.578 346.47 197.136 346.74 197.832C347.01 198.528 347.145 199.385 347.145 200.403V201.114H338.735V199.665H345.44C345.44 199.049 345.317 198.5 345.071 198.017C344.829 197.534 344.484 197.153 344.034 196.874C343.589 196.594 343.063 196.455 342.457 196.455C341.789 196.455 341.212 196.62 340.724 196.952C340.241 197.278 339.869 197.705 339.609 198.23C339.349 198.756 339.218 199.319 339.218 199.92V200.886C339.218 201.71 339.36 202.409 339.645 202.982C339.933 203.55 340.333 203.983 340.845 204.281C341.356 204.575 341.95 204.722 342.627 204.722C343.068 204.722 343.466 204.66 343.821 204.537C344.181 204.409 344.491 204.22 344.751 203.969C345.011 203.713 345.213 203.396 345.355 203.017L346.974 203.472C346.804 204.021 346.517 204.504 346.115 204.92C345.712 205.332 345.215 205.654 344.623 205.886C344.031 206.114 343.366 206.227 342.627 206.227ZM360.035 206H355.547V191.455H360.234C361.645 191.455 362.852 191.746 363.856 192.328C364.86 192.906 365.629 193.737 366.164 194.821C366.699 195.901 366.967 197.193 366.967 198.699C366.967 200.214 366.697 201.518 366.157 202.612C365.618 203.701 364.832 204.539 363.799 205.126C362.767 205.709 361.512 206 360.035 206ZM357.308 204.438H359.922C361.124 204.438 362.121 204.205 362.912 203.741C363.702 203.277 364.292 202.617 364.68 201.76C365.068 200.903 365.262 199.883 365.262 198.699C365.262 197.525 365.071 196.514 364.687 195.666C364.304 194.814 363.731 194.161 362.968 193.706C362.206 193.247 361.257 193.017 360.12 193.017H357.308V204.438ZM374.268 206.227C373.217 206.227 372.31 205.995 371.548 205.531C370.79 205.062 370.206 204.409 369.794 203.571C369.386 202.728 369.183 201.748 369.183 200.631C369.183 199.513 369.386 198.528 369.794 197.676C370.206 196.819 370.779 196.152 371.512 195.673C372.251 195.19 373.113 194.949 374.098 194.949C374.666 194.949 375.227 195.044 375.781 195.233C376.335 195.422 376.839 195.73 377.294 196.156C377.748 196.578 378.11 197.136 378.38 197.832C378.65 198.528 378.785 199.385 378.785 200.403V201.114H370.376V199.665H377.081C377.081 199.049 376.958 198.5 376.711 198.017C376.47 197.534 376.124 197.153 375.674 196.874C375.229 196.594 374.704 196.455 374.098 196.455C373.43 196.455 372.852 196.62 372.365 196.952C371.882 197.278 371.51 197.705 371.25 198.23C370.989 198.756 370.859 199.319 370.859 199.92V200.886C370.859 201.71 371.001 202.409 371.285 202.982C371.574 203.55 371.974 203.983 372.485 204.281C372.997 204.575 373.591 204.722 374.268 204.722C374.708 204.722 375.106 204.66 375.461 204.537C375.821 204.409 376.131 204.22 376.392 203.969C376.652 203.713 376.853 203.396 376.995 203.017L378.615 203.472C378.444 204.021 378.158 204.504 377.755 204.92C377.353 205.332 376.856 205.654 376.264 205.886C375.672 206.114 375.007 206.227 374.268 206.227ZM383.011 199.438V206H381.335V195.091H382.954V196.795H383.096C383.352 196.241 383.74 195.796 384.261 195.46C384.782 195.119 385.454 194.949 386.278 194.949C387.017 194.949 387.663 195.1 388.217 195.403C388.771 195.702 389.202 196.156 389.51 196.767C389.817 197.373 389.971 198.14 389.971 199.068V206H388.295V199.182C388.295 198.325 388.073 197.657 387.627 197.179C387.182 196.696 386.572 196.455 385.795 196.455C385.26 196.455 384.782 196.571 384.36 196.803C383.944 197.035 383.615 197.373 383.373 197.818C383.132 198.263 383.011 198.803 383.011 199.438ZM397.778 195.091V196.511H392.125V195.091H397.778ZM393.773 192.477H395.449V202.875C395.449 203.348 395.518 203.704 395.655 203.94C395.797 204.172 395.977 204.329 396.195 204.409C396.417 204.485 396.652 204.523 396.898 204.523C397.082 204.523 397.234 204.513 397.352 204.494C397.471 204.471 397.565 204.452 397.636 204.438L397.977 205.943C397.864 205.986 397.705 206.028 397.501 206.071C397.298 206.118 397.04 206.142 396.727 206.142C396.254 206.142 395.79 206.04 395.335 205.837C394.885 205.633 394.511 205.323 394.213 204.906C393.92 204.49 393.773 203.964 393.773 203.33V192.477ZM403.51 206.256C402.819 206.256 402.191 206.125 401.628 205.865C401.064 205.6 400.617 205.219 400.286 204.722C399.954 204.22 399.788 203.614 399.788 202.903C399.788 202.278 399.911 201.772 400.158 201.384C400.404 200.991 400.733 200.683 401.145 200.46C401.557 200.238 402.011 200.072 402.509 199.963C403.01 199.849 403.515 199.759 404.021 199.693C404.684 199.608 405.222 199.544 405.634 199.501C406.05 199.454 406.353 199.376 406.543 199.267C406.737 199.158 406.834 198.969 406.834 198.699V198.642C406.834 197.941 406.642 197.397 406.259 197.009C405.88 196.62 405.304 196.426 404.533 196.426C403.732 196.426 403.105 196.601 402.651 196.952C402.196 197.302 401.876 197.676 401.692 198.074L400.101 197.506C400.385 196.843 400.764 196.327 401.237 195.957C401.715 195.583 402.236 195.323 402.8 195.176C403.368 195.025 403.927 194.949 404.476 194.949C404.826 194.949 405.229 194.991 405.683 195.077C406.143 195.157 406.585 195.325 407.011 195.581C407.442 195.837 407.8 196.223 408.084 196.739C408.368 197.255 408.51 197.946 408.51 198.812V206H406.834V204.523H406.749C406.635 204.759 406.446 205.013 406.18 205.283C405.915 205.553 405.563 205.782 405.122 205.972C404.682 206.161 404.144 206.256 403.51 206.256ZM403.766 204.75C404.429 204.75 404.987 204.62 405.442 204.359C405.901 204.099 406.247 203.763 406.479 203.351C406.715 202.939 406.834 202.506 406.834 202.051V200.517C406.763 200.602 406.607 200.68 406.365 200.751C406.128 200.818 405.854 200.877 405.541 200.929C405.233 200.976 404.933 201.019 404.639 201.057C404.35 201.09 404.116 201.118 403.936 201.142C403.5 201.199 403.093 201.291 402.714 201.419C402.34 201.542 402.037 201.729 401.805 201.98C401.578 202.226 401.464 202.562 401.464 202.989C401.464 203.571 401.68 204.011 402.111 204.31C402.546 204.603 403.098 204.75 403.766 204.75ZM413.245 191.455V206H411.569V191.455H413.245ZM426.656 206H422.168V191.455H426.855C428.266 191.455 429.473 191.746 430.477 192.328C431.481 192.906 432.25 193.737 432.786 194.821C433.321 195.901 433.588 197.193 433.588 198.699C433.588 200.214 433.318 201.518 432.778 202.612C432.239 203.701 431.453 204.539 430.42 205.126C429.388 205.709 428.134 206 426.656 206ZM423.929 204.438H426.543C427.745 204.438 428.742 204.205 429.533 203.741C430.323 203.277 430.913 202.617 431.301 201.76C431.689 200.903 431.884 199.883 431.884 198.699C431.884 197.525 431.692 196.514 431.308 195.666C430.925 194.814 430.352 194.161 429.589 193.706C428.827 193.247 427.878 193.017 426.741 193.017H423.929V204.438ZM436.315 206V195.091H437.991V206H436.315ZM437.168 193.273C436.841 193.273 436.559 193.161 436.322 192.939C436.09 192.716 435.974 192.449 435.974 192.136C435.974 191.824 436.09 191.556 436.322 191.334C436.559 191.111 436.841 191 437.168 191C437.494 191 437.774 191.111 438.006 191.334C438.242 191.556 438.361 191.824 438.361 192.136C438.361 192.449 438.242 192.716 438.006 192.939C437.774 193.161 437.494 193.273 437.168 193.273ZM445.919 195.091V196.511H440.039V195.091H445.919ZM441.8 206V193.585C441.8 192.96 441.947 192.439 442.24 192.023C442.534 191.606 442.915 191.294 443.384 191.085C443.853 190.877 444.347 190.773 444.868 190.773C445.28 190.773 445.616 190.806 445.877 190.872C446.137 190.938 446.331 191 446.459 191.057L445.976 192.506C445.891 192.477 445.773 192.442 445.621 192.399C445.474 192.357 445.28 192.335 445.039 192.335C444.485 192.335 444.085 192.475 443.838 192.754C443.597 193.034 443.476 193.443 443.476 193.983V206H441.8ZM453.126 195.091V196.511H447.246V195.091H453.126ZM449.007 206V193.585C449.007 192.96 449.154 192.439 449.447 192.023C449.741 191.606 450.122 191.294 450.591 191.085C451.06 190.877 451.554 190.773 452.075 190.773C452.487 190.773 452.823 190.806 453.084 190.872C453.344 190.938 453.538 191 453.666 191.057L453.183 192.506C453.098 192.477 452.98 192.442 452.828 192.399C452.681 192.357 452.487 192.335 452.246 192.335C451.692 192.335 451.292 192.475 451.045 192.754C450.804 193.034 450.683 193.443 450.683 193.983V206H449.007ZM459.6 206.227C458.549 206.227 457.642 205.995 456.88 205.531C456.122 205.062 455.538 204.409 455.126 203.571C454.719 202.728 454.515 201.748 454.515 200.631C454.515 199.513 454.719 198.528 455.126 197.676C455.538 196.819 456.111 196.152 456.844 195.673C457.583 195.19 458.445 194.949 459.43 194.949C459.998 194.949 460.559 195.044 461.113 195.233C461.667 195.422 462.171 195.73 462.626 196.156C463.08 196.578 463.442 197.136 463.712 197.832C463.982 198.528 464.117 199.385 464.117 200.403V201.114H455.708V199.665H462.413C462.413 199.049 462.29 198.5 462.043 198.017C461.802 197.534 461.456 197.153 461.006 196.874C460.561 196.594 460.036 196.455 459.43 196.455C458.762 196.455 458.184 196.62 457.697 196.952C457.214 197.278 456.842 197.705 456.582 198.23C456.321 198.756 456.191 199.319 456.191 199.92V200.886C456.191 201.71 456.333 202.409 456.617 202.982C456.906 203.55 457.306 203.983 457.817 204.281C458.329 204.575 458.923 204.722 459.6 204.722C460.04 204.722 460.438 204.66 460.793 204.537C461.153 204.409 461.463 204.22 461.724 203.969C461.984 203.713 462.185 203.396 462.327 203.017L463.947 203.472C463.776 204.021 463.49 204.504 463.087 204.92C462.685 205.332 462.188 205.654 461.596 205.886C461.004 206.114 460.339 206.227 459.6 206.227ZM466.667 206V195.091H468.286V196.739H468.4C468.599 196.199 468.959 195.761 469.479 195.425C470 195.089 470.587 194.92 471.241 194.92C471.364 194.92 471.518 194.923 471.702 194.928C471.887 194.932 472.027 194.939 472.121 194.949V196.653C472.065 196.639 471.934 196.618 471.731 196.589C471.532 196.556 471.321 196.54 471.099 196.54C470.568 196.54 470.095 196.651 469.678 196.874C469.266 197.091 468.94 197.394 468.698 197.783C468.461 198.166 468.343 198.604 468.343 199.097V206H466.667ZM478.35 206.227C477.299 206.227 476.392 205.995 475.63 205.531C474.872 205.062 474.288 204.409 473.876 203.571C473.469 202.728 473.265 201.748 473.265 200.631C473.265 199.513 473.469 198.528 473.876 197.676C474.288 196.819 474.861 196.152 475.594 195.673C476.333 195.19 477.195 194.949 478.18 194.949C478.748 194.949 479.309 195.044 479.863 195.233C480.417 195.422 480.921 195.73 481.376 196.156C481.83 196.578 482.192 197.136 482.462 197.832C482.732 198.528 482.867 199.385 482.867 200.403V201.114H474.458V199.665H481.163C481.163 199.049 481.04 198.5 480.793 198.017C480.552 197.534 480.206 197.153 479.756 196.874C479.311 196.594 478.786 196.455 478.18 196.455C477.512 196.455 476.934 196.62 476.447 196.952C475.964 197.278 475.592 197.705 475.332 198.23C475.071 198.756 474.941 199.319 474.941 199.92V200.886C474.941 201.71 475.083 202.409 475.367 202.982C475.656 203.55 476.056 203.983 476.567 204.281C477.079 204.575 477.673 204.722 478.35 204.722C478.79 204.722 479.188 204.66 479.543 204.537C479.903 204.409 480.213 204.22 480.474 203.969C480.734 203.713 480.935 203.396 481.077 203.017L482.697 203.472C482.526 204.021 482.24 204.504 481.837 204.92C481.435 205.332 480.938 205.654 480.346 205.886C479.754 206.114 479.089 206.227 478.35 206.227ZM487.093 199.438V206H485.417V195.091H487.036V196.795H487.178C487.434 196.241 487.822 195.796 488.343 195.46C488.864 195.119 489.536 194.949 490.36 194.949C491.099 194.949 491.745 195.1 492.299 195.403C492.853 195.702 493.284 196.156 493.592 196.767C493.899 197.373 494.053 198.14 494.053 199.068V206H492.377V199.182C492.377 198.325 492.155 197.657 491.71 197.179C491.264 196.696 490.654 196.455 489.877 196.455C489.342 196.455 488.864 196.571 488.442 196.803C488.026 197.035 487.697 197.373 487.455 197.818C487.214 198.263 487.093 198.803 487.093 199.438ZM501.548 206.227C500.525 206.227 499.645 205.986 498.906 205.503C498.167 205.02 497.599 204.355 497.201 203.507C496.804 202.66 496.605 201.691 496.605 200.602C496.605 199.494 496.808 198.517 497.216 197.669C497.627 196.817 498.2 196.152 498.934 195.673C499.673 195.19 500.535 194.949 501.52 194.949C502.287 194.949 502.978 195.091 503.593 195.375C504.209 195.659 504.713 196.057 505.106 196.568C505.499 197.08 505.743 197.676 505.838 198.358H504.162C504.034 197.861 503.75 197.42 503.309 197.037C502.874 196.649 502.287 196.455 501.548 196.455C500.895 196.455 500.322 196.625 499.829 196.966C499.342 197.302 498.96 197.778 498.686 198.393C498.416 199.004 498.281 199.722 498.281 200.545C498.281 201.388 498.413 202.122 498.679 202.747C498.949 203.372 499.327 203.857 499.815 204.203C500.307 204.549 500.885 204.722 501.548 204.722C501.984 204.722 502.379 204.646 502.734 204.494C503.089 204.343 503.39 204.125 503.636 203.841C503.882 203.557 504.057 203.216 504.162 202.818H505.838C505.743 203.462 505.509 204.042 505.135 204.558C504.765 205.07 504.275 205.477 503.664 205.78C503.058 206.078 502.353 206.227 501.548 206.227ZM512.862 206.227C511.811 206.227 510.904 205.995 510.142 205.531C509.384 205.062 508.799 204.409 508.387 203.571C507.98 202.728 507.777 201.748 507.777 200.631C507.777 199.513 507.98 198.528 508.387 197.676C508.799 196.819 509.372 196.152 510.106 195.673C510.845 195.19 511.707 194.949 512.691 194.949C513.26 194.949 513.821 195.044 514.375 195.233C514.929 195.422 515.433 195.73 515.887 196.156C516.342 196.578 516.704 197.136 516.974 197.832C517.244 198.528 517.379 199.385 517.379 200.403V201.114H508.97V199.665H515.674C515.674 199.049 515.551 198.5 515.305 198.017C515.064 197.534 514.718 197.153 514.268 196.874C513.823 196.594 513.297 196.455 512.691 196.455C512.024 196.455 511.446 196.62 510.958 196.952C510.475 197.278 510.104 197.705 509.843 198.23C509.583 198.756 509.453 199.319 509.453 199.92V200.886C509.453 201.71 509.595 202.409 509.879 202.982C510.168 203.55 510.568 203.983 511.079 204.281C511.591 204.575 512.185 204.722 512.862 204.722C513.302 204.722 513.7 204.66 514.055 204.537C514.415 204.409 514.725 204.22 514.985 203.969C515.246 203.713 515.447 203.396 515.589 203.017L517.208 203.472C517.038 204.021 516.752 204.504 516.349 204.92C515.947 205.332 515.449 205.654 514.858 205.886C514.266 206.114 513.6 206.227 512.862 206.227ZM521.15 206.114C520.8 206.114 520.499 205.988 520.248 205.737C519.997 205.486 519.872 205.186 519.872 204.835C519.872 204.485 519.997 204.184 520.248 203.933C520.499 203.682 520.8 203.557 521.15 203.557C521.501 203.557 521.801 203.682 522.052 203.933C522.303 204.184 522.429 204.485 522.429 204.835C522.429 205.067 522.369 205.28 522.251 205.474C522.137 205.669 521.984 205.825 521.789 205.943C521.6 206.057 521.387 206.114 521.15 206.114ZM176.963 230V215.455H178.724V228.438H185.485V230H176.963ZM192.559 230.227C191.508 230.227 190.601 229.995 189.839 229.531C189.081 229.062 188.497 228.409 188.085 227.571C187.677 226.728 187.474 225.748 187.474 224.631C187.474 223.513 187.677 222.528 188.085 221.676C188.497 220.819 189.07 220.152 189.803 219.673C190.542 219.19 191.404 218.949 192.389 218.949C192.957 218.949 193.518 219.044 194.072 219.233C194.626 219.422 195.13 219.73 195.585 220.156C196.039 220.578 196.401 221.136 196.671 221.832C196.941 222.528 197.076 223.385 197.076 224.403V225.114H188.667V223.665H195.372C195.372 223.049 195.249 222.5 195.002 222.017C194.761 221.534 194.415 221.153 193.965 220.874C193.52 220.594 192.995 220.455 192.389 220.455C191.721 220.455 191.143 220.62 190.656 220.952C190.173 221.278 189.801 221.705 189.541 222.23C189.28 222.756 189.15 223.319 189.15 223.92V224.886C189.15 225.71 189.292 226.409 189.576 226.982C189.865 227.55 190.265 227.983 190.776 228.281C191.288 228.575 191.882 228.722 192.559 228.722C192.999 228.722 193.397 228.66 193.752 228.537C194.112 228.409 194.422 228.22 194.683 227.969C194.943 227.713 195.144 227.396 195.286 227.017L196.906 227.472C196.735 228.021 196.449 228.504 196.046 228.92C195.644 229.332 195.147 229.654 194.555 229.886C193.963 230.114 193.298 230.227 192.559 230.227ZM204.37 219.091V220.511H198.717V219.091H204.37ZM200.365 216.477H202.041V226.875C202.041 227.348 202.109 227.704 202.247 227.94C202.389 228.172 202.569 228.329 202.786 228.409C203.009 228.485 203.243 228.523 203.49 228.523C203.674 228.523 203.826 228.513 203.944 228.494C204.062 228.471 204.157 228.452 204.228 228.438L204.569 229.943C204.455 229.986 204.297 230.028 204.093 230.071C203.89 230.118 203.632 230.142 203.319 230.142C202.846 230.142 202.382 230.04 201.927 229.837C201.477 229.633 201.103 229.323 200.805 228.906C200.511 228.49 200.365 227.964 200.365 227.33V216.477ZM208.935 215.455V216.733C208.935 217.121 208.864 217.536 208.722 217.976C208.585 218.411 208.381 218.835 208.111 219.247C207.846 219.654 207.524 220.009 207.145 220.312L206.236 219.574C206.535 219.148 206.793 218.705 207.01 218.246C207.233 217.782 207.344 217.287 207.344 216.761V215.455H208.935ZM217.334 221.534L215.828 221.96C215.733 221.709 215.594 221.465 215.409 221.229C215.229 220.987 214.983 220.788 214.67 220.632C214.358 220.476 213.958 220.398 213.47 220.398C212.802 220.398 212.246 220.552 211.801 220.859C211.361 221.162 211.14 221.548 211.14 222.017C211.14 222.434 211.292 222.763 211.595 223.004C211.898 223.246 212.372 223.447 213.015 223.608L214.635 224.006C215.61 224.242 216.337 224.605 216.815 225.092C217.293 225.575 217.532 226.198 217.532 226.96C217.532 227.585 217.353 228.144 216.993 228.636C216.638 229.129 216.14 229.517 215.501 229.801C214.862 230.085 214.119 230.227 213.271 230.227C212.158 230.227 211.238 229.986 210.508 229.503C209.779 229.02 209.318 228.314 209.123 227.386L210.714 226.989C210.866 227.576 211.152 228.016 211.574 228.31C212 228.603 212.556 228.75 213.243 228.75C214.024 228.75 214.644 228.584 215.104 228.253C215.568 227.917 215.8 227.514 215.8 227.045C215.8 226.667 215.667 226.349 215.402 226.094C215.137 225.833 214.729 225.639 214.18 225.511L212.362 225.085C211.363 224.848 210.629 224.482 210.16 223.984C209.696 223.482 209.464 222.855 209.464 222.102C209.464 221.487 209.637 220.942 209.983 220.469C210.333 219.995 210.809 219.624 211.41 219.354C212.016 219.084 212.703 218.949 213.47 218.949C214.55 218.949 215.397 219.186 216.013 219.659C216.633 220.133 217.073 220.758 217.334 221.534ZM230.084 234.318C229.274 234.318 228.578 234.214 227.996 234.006C227.414 233.802 226.928 233.532 226.54 233.196C226.156 232.865 225.851 232.509 225.624 232.131L226.959 231.193C227.11 231.392 227.302 231.619 227.534 231.875C227.766 232.135 228.084 232.36 228.486 232.55C228.893 232.744 229.426 232.841 230.084 232.841C230.965 232.841 231.691 232.628 232.264 232.202C232.837 231.776 233.124 231.108 233.124 230.199V227.983H232.982C232.859 228.182 232.683 228.428 232.456 228.722C232.234 229.01 231.912 229.268 231.49 229.496C231.074 229.718 230.51 229.83 229.8 229.83C228.919 229.83 228.128 229.621 227.428 229.205C226.732 228.788 226.18 228.182 225.773 227.386C225.37 226.591 225.169 225.625 225.169 224.489C225.169 223.371 225.366 222.398 225.759 221.57C226.152 220.736 226.699 220.092 227.399 219.638C228.1 219.179 228.91 218.949 229.828 218.949C230.539 218.949 231.102 219.067 231.519 219.304C231.94 219.536 232.262 219.801 232.485 220.099C232.712 220.393 232.887 220.634 233.01 220.824H233.181V219.091H234.8V230.312C234.8 231.25 234.587 232.012 234.161 232.599C233.739 233.191 233.171 233.625 232.456 233.899C231.746 234.179 230.955 234.318 230.084 234.318ZM230.027 228.324C230.7 228.324 231.268 228.17 231.732 227.862C232.196 227.554 232.548 227.112 232.79 226.534C233.031 225.956 233.152 225.265 233.152 224.46C233.152 223.674 233.034 222.981 232.797 222.379C232.56 221.778 232.21 221.307 231.746 220.966C231.282 220.625 230.709 220.455 230.027 220.455C229.317 220.455 228.725 220.634 228.252 220.994C227.783 221.354 227.43 221.837 227.193 222.443C226.961 223.049 226.845 223.722 226.845 224.46C226.845 225.218 226.964 225.888 227.2 226.47C227.442 227.048 227.797 227.502 228.266 227.834C228.739 228.161 229.326 228.324 230.027 228.324ZM242.442 230.227C241.391 230.227 240.484 229.995 239.722 229.531C238.964 229.062 238.379 228.409 237.968 227.571C237.56 226.728 237.357 225.748 237.357 224.631C237.357 223.513 237.56 222.528 237.968 221.676C238.379 220.819 238.952 220.152 239.686 219.673C240.425 219.19 241.287 218.949 242.271 218.949C242.84 218.949 243.401 219.044 243.955 219.233C244.509 219.422 245.013 219.73 245.468 220.156C245.922 220.578 246.284 221.136 246.554 221.832C246.824 222.528 246.959 223.385 246.959 224.403V225.114H238.55V223.665H245.254C245.254 223.049 245.131 222.5 244.885 222.017C244.644 221.534 244.298 221.153 243.848 220.874C243.403 220.594 242.878 220.455 242.271 220.455C241.604 220.455 241.026 220.62 240.539 220.952C240.056 221.278 239.684 221.705 239.423 222.23C239.163 222.756 239.033 223.319 239.033 223.92V224.886C239.033 225.71 239.175 226.409 239.459 226.982C239.748 227.55 240.148 227.983 240.659 228.281C241.171 228.575 241.765 228.722 242.442 228.722C242.882 228.722 243.28 228.66 243.635 228.537C243.995 228.409 244.305 228.22 244.566 227.969C244.826 227.713 245.027 227.396 245.169 227.017L246.789 227.472C246.618 228.021 246.332 228.504 245.929 228.92C245.527 229.332 245.03 229.654 244.438 229.886C243.846 230.114 243.181 230.227 242.442 230.227ZM254.253 219.091V220.511H248.6V219.091H254.253ZM250.247 216.477H251.923V226.875C251.923 227.348 251.992 227.704 252.129 227.94C252.271 228.172 252.451 228.329 252.669 228.409C252.892 228.485 253.126 228.523 253.372 228.523C253.557 228.523 253.709 228.513 253.827 228.494C253.945 228.471 254.04 228.452 254.111 228.438L254.452 229.943C254.338 229.986 254.18 230.028 253.976 230.071C253.772 230.118 253.514 230.142 253.202 230.142C252.728 230.142 252.264 230.04 251.81 229.837C251.36 229.633 250.986 229.323 250.688 228.906C250.394 228.49 250.247 227.964 250.247 227.33V216.477ZM263.479 234.091C263.195 234.091 262.941 234.067 262.719 234.02C262.496 233.977 262.343 233.935 262.257 233.892L262.683 232.415C263.091 232.519 263.45 232.557 263.763 232.528C264.075 232.5 264.352 232.36 264.594 232.109C264.84 231.863 265.065 231.463 265.269 230.909L265.581 230.057L261.547 219.091H263.365L266.377 227.784H266.49L269.502 219.091H271.32L266.689 231.591C266.481 232.154 266.223 232.621 265.915 232.99C265.607 233.364 265.25 233.641 264.843 233.821C264.44 234.001 263.985 234.091 263.479 234.091ZM277.573 230.227C276.588 230.227 275.724 229.993 274.981 229.524C274.242 229.055 273.665 228.4 273.248 227.557C272.836 226.714 272.63 225.729 272.63 224.602C272.63 223.466 272.836 222.474 273.248 221.626C273.665 220.779 274.242 220.121 274.981 219.652C275.724 219.183 276.588 218.949 277.573 218.949C278.558 218.949 279.42 219.183 280.159 219.652C280.902 220.121 281.48 220.779 281.892 221.626C282.308 222.474 282.517 223.466 282.517 224.602C282.517 225.729 282.308 226.714 281.892 227.557C281.48 228.4 280.902 229.055 280.159 229.524C279.42 229.993 278.558 230.227 277.573 230.227ZM277.573 228.722C278.321 228.722 278.937 228.53 279.42 228.146C279.903 227.763 280.26 227.259 280.492 226.634C280.724 226.009 280.84 225.331 280.84 224.602C280.84 223.873 280.724 223.194 280.492 222.564C280.26 221.934 279.903 221.425 279.42 221.037C278.937 220.649 278.321 220.455 277.573 220.455C276.825 220.455 276.21 220.649 275.727 221.037C275.244 221.425 274.886 221.934 274.654 222.564C274.422 223.194 274.306 223.873 274.306 224.602C274.306 225.331 274.422 226.009 274.654 226.634C274.886 227.259 275.244 227.763 275.727 228.146C276.21 228.53 276.825 228.722 277.573 228.722ZM291.95 225.54V219.091H293.626V230H291.95V228.153H291.836C291.581 228.707 291.183 229.179 290.643 229.567C290.104 229.95 289.422 230.142 288.598 230.142C287.916 230.142 287.31 229.993 286.78 229.695C286.249 229.392 285.833 228.937 285.53 228.331C285.227 227.72 285.075 226.951 285.075 226.023V219.091H286.751V225.909C286.751 226.705 286.974 227.339 287.419 227.812C287.869 228.286 288.442 228.523 289.138 228.523C289.554 228.523 289.978 228.416 290.409 228.203C290.845 227.99 291.209 227.663 291.503 227.223C291.801 226.783 291.95 226.222 291.95 225.54ZM310.048 221.534L308.543 221.96C308.448 221.709 308.308 221.465 308.124 221.229C307.944 220.987 307.698 220.788 307.385 220.632C307.073 220.476 306.673 220.398 306.185 220.398C305.517 220.398 304.961 220.552 304.516 220.859C304.075 221.162 303.855 221.548 303.855 222.017C303.855 222.434 304.007 222.763 304.31 223.004C304.613 223.246 305.086 223.447 305.73 223.608L307.35 224.006C308.325 224.242 309.052 224.605 309.53 225.092C310.008 225.575 310.247 226.198 310.247 226.96C310.247 227.585 310.067 228.144 309.708 228.636C309.352 229.129 308.855 229.517 308.216 229.801C307.577 230.085 306.834 230.227 305.986 230.227C304.873 230.227 303.952 229.986 303.223 229.503C302.494 229.02 302.032 228.314 301.838 227.386L303.429 226.989C303.581 227.576 303.867 228.016 304.289 228.31C304.715 228.603 305.271 228.75 305.958 228.75C306.739 228.75 307.359 228.584 307.818 228.253C308.282 227.917 308.514 227.514 308.514 227.045C308.514 226.667 308.382 226.349 308.117 226.094C307.852 225.833 307.444 225.639 306.895 225.511L305.077 225.085C304.078 224.848 303.344 224.482 302.875 223.984C302.411 223.482 302.179 222.855 302.179 222.102C302.179 221.487 302.352 220.942 302.698 220.469C303.048 219.995 303.524 219.624 304.125 219.354C304.731 219.084 305.418 218.949 306.185 218.949C307.264 218.949 308.112 219.186 308.727 219.659C309.348 220.133 309.788 220.758 310.048 221.534ZM312.77 230V219.091H314.39V220.795H314.532C314.759 220.213 315.126 219.761 315.633 219.439C316.139 219.112 316.748 218.949 317.458 218.949C318.178 218.949 318.777 219.112 319.255 219.439C319.738 219.761 320.114 220.213 320.384 220.795H320.498C320.777 220.232 321.196 219.785 321.755 219.453C322.314 219.117 322.983 218.949 323.765 218.949C324.74 218.949 325.538 219.254 326.158 219.865C326.778 220.471 327.089 221.416 327.089 222.699V230H325.412V222.699C325.412 221.894 325.192 221.319 324.752 220.973C324.312 220.627 323.793 220.455 323.197 220.455C322.43 220.455 321.835 220.687 321.414 221.151C320.992 221.61 320.782 222.192 320.782 222.898V230H319.077V222.528C319.077 221.908 318.876 221.409 318.474 221.03C318.071 220.646 317.553 220.455 316.918 220.455C316.483 220.455 316.075 220.571 315.697 220.803C315.323 221.035 315.019 221.357 314.787 221.768C314.56 222.176 314.447 222.647 314.447 223.182V230H312.77ZM330.153 230V219.091H331.829V230H330.153ZM331.006 217.273C330.679 217.273 330.397 217.161 330.16 216.939C329.928 216.716 329.812 216.449 329.812 216.136C329.812 215.824 329.928 215.556 330.16 215.334C330.397 215.111 330.679 215 331.006 215C331.332 215 331.612 215.111 331.844 215.334C332.08 215.556 332.199 215.824 332.199 216.136C332.199 216.449 332.08 216.716 331.844 216.939C331.612 217.161 331.332 217.273 331.006 217.273ZM336.575 215.455V230H334.899V215.455H336.575ZM339.645 230V219.091H341.322V230H339.645ZM340.498 217.273C340.171 217.273 339.889 217.161 339.653 216.939C339.421 216.716 339.305 216.449 339.305 216.136C339.305 215.824 339.421 215.556 339.653 215.334C339.889 215.111 340.171 215 340.498 215C340.824 215 341.104 215.111 341.336 215.334C341.573 215.556 341.691 215.824 341.691 216.136C341.691 216.449 341.573 216.716 341.336 216.939C341.104 217.161 340.824 217.273 340.498 217.273ZM346.068 223.438V230H344.392V219.091H346.011V220.795H346.153C346.409 220.241 346.797 219.796 347.318 219.46C347.838 219.119 348.511 218.949 349.335 218.949C350.073 218.949 350.72 219.1 351.274 219.403C351.828 219.702 352.258 220.156 352.566 220.767C352.874 221.373 353.028 222.14 353.028 223.068V230H351.352V223.182C351.352 222.325 351.129 221.657 350.684 221.179C350.239 220.696 349.628 220.455 348.852 220.455C348.317 220.455 347.838 220.571 347.417 220.803C347 221.035 346.671 221.373 346.43 221.818C346.188 222.263 346.068 222.803 346.068 223.438ZM360.494 234.318C359.684 234.318 358.988 234.214 358.406 234.006C357.824 233.802 357.338 233.532 356.95 233.196C356.567 232.865 356.261 232.509 356.034 232.131L357.369 231.193C357.521 231.392 357.712 231.619 357.944 231.875C358.176 232.135 358.494 232.36 358.896 232.55C359.303 232.744 359.836 232.841 360.494 232.841C361.375 232.841 362.102 232.628 362.675 232.202C363.247 231.776 363.534 231.108 363.534 230.199V227.983H363.392C363.269 228.182 363.094 228.428 362.866 228.722C362.644 229.01 362.322 229.268 361.9 229.496C361.484 229.718 360.92 229.83 360.21 229.83C359.329 229.83 358.539 229.621 357.838 229.205C357.142 228.788 356.59 228.182 356.183 227.386C355.781 226.591 355.579 225.625 355.579 224.489C355.579 223.371 355.776 222.398 356.169 221.57C356.562 220.736 357.109 220.092 357.809 219.638C358.51 219.179 359.32 218.949 360.238 218.949C360.949 218.949 361.512 219.067 361.929 219.304C362.35 219.536 362.672 219.801 362.895 220.099C363.122 220.393 363.297 220.634 363.42 220.824H363.591V219.091H365.21V230.312C365.21 231.25 364.997 232.012 364.571 232.599C364.149 233.191 363.581 233.625 362.866 233.899C362.156 234.179 361.365 234.318 360.494 234.318ZM360.437 228.324C361.11 228.324 361.678 228.17 362.142 227.862C362.606 227.554 362.959 227.112 363.2 226.534C363.442 225.956 363.562 225.265 363.562 224.46C363.562 223.674 363.444 222.981 363.207 222.379C362.97 221.778 362.62 221.307 362.156 220.966C361.692 220.625 361.119 220.455 360.437 220.455C359.727 220.455 359.135 220.634 358.662 220.994C358.193 221.354 357.84 221.837 357.604 222.443C357.372 223.049 357.256 223.722 357.256 224.46C357.256 225.218 357.374 225.888 357.611 226.47C357.852 227.048 358.207 227.502 358.676 227.834C359.149 228.161 359.737 228.324 360.437 228.324ZM373.903 230V219.091H375.579V230H373.903ZM374.756 217.273C374.429 217.273 374.147 217.161 373.91 216.939C373.678 216.716 373.562 216.449 373.562 216.136C373.562 215.824 373.678 215.556 373.91 215.334C374.147 215.111 374.429 215 374.756 215C375.082 215 375.362 215.111 375.594 215.334C375.83 215.556 375.949 215.824 375.949 216.136C375.949 216.449 375.83 216.716 375.594 216.939C375.362 217.161 375.082 217.273 374.756 217.273ZM380.325 223.438V230H378.649V219.091H380.269V220.795H380.411C380.666 220.241 381.055 219.796 381.575 219.46C382.096 219.119 382.769 218.949 383.593 218.949C384.331 218.949 384.977 219.1 385.531 219.403C386.085 219.702 386.516 220.156 386.824 220.767C387.132 221.373 387.286 222.14 387.286 223.068V230H385.61V223.182C385.61 222.325 385.387 221.657 384.942 221.179C384.497 220.696 383.886 220.455 383.11 220.455C382.575 220.455 382.096 220.571 381.675 220.803C381.258 221.035 380.929 221.373 380.688 221.818C380.446 222.263 380.325 222.803 380.325 223.438ZM396.201 230V215.455H401.116C402.252 215.455 403.185 215.649 403.914 216.037C404.643 216.42 405.183 216.948 405.533 217.621C405.884 218.293 406.059 219.058 406.059 219.915C406.059 220.772 405.884 221.532 405.533 222.195C405.183 222.857 404.645 223.378 403.921 223.757C403.197 224.131 402.271 224.318 401.144 224.318H397.167V222.727H401.087C401.864 222.727 402.489 222.614 402.962 222.386C403.44 222.159 403.786 221.837 403.999 221.42C404.217 220.999 404.326 220.497 404.326 219.915C404.326 219.332 404.217 218.823 403.999 218.388C403.781 217.952 403.433 217.616 402.955 217.379C402.477 217.138 401.845 217.017 401.059 217.017H397.962V230H396.201ZM403.047 223.466L406.627 230H404.581L401.059 223.466H403.047ZM413.081 230.227C412.096 230.227 411.232 229.993 410.489 229.524C409.75 229.055 409.173 228.4 408.756 227.557C408.344 226.714 408.138 225.729 408.138 224.602C408.138 223.466 408.344 222.474 408.756 221.626C409.173 220.779 409.75 220.121 410.489 219.652C411.232 219.183 412.096 218.949 413.081 218.949C414.066 218.949 414.928 219.183 415.666 219.652C416.41 220.121 416.987 220.779 417.399 221.626C417.816 222.474 418.024 223.466 418.024 224.602C418.024 225.729 417.816 226.714 417.399 227.557C416.987 228.4 416.41 229.055 415.666 229.524C414.928 229.993 414.066 230.227 413.081 230.227ZM413.081 228.722C413.829 228.722 414.445 228.53 414.928 228.146C415.411 227.763 415.768 227.259 416 226.634C416.232 226.009 416.348 225.331 416.348 224.602C416.348 223.873 416.232 223.194 416 222.564C415.768 221.934 415.411 221.425 414.928 221.037C414.445 220.649 413.829 220.455 413.081 220.455C412.333 220.455 411.718 220.649 411.235 221.037C410.752 221.425 410.394 221.934 410.162 222.564C409.93 223.194 409.814 223.873 409.814 224.602C409.814 225.331 409.93 226.009 410.162 226.634C410.394 227.259 410.752 227.763 411.235 228.146C411.718 228.53 412.333 228.722 413.081 228.722ZM425.015 230.227C423.992 230.227 423.111 229.986 422.373 229.503C421.634 229.02 421.066 228.355 420.668 227.507C420.27 226.66 420.072 225.691 420.072 224.602C420.072 223.494 420.275 222.517 420.682 221.669C421.094 220.817 421.667 220.152 422.401 219.673C423.14 219.19 424.001 218.949 424.986 218.949C425.753 218.949 426.445 219.091 427.06 219.375C427.676 219.659 428.18 220.057 428.573 220.568C428.966 221.08 429.21 221.676 429.305 222.358H427.628C427.501 221.861 427.216 221.42 426.776 221.037C426.34 220.649 425.753 220.455 425.015 220.455C424.361 220.455 423.788 220.625 423.296 220.966C422.808 221.302 422.427 221.778 422.153 222.393C421.883 223.004 421.748 223.722 421.748 224.545C421.748 225.388 421.88 226.122 422.145 226.747C422.415 227.372 422.794 227.857 423.282 228.203C423.774 228.549 424.352 228.722 425.015 228.722C425.45 228.722 425.846 228.646 426.201 228.494C426.556 228.343 426.857 228.125 427.103 227.841C427.349 227.557 427.524 227.216 427.628 226.818H429.305C429.21 227.462 428.975 228.042 428.601 228.558C428.232 229.07 427.742 229.477 427.131 229.78C426.525 230.078 425.82 230.227 425.015 230.227ZM433.317 226.023L433.289 223.949H433.63L438.403 219.091H440.476L435.391 224.233H435.249L433.317 226.023ZM431.755 230V215.455H433.431V230H431.755ZM438.687 230L434.425 224.602L435.618 223.438L440.817 230H438.687ZM444.31 215.455V230H442.634V215.455H444.31ZM447.38 230V219.091H449.056V230H447.38ZM448.232 217.273C447.905 217.273 447.624 217.161 447.387 216.939C447.155 216.716 447.039 216.449 447.039 216.136C447.039 215.824 447.155 215.556 447.387 215.334C447.624 215.111 447.905 215 448.232 215C448.559 215 448.838 215.111 449.07 215.334C449.307 215.556 449.425 215.824 449.425 216.136C449.425 216.449 449.307 216.716 449.07 216.939C448.838 217.161 448.559 217.273 448.232 217.273ZM453.802 223.438V230H452.126V219.091H453.745V220.795H453.887C454.143 220.241 454.531 219.796 455.052 219.46C455.573 219.119 456.245 218.949 457.069 218.949C457.808 218.949 458.454 219.1 459.008 219.403C459.562 219.702 459.993 220.156 460.301 220.767C460.608 221.373 460.762 222.14 460.762 223.068V230H459.086V223.182C459.086 222.325 458.864 221.657 458.419 221.179C457.973 220.696 457.363 220.455 456.586 220.455C456.051 220.455 455.573 220.571 455.151 220.803C454.735 221.035 454.406 221.373 454.164 221.818C453.923 222.263 453.802 222.803 453.802 223.438ZM465.047 230.114C464.696 230.114 464.396 229.988 464.145 229.737C463.894 229.486 463.768 229.186 463.768 228.835C463.768 228.485 463.894 228.184 464.145 227.933C464.396 227.682 464.696 227.557 465.047 227.557C465.397 227.557 465.698 227.682 465.949 227.933C466.2 228.184 466.325 228.485 466.325 228.835C466.325 229.067 466.266 229.28 466.148 229.474C466.034 229.669 465.88 229.825 465.686 229.943C465.497 230.057 465.283 230.114 465.047 230.114Z" fill="#2469FD"/>
<path d="M42.8686 14.3636H53.2024L63.1527 33.1562H63.5788L73.5291 14.3636H83.8629L67.9467 42.5739V58H58.7848V42.5739L42.8686 14.3636ZM96.663 58.6392C93.3533 58.6392 90.4911 57.9361 88.0763 56.5298C85.6758 55.1094 83.8221 53.1349 82.5153 50.6065C81.2085 48.0639 80.555 45.1165 80.555 41.7642C80.555 38.3835 81.2085 35.429 82.5153 32.9006C83.8221 30.358 85.6758 28.3835 88.0763 26.9773C90.4911 25.5568 93.3533 24.8466 96.663 24.8466C99.9727 24.8466 102.828 25.5568 105.228 26.9773C107.643 28.3835 109.504 30.358 110.811 32.9006C112.118 35.429 112.771 38.3835 112.771 41.7642C112.771 45.1165 112.118 48.0639 110.811 50.6065C109.504 53.1349 107.643 55.1094 105.228 56.5298C102.828 57.9361 99.9727 58.6392 96.663 58.6392ZM96.7056 51.608C98.2113 51.608 99.4684 51.1818 100.477 50.3295C101.485 49.4631 102.245 48.2841 102.757 46.7926C103.282 45.3011 103.545 43.6037 103.545 41.7003C103.545 39.7969 103.282 38.0994 102.757 36.608C102.245 35.1165 101.485 33.9375 100.477 33.071C99.4684 32.2045 98.2113 31.7713 96.7056 31.7713C95.1857 31.7713 93.9073 32.2045 92.8704 33.071C91.8477 33.9375 91.0735 35.1165 90.5479 36.608C90.0366 38.0994 89.7809 39.7969 89.7809 41.7003C89.7809 43.6037 90.0366 45.3011 90.5479 46.7926C91.0735 48.2841 91.8477 49.4631 92.8704 50.3295C93.9073 51.1818 95.1857 51.608 96.7056 51.608ZM139.66 44.0653V25.2727H148.737V58H140.022V52.0554H139.681C138.943 53.973 137.714 55.5142 135.995 56.679C134.291 57.8437 132.21 58.4261 129.752 58.4261C127.565 58.4261 125.64 57.929 123.978 56.9347C122.316 55.9403 121.017 54.527 120.079 52.6946C119.156 50.8622 118.687 48.6676 118.673 46.1108V25.2727H127.75V44.4915C127.764 46.4233 128.282 47.9503 129.305 49.0724C130.328 50.1946 131.699 50.7557 133.417 50.7557C134.511 50.7557 135.534 50.5071 136.485 50.0099C137.437 49.4986 138.204 48.7457 138.787 47.7514C139.383 46.7571 139.674 45.5284 139.66 44.0653ZM155.997 58V25.2727H164.797V30.983H165.138C165.734 28.9517 166.736 27.4176 168.142 26.3807C169.548 25.3295 171.168 24.804 173 24.804C173.455 24.804 173.945 24.8324 174.47 24.8892C174.996 24.946 175.457 25.0241 175.855 25.1236V33.1776C175.429 33.0497 174.839 32.9361 174.087 32.8366C173.334 32.7372 172.645 32.6875 172.02 32.6875C170.685 32.6875 169.491 32.9787 168.44 33.5611C167.403 34.1293 166.58 34.9247 165.969 35.9474C165.372 36.9702 165.074 38.1491 165.074 39.4844V58H155.997ZM161.148 99.9134C160.978 98.1946 160.246 96.8594 158.953 95.9077C157.661 94.956 155.907 94.4801 153.691 94.4801C152.185 94.4801 150.914 94.6932 149.877 95.1193C148.84 95.5312 148.044 96.1065 147.49 96.8452C146.951 97.5838 146.681 98.4219 146.681 99.3594C146.652 100.141 146.816 100.822 147.171 101.405C147.54 101.987 148.044 102.491 148.684 102.918C149.323 103.33 150.061 103.692 150.9 104.004C151.738 104.303 152.632 104.558 153.584 104.771L157.505 105.709C159.408 106.135 161.155 106.703 162.746 107.413C164.337 108.124 165.715 108.997 166.88 110.034C168.044 111.071 168.946 112.293 169.586 113.699C170.239 115.105 170.573 116.717 170.587 118.536C170.573 121.206 169.891 123.521 168.542 125.482C167.206 127.428 165.275 128.94 162.746 130.02C160.232 131.085 157.199 131.618 153.648 131.618C150.125 131.618 147.057 131.078 144.444 129.999C141.844 128.919 139.813 127.321 138.35 125.205C136.901 123.074 136.141 120.439 136.07 117.3H144.998C145.097 118.763 145.516 119.984 146.255 120.964C147.007 121.93 148.009 122.662 149.259 123.159C150.523 123.642 151.951 123.884 153.542 123.884C155.104 123.884 156.461 123.656 157.611 123.202C158.776 122.747 159.678 122.115 160.317 121.305C160.956 120.496 161.276 119.565 161.276 118.514C161.276 117.534 160.985 116.71 160.402 116.043C159.834 115.375 158.996 114.807 157.888 114.338C156.794 113.869 155.452 113.443 153.861 113.06L149.11 111.866C145.431 110.972 142.526 109.572 140.395 107.669C138.265 105.766 137.206 103.202 137.221 99.9773C137.206 97.3352 137.909 95.027 139.33 93.0526C140.765 91.0781 142.732 89.5369 145.232 88.429C147.732 87.321 150.573 86.767 153.755 86.767C156.993 86.767 159.82 87.321 162.235 88.429C164.664 89.5369 166.553 91.0781 167.902 93.0526C169.252 95.027 169.948 97.3139 169.99 99.9134H161.148ZM194.03 98.2727V105.091H174.321V98.2727H194.03ZM178.795 90.4318H187.872V120.943C187.872 121.781 188 122.435 188.256 122.903C188.511 123.358 188.866 123.678 189.321 123.862C189.79 124.047 190.33 124.139 190.94 124.139C191.366 124.139 191.793 124.104 192.219 124.033C192.645 123.947 192.972 123.884 193.199 123.841L194.626 130.595C194.172 130.737 193.533 130.901 192.709 131.085C191.885 131.284 190.884 131.405 189.705 131.447C187.517 131.533 185.599 131.241 183.952 130.574C182.318 129.906 181.047 128.869 180.138 127.463C179.229 126.057 178.781 124.281 178.795 122.136V90.4318ZM209.275 131.618C207.187 131.618 205.326 131.256 203.692 130.531C202.059 129.793 200.766 128.706 199.815 127.271C198.877 125.822 198.408 124.018 198.408 121.859C198.408 120.041 198.742 118.514 199.41 117.278C200.077 116.043 200.987 115.048 202.137 114.295C203.288 113.543 204.594 112.974 206.058 112.591C207.535 112.207 209.083 111.938 210.702 111.781C212.606 111.582 214.14 111.398 215.305 111.227C216.469 111.043 217.315 110.773 217.84 110.418C218.366 110.062 218.629 109.537 218.629 108.841V108.713C218.629 107.364 218.202 106.32 217.35 105.581C216.512 104.842 215.319 104.473 213.771 104.473C212.137 104.473 210.837 104.835 209.871 105.56C208.906 106.27 208.266 107.165 207.954 108.244L199.559 107.562C199.985 105.574 200.823 103.855 202.073 102.406C203.323 100.943 204.935 99.821 206.91 99.0398C208.898 98.2443 211.2 97.8466 213.813 97.8466C215.631 97.8466 217.371 98.0597 219.033 98.4858C220.71 98.9119 222.194 99.5724 223.487 100.467C224.793 101.362 225.823 102.513 226.576 103.919C227.329 105.311 227.705 106.98 227.705 108.926V131H219.097V126.462H218.842C218.316 127.484 217.613 128.386 216.732 129.168C215.852 129.935 214.793 130.538 213.558 130.979C212.322 131.405 210.894 131.618 209.275 131.618ZM211.874 125.354C213.21 125.354 214.388 125.091 215.411 124.565C216.434 124.026 217.237 123.301 217.819 122.392C218.401 121.483 218.692 120.453 218.692 119.303V115.83C218.408 116.014 218.018 116.185 217.521 116.341C217.038 116.483 216.491 116.618 215.88 116.746C215.269 116.859 214.658 116.966 214.048 117.065C213.437 117.151 212.883 117.229 212.386 117.3C211.32 117.456 210.39 117.705 209.594 118.045C208.799 118.386 208.181 118.848 207.741 119.43C207.3 119.999 207.08 120.709 207.08 121.561C207.08 122.797 207.528 123.741 208.423 124.395C209.332 125.034 210.482 125.354 211.874 125.354ZM234.747 131V98.2727H243.547V103.983H243.888C244.484 101.952 245.486 100.418 246.892 99.3807C248.298 98.3295 249.918 97.804 251.75 97.804C252.205 97.804 252.695 97.8324 253.22 97.8892C253.746 97.946 254.207 98.0241 254.605 98.1236V106.178C254.179 106.05 253.589 105.936 252.837 105.837C252.084 105.737 251.395 105.688 250.77 105.688C249.435 105.688 248.241 105.979 247.19 106.561C246.153 107.129 245.33 107.925 244.719 108.947C244.122 109.97 243.824 111.149 243.824 112.484V131H234.747ZM278.346 98.2727V105.091H258.637V98.2727H278.346ZM263.112 90.4318H272.189V120.943C272.189 121.781 272.316 122.435 272.572 122.903C272.828 123.358 273.183 123.678 273.637 123.862C274.106 124.047 274.646 124.139 275.257 124.139C275.683 124.139 276.109 124.104 276.535 124.033C276.961 123.947 277.288 123.884 277.515 123.841L278.943 130.595C278.488 130.737 277.849 130.901 277.025 131.085C276.201 131.284 275.2 131.405 274.021 131.447C271.833 131.533 269.916 131.241 268.268 130.574C266.635 129.906 265.363 128.869 264.454 127.463C263.545 126.057 263.098 124.281 263.112 122.136V90.4318ZM311.079 107.605L302.769 108.116C302.627 107.406 302.322 106.767 301.853 106.199C301.384 105.616 300.766 105.155 299.999 104.814C299.246 104.459 298.344 104.281 297.293 104.281C295.887 104.281 294.701 104.58 293.735 105.176C292.769 105.759 292.286 106.54 292.286 107.52C292.286 108.301 292.599 108.962 293.224 109.501C293.849 110.041 294.921 110.474 296.441 110.801L302.364 111.994C305.546 112.648 307.918 113.699 309.481 115.148C311.043 116.597 311.825 118.5 311.825 120.858C311.825 123.003 311.192 124.885 309.928 126.504C308.678 128.124 306.96 129.388 304.772 130.297C302.599 131.192 300.092 131.639 297.251 131.639C292.918 131.639 289.467 130.737 286.896 128.933C284.339 127.115 282.84 124.643 282.4 121.518L291.327 121.05C291.597 122.371 292.251 123.379 293.288 124.075C294.325 124.757 295.653 125.098 297.272 125.098C298.863 125.098 300.141 124.793 301.107 124.182C302.087 123.557 302.585 122.754 302.599 121.774C302.585 120.95 302.237 120.276 301.555 119.75C300.873 119.21 299.822 118.798 298.401 118.514L292.734 117.385C289.538 116.746 287.158 115.638 285.596 114.061C284.048 112.484 283.273 110.474 283.273 108.031C283.273 105.929 283.842 104.118 284.978 102.598C286.129 101.078 287.741 99.9062 289.815 99.0824C291.903 98.2585 294.346 97.8466 297.144 97.8466C301.278 97.8466 304.531 98.7202 306.903 100.467C309.289 102.214 310.681 104.594 311.079 107.605ZM331.597 131V87.3636H340.823V105.368H359.552V87.3636H368.756V131H359.552V112.974H340.823V131H331.597ZM391.107 131.639C387.741 131.639 384.843 130.957 382.414 129.594C379.999 128.216 378.138 126.27 376.832 123.756C375.525 121.227 374.871 118.237 374.871 114.786C374.871 111.419 375.525 108.464 376.832 105.922C378.138 103.379 379.978 101.398 382.35 99.9773C384.737 98.5568 387.535 97.8466 390.745 97.8466C392.904 97.8466 394.914 98.1946 396.775 98.8906C398.65 99.5724 400.283 100.602 401.675 101.98C403.082 103.358 404.175 105.091 404.957 107.179C405.738 109.253 406.129 111.682 406.129 114.466V116.959H378.494V111.334H397.585C397.585 110.027 397.3 108.869 396.732 107.861C396.164 106.852 395.376 106.064 394.367 105.496C393.373 104.913 392.215 104.622 390.894 104.622C389.516 104.622 388.295 104.942 387.229 105.581C386.178 106.206 385.354 107.051 384.758 108.116C384.161 109.168 383.856 110.339 383.842 111.632V116.98C383.842 118.599 384.14 119.999 384.737 121.178C385.347 122.357 386.207 123.266 387.315 123.905C388.423 124.544 389.737 124.864 391.256 124.864C392.265 124.864 393.188 124.722 394.026 124.438C394.864 124.153 395.582 123.727 396.178 123.159C396.775 122.591 397.229 121.895 397.542 121.071L405.937 121.625C405.511 123.642 404.637 125.403 403.316 126.909C402.009 128.401 400.319 129.565 398.245 130.403C396.185 131.227 393.806 131.639 391.107 131.639ZM412.052 131V98.2727H420.852V103.983H421.192C421.789 101.952 422.79 100.418 424.197 99.3807C425.603 98.3295 427.222 97.804 429.055 97.804C429.509 97.804 429.999 97.8324 430.525 97.8892C431.05 97.946 431.512 98.0241 431.91 98.1236V106.178C431.484 106.05 430.894 105.936 430.141 105.837C429.388 105.737 428.7 105.688 428.075 105.688C426.739 105.688 425.546 105.979 424.495 106.561C423.458 107.129 422.634 107.925 422.023 108.947C421.427 109.97 421.129 111.149 421.129 112.484V131H412.052ZM449.994 131.639C446.627 131.639 443.73 130.957 441.301 129.594C438.886 128.216 437.025 126.27 435.718 123.756C434.412 121.227 433.758 118.237 433.758 114.786C433.758 111.419 434.412 108.464 435.718 105.922C437.025 103.379 438.865 101.398 441.237 99.9773C443.623 98.5568 446.422 97.8466 449.632 97.8466C451.791 97.8466 453.801 98.1946 455.662 98.8906C457.537 99.5724 459.17 100.602 460.562 101.98C461.968 103.358 463.062 105.091 463.843 107.179C464.625 109.253 465.015 111.682 465.015 114.466V116.959H437.38V111.334H456.471C456.471 110.027 456.187 108.869 455.619 107.861C455.051 106.852 454.262 106.064 453.254 105.496C452.26 104.913 451.102 104.622 449.781 104.622C448.403 104.622 447.181 104.942 446.116 105.581C445.065 106.206 444.241 107.051 443.645 108.116C443.048 109.168 442.743 110.339 442.728 111.632V116.98C442.728 118.599 443.027 119.999 443.623 121.178C444.234 122.357 445.093 123.266 446.201 123.905C447.309 124.544 448.623 124.864 450.143 124.864C451.152 124.864 452.075 124.722 452.913 124.438C453.751 124.153 454.468 123.727 455.065 123.159C455.662 122.591 456.116 121.895 456.429 121.071L464.824 121.625C464.397 123.642 463.524 125.403 462.203 126.909C460.896 128.401 459.206 129.565 457.132 130.403C455.072 131.227 452.693 131.639 449.994 131.639Z" fill="#2469FD"/>
<path d="M210.074 58H194.605V14.3636H210.202C214.591 14.3636 218.369 15.2372 221.537 16.9844C224.705 18.7173 227.141 21.2102 228.845 24.4631C230.564 27.7159 231.423 31.608 231.423 36.1392C231.423 40.6847 230.564 44.5909 228.845 47.858C227.141 51.125 224.69 53.6321 221.494 55.3793C218.312 57.1264 214.506 58 210.074 58ZM203.831 50.0952H209.69C212.418 50.0952 214.712 49.6122 216.572 48.6463C218.447 47.6662 219.854 46.1534 220.791 44.108C221.743 42.0483 222.219 39.392 222.219 36.1392C222.219 32.9148 221.743 30.2798 220.791 28.2344C219.854 26.1889 218.455 24.6832 216.594 23.7173C214.733 22.7514 212.439 22.2685 209.712 22.2685H203.831V50.0952ZM238.087 58V25.2727H246.887V30.983H247.228C247.824 28.9517 248.826 27.4176 250.232 26.3807C251.638 25.3295 253.257 24.804 255.09 24.804C255.544 24.804 256.034 24.8324 256.56 24.8892C257.086 24.946 257.547 25.0241 257.945 25.1236V33.1776C257.519 33.0497 256.929 32.9361 256.176 32.8366C255.424 32.7372 254.735 32.6875 254.11 32.6875C252.775 32.6875 251.581 32.9787 250.53 33.5611C249.493 34.1293 248.669 34.9247 248.059 35.9474C247.462 36.9702 247.164 38.1491 247.164 39.4844V58H238.087ZM276.029 58.6392C272.663 58.6392 269.765 57.9574 267.336 56.5938C264.921 55.2159 263.06 53.2699 261.754 50.7557C260.447 48.2273 259.793 45.2372 259.793 41.7855C259.793 38.419 260.447 35.4645 261.754 32.9219C263.06 30.3793 264.9 28.3977 267.272 26.9773C269.658 25.5568 272.457 24.8466 275.667 24.8466C277.826 24.8466 279.836 25.1946 281.697 25.8906C283.572 26.5724 285.205 27.6023 286.597 28.9801C288.004 30.358 289.097 32.0909 289.879 34.179C290.66 36.2528 291.05 38.6818 291.05 41.4659V43.9588H263.415V38.3338H282.506C282.506 37.027 282.222 35.8693 281.654 34.8608C281.086 33.8523 280.298 33.0639 279.289 32.4957C278.295 31.9134 277.137 31.6222 275.816 31.6222C274.438 31.6222 273.217 31.9418 272.151 32.581C271.1 33.206 270.276 34.0511 269.68 35.1165C269.083 36.1676 268.778 37.3395 268.763 38.6321V43.9801C268.763 45.5994 269.062 46.9986 269.658 48.1776C270.269 49.3565 271.129 50.2656 272.237 50.9048C273.344 51.544 274.658 51.8636 276.178 51.8636C277.187 51.8636 278.11 51.7216 278.948 51.4375C279.786 51.1534 280.504 50.7273 281.1 50.1591C281.697 49.5909 282.151 48.8949 282.464 48.071L290.859 48.625C290.433 50.642 289.559 52.4034 288.238 53.9091C286.931 55.4006 285.241 56.5653 283.167 57.4034C281.107 58.2273 278.728 58.6392 276.029 58.6392ZM306.306 58.6179C304.218 58.6179 302.357 58.2557 300.724 57.5312C299.09 56.7926 297.798 55.706 296.846 54.2713C295.908 52.8224 295.44 51.0185 295.44 48.8594C295.44 47.0412 295.773 45.5142 296.441 44.2784C297.109 43.0426 298.018 42.0483 299.168 41.2955C300.319 40.5426 301.626 39.9744 303.089 39.5909C304.566 39.2074 306.114 38.9375 307.734 38.7812C309.637 38.5824 311.171 38.3977 312.336 38.2273C313.501 38.0426 314.346 37.7727 314.871 37.4176C315.397 37.0625 315.66 36.5369 315.66 35.8409V35.7131C315.66 34.3636 315.234 33.3196 314.381 32.581C313.543 31.8423 312.35 31.473 310.802 31.473C309.168 31.473 307.869 31.8352 306.903 32.5597C305.937 33.2699 305.298 34.1648 304.985 35.2443L296.59 34.5625C297.016 32.5739 297.854 30.8551 299.104 29.4062C300.354 27.9432 301.967 26.821 303.941 26.0398C305.93 25.2443 308.231 24.8466 310.844 24.8466C312.663 24.8466 314.403 25.0597 316.065 25.4858C317.741 25.9119 319.225 26.5724 320.518 27.4673C321.825 28.3622 322.854 29.5128 323.607 30.919C324.36 32.3111 324.737 33.9801 324.737 35.9261V58H316.129V53.4616H315.873C315.347 54.4844 314.644 55.3864 313.763 56.1676C312.883 56.9347 311.825 57.5384 310.589 57.9787C309.353 58.4048 307.925 58.6179 306.306 58.6179ZM308.906 52.3537C310.241 52.3537 311.42 52.0909 312.442 51.5653C313.465 51.0256 314.268 50.3011 314.85 49.392C315.433 48.483 315.724 47.4531 315.724 46.3026V42.8295C315.44 43.0142 315.049 43.1847 314.552 43.3409C314.069 43.483 313.522 43.6179 312.911 43.7457C312.3 43.8594 311.69 43.9659 311.079 44.0653C310.468 44.1506 309.914 44.2287 309.417 44.2997C308.352 44.456 307.421 44.7045 306.626 45.0455C305.83 45.3864 305.212 45.848 304.772 46.4304C304.332 46.9986 304.112 47.7088 304.112 48.5611C304.112 49.7969 304.559 50.7415 305.454 51.3949C306.363 52.0341 307.513 52.3537 308.906 52.3537ZM331.778 58V25.2727H340.429V31.0469H340.812C341.494 29.1293 342.631 27.6165 344.222 26.5085C345.812 25.4006 347.716 24.8466 349.932 24.8466C352.176 24.8466 354.087 25.4077 355.663 26.5298C357.24 27.6378 358.291 29.1435 358.817 31.0469H359.158C359.825 29.1719 361.033 27.6733 362.78 26.5511C364.541 25.4148 366.622 24.8466 369.023 24.8466C372.077 24.8466 374.555 25.8196 376.459 27.7656C378.376 29.6974 379.335 32.4389 379.335 35.9901V58H370.28V37.7798C370.28 35.9616 369.797 34.598 368.831 33.6889C367.865 32.7798 366.658 32.3253 365.209 32.3253C363.561 32.3253 362.276 32.8509 361.352 33.902C360.429 34.9389 359.967 36.3097 359.967 38.0142V58H351.168V37.5881C351.168 35.983 350.706 34.7045 349.783 33.7528C348.874 32.8011 347.673 32.3253 346.182 32.3253C345.173 32.3253 344.264 32.581 343.455 33.0923C342.659 33.5895 342.027 34.2926 341.558 35.2017C341.089 36.0966 340.855 37.1477 340.855 38.3551V58H331.778ZM424.234 26.9134C424.064 25.1946 423.332 23.8594 422.039 22.9077C420.747 21.956 418.993 21.4801 416.777 21.4801C415.271 21.4801 414 21.6932 412.963 22.1193C411.926 22.5312 411.13 23.1065 410.576 23.8452C410.037 24.5838 409.767 25.4219 409.767 26.3594C409.738 27.1406 409.902 27.8224 410.257 28.4048C410.626 28.9872 411.13 29.4915 411.77 29.9176C412.409 30.3295 413.147 30.6918 413.985 31.0043C414.824 31.3026 415.718 31.5582 416.67 31.7713L420.591 32.7088C422.494 33.1349 424.241 33.7031 425.832 34.4134C427.423 35.1236 428.801 35.9972 429.966 37.0341C431.13 38.071 432.032 39.2926 432.672 40.6989C433.325 42.1051 433.659 43.7173 433.673 45.5355C433.659 48.206 432.977 50.5213 431.627 52.4815C430.292 54.4276 428.36 55.9403 425.832 57.0199C423.318 58.0852 420.285 58.6179 416.734 58.6179C413.211 58.6179 410.143 58.0781 407.529 56.9986C404.93 55.919 402.899 54.321 401.436 52.2045C399.987 50.0739 399.227 47.4389 399.156 44.2997H408.083C408.183 45.7628 408.602 46.9844 409.341 47.9645C410.093 48.9304 411.095 49.6619 412.345 50.1591C413.609 50.642 415.037 50.8835 416.627 50.8835C418.19 50.8835 419.547 50.6562 420.697 50.2017C421.862 49.7472 422.764 49.1151 423.403 48.3054C424.042 47.4957 424.362 46.5653 424.362 45.5142C424.362 44.5341 424.071 43.7102 423.488 43.0426C422.92 42.375 422.082 41.8068 420.974 41.3381C419.88 40.8693 418.538 40.4432 416.947 40.0597L412.196 38.8665C408.517 37.9716 405.612 36.5724 403.481 34.669C401.35 32.7656 400.292 30.2017 400.306 26.9773C400.292 24.3352 400.995 22.027 402.416 20.0526C403.85 18.0781 405.818 16.5369 408.318 15.429C410.818 14.321 413.659 13.767 416.841 13.767C420.079 13.767 422.906 14.321 425.321 15.429C427.75 16.5369 429.639 18.0781 430.988 20.0526C432.338 22.027 433.034 24.3139 433.076 26.9134H424.234ZM439.708 58V25.2727H448.359V31.0469H448.742C449.424 29.1293 450.56 27.6165 452.151 26.5085C453.742 25.4006 455.646 24.8466 457.862 24.8466C460.106 24.8466 462.016 25.4077 463.593 26.5298C465.17 27.6378 466.221 29.1435 466.746 31.0469H467.087C467.755 29.1719 468.962 27.6733 470.71 26.5511C472.471 25.4148 474.552 24.8466 476.952 24.8466C480.006 24.8466 482.485 25.8196 484.388 27.7656C486.306 29.6974 487.265 32.4389 487.265 35.9901V58H478.21V37.7798C478.21 35.9616 477.727 34.598 476.761 33.6889C475.795 32.7798 474.587 32.3253 473.138 32.3253C471.491 32.3253 470.205 32.8509 469.282 33.902C468.359 34.9389 467.897 36.3097 467.897 38.0142V58H459.097V37.5881C459.097 35.983 458.636 34.7045 457.712 33.7528C456.803 32.8011 455.603 32.3253 454.112 32.3253C453.103 32.3253 452.194 32.581 451.384 33.0923C450.589 33.5895 449.957 34.2926 449.488 35.2017C449.019 36.0966 448.785 37.1477 448.785 38.3551V58H439.708ZM494.435 58V25.2727H503.511V58H494.435ZM498.994 21.054C497.645 21.054 496.487 20.6065 495.521 19.7116C494.57 18.8026 494.094 17.7159 494.094 16.4517C494.094 15.2017 494.57 14.1293 495.521 13.2344C496.487 12.3253 497.645 11.8707 498.994 11.8707C500.344 11.8707 501.494 12.3253 502.446 13.2344C503.412 14.1293 503.895 15.2017 503.895 16.4517C503.895 17.7159 503.412 18.8026 502.446 19.7116C501.494 20.6065 500.344 21.054 498.994 21.054ZM519.859 14.3636V58H510.782V14.3636H519.859ZM542.045 58.6392C538.678 58.6392 535.781 57.9574 533.352 56.5938C530.937 55.2159 529.076 53.2699 527.769 50.7557C526.462 48.2273 525.809 45.2372 525.809 41.7855C525.809 38.419 526.462 35.4645 527.769 32.9219C529.076 30.3793 530.915 28.3977 533.288 26.9773C535.674 25.5568 538.472 24.8466 541.683 24.8466C543.842 24.8466 545.852 25.1946 547.712 25.8906C549.587 26.5724 551.221 27.6023 552.613 28.9801C554.019 30.358 555.113 32.0909 555.894 34.179C556.675 36.2528 557.066 38.6818 557.066 41.4659V43.9588H529.431V38.3338H548.522C548.522 37.027 548.238 35.8693 547.67 34.8608C547.102 33.8523 546.313 33.0639 545.305 32.4957C544.31 31.9134 543.153 31.6222 541.832 31.6222C540.454 31.6222 539.232 31.9418 538.167 32.581C537.116 33.206 536.292 34.0511 535.695 35.1165C535.099 36.1676 534.793 37.3395 534.779 38.6321V43.9801C534.779 45.5994 535.077 46.9986 535.674 48.1776C536.285 49.3565 537.144 50.2656 538.252 50.9048C539.36 51.544 540.674 51.8636 542.194 51.8636C543.202 51.8636 544.126 51.7216 544.964 51.4375C545.802 51.1534 546.519 50.7273 547.116 50.1591C547.712 49.5909 548.167 48.8949 548.479 48.071L556.874 48.625C556.448 50.642 555.575 52.4034 554.254 53.9091C552.947 55.4006 551.256 56.5653 549.183 57.4034C547.123 58.2273 544.744 58.6392 542.045 58.6392Z" fill="url(#paint0_linear_52_101)"/>
<defs>
<linearGradient id="paint0_linear_52_101" x1="582.5" y1="39.2856" x2="232.654" y2="60.7402" gradientUnits="userSpaceOnUse">
<stop stop-color="#80CAFF"/>
<stop offset="1" stop-color="#B580FF"/>
</linearGradient>
</defs>
</svg>
