<svg width="521" height="60" viewBox="0 0 521 60" fill="none" xmlns="http://www.w3.org/2000/svg">
<rect x="0.5" y="0.5" width="329" height="59" rx="29.5" stroke="url(#paint0_linear_52_102)"/>
<path d="M48.8752 26.3622H46.2189C46.1432 25.9266 46.0035 25.5407 45.7999 25.2045C45.5963 24.8636 45.343 24.5748 45.04 24.3381C44.7369 24.1013 44.3913 23.9238 44.003 23.8054C43.6195 23.6823 43.2052 23.6207 42.7601 23.6207C41.9694 23.6207 41.2686 23.8196 40.6578 24.2173C40.0471 24.6103 39.5688 25.188 39.2232 25.9503C38.8775 26.7079 38.7047 27.6335 38.7047 28.7273C38.7047 29.84 38.8775 30.7775 39.2232 31.5398C39.5736 32.2973 40.0518 32.8703 40.6578 33.2585C41.2686 33.642 41.967 33.8338 42.753 33.8338C43.1886 33.8338 43.5958 33.777 43.9746 33.6634C44.3581 33.545 44.7014 33.3722 45.0044 33.1449C45.3122 32.9176 45.5703 32.6383 45.7786 32.3068C45.9917 31.9754 46.1384 31.5966 46.2189 31.1705L48.8752 31.1847C48.7757 31.8759 48.5603 32.5246 48.2289 33.1307C47.9022 33.7367 47.4737 34.2718 46.9434 34.7358C46.4131 35.1951 45.7928 35.5549 45.0826 35.8153C44.3723 36.071 43.584 36.1989 42.7175 36.1989C41.4391 36.1989 40.298 35.9029 39.2942 35.3111C38.2904 34.7192 37.4997 33.8646 36.9221 32.7472C36.3444 31.6297 36.0556 30.2898 36.0556 28.7273C36.0556 27.16 36.3468 25.8201 36.9292 24.7074C37.5115 23.59 38.3046 22.7353 39.3084 22.1435C40.3122 21.5516 41.4486 21.2557 42.7175 21.2557C43.5272 21.2557 44.28 21.3693 44.976 21.5966C45.6721 21.8239 46.2923 22.1577 46.8368 22.598C47.3813 23.0336 47.8288 23.5687 48.1792 24.2031C48.5343 24.8329 48.7663 25.5526 48.8752 26.3622ZM54.3137 36.2202C53.6225 36.2202 52.9998 36.0971 52.4458 35.8509C51.8966 35.5999 51.461 35.2306 51.139 34.7429C50.8218 34.2552 50.6632 33.6539 50.6632 32.9389C50.6632 32.3234 50.7768 31.8144 51.0041 31.4119C51.2314 31.0095 51.5415 30.6875 51.9345 30.446C52.3275 30.2045 52.7702 30.0223 53.2626 29.8991C53.7598 29.7713 54.2735 29.679 54.8038 29.6222C55.443 29.5559 55.9615 29.4967 56.3592 29.4446C56.7569 29.3878 57.0458 29.3026 57.2257 29.1889C57.4103 29.0705 57.5027 28.8883 57.5027 28.642V28.5994C57.5027 28.0644 57.344 27.6501 57.0268 27.3565C56.7096 27.063 56.2527 26.9162 55.6561 26.9162C55.0263 26.9162 54.5268 27.0535 54.1575 27.3281C53.7929 27.6027 53.5467 27.9271 53.4189 28.3011L51.0183 27.9602C51.2077 27.2973 51.5202 26.7434 51.9558 26.2983C52.3914 25.8485 52.9241 25.5123 53.5538 25.2898C54.1835 25.0625 54.8796 24.9489 55.6419 24.9489C56.1674 24.9489 56.6906 25.0104 57.2115 25.1335C57.7323 25.2566 58.2082 25.4602 58.639 25.7443C59.0699 26.0237 59.4155 26.4048 59.676 26.8878C59.9411 27.3707 60.0737 27.9744 60.0737 28.6989V36H57.6021V34.5014H57.5169C57.3606 34.8045 57.1404 35.0885 56.8564 35.3537C56.577 35.6141 56.2243 35.8248 55.7981 35.9858C55.3767 36.142 54.8819 36.2202 54.3137 36.2202ZM54.9814 34.331C55.4975 34.331 55.9449 34.2292 56.3237 34.0256C56.7025 33.8172 56.9937 33.5426 57.1973 33.2017C57.4056 32.8608 57.5098 32.4891 57.5098 32.0866V30.8011C57.4293 30.8674 57.292 30.929 57.0978 30.9858C56.9084 31.0426 56.6954 31.0923 56.4586 31.1349C56.2219 31.1776 55.9875 31.2154 55.7555 31.2486C55.5235 31.2817 55.3223 31.3101 55.1518 31.3338C54.7683 31.3859 54.425 31.4711 54.122 31.5895C53.819 31.7079 53.5798 31.8736 53.4047 32.0866C53.2295 32.295 53.1419 32.5649 53.1419 32.8963C53.1419 33.3698 53.3147 33.7273 53.6603 33.9688C54.006 34.2102 54.4463 34.331 54.9814 34.331ZM65.2299 21.4545V36H62.6589V21.4545H65.2299ZM70.4448 21.4545V36H67.8738V21.4545H70.4448ZM77.524 23.6634V21.4545H89.1291V23.6634H84.6333V36H82.0197V23.6634H77.524ZM94.4292 36.2131C93.3638 36.2131 92.4405 35.9787 91.6593 35.5099C90.878 35.0412 90.272 34.3854 89.8411 33.5426C89.415 32.6998 89.2019 31.715 89.2019 30.5881C89.2019 29.4612 89.415 28.474 89.8411 27.6264C90.272 26.7789 90.878 26.1207 91.6593 25.652C92.4405 25.1832 93.3638 24.9489 94.4292 24.9489C95.4945 24.9489 96.4178 25.1832 97.199 25.652C97.9803 26.1207 98.584 26.7789 99.0101 27.6264C99.441 28.474 99.6564 29.4612 99.6564 30.5881C99.6564 31.715 99.441 32.6998 99.0101 33.5426C98.584 34.3854 97.9803 35.0412 97.199 35.5099C96.4178 35.9787 95.4945 36.2131 94.4292 36.2131ZM94.4434 34.1534C95.021 34.1534 95.504 33.9948 95.8922 33.6776C96.2805 33.3556 96.5693 32.9247 96.7587 32.3849C96.9528 31.8452 97.0499 31.2438 97.0499 30.581C97.0499 29.9134 96.9528 29.3097 96.7587 28.7699C96.5693 28.2254 96.2805 27.7921 95.8922 27.4702C95.504 27.1482 95.021 26.9872 94.4434 26.9872C93.8515 26.9872 93.3591 27.1482 92.9661 27.4702C92.5778 27.7921 92.2866 28.2254 92.0925 28.7699C91.9031 29.3097 91.8084 29.9134 91.8084 30.581C91.8084 31.2438 91.9031 31.8452 92.0925 32.3849C92.2866 32.9247 92.5778 33.3556 92.9661 33.6776C93.3591 33.9948 93.8515 34.1534 94.4434 34.1534ZM106.913 36V21.4545H112.481C113.532 21.4545 114.406 21.6203 115.102 21.9517C115.803 22.2784 116.326 22.7259 116.672 23.294C117.022 23.8622 117.197 24.5062 117.197 25.2259C117.197 25.8177 117.084 26.3243 116.856 26.7457C116.629 27.1624 116.324 27.5009 115.94 27.7614C115.557 28.0218 115.128 28.2088 114.655 28.3224V28.4645C115.171 28.4929 115.666 28.6515 116.139 28.9403C116.617 29.2244 117.008 29.6269 117.311 30.1477C117.614 30.6686 117.765 31.2983 117.765 32.0369C117.765 32.7898 117.583 33.4669 117.219 34.0682C116.854 34.6648 116.305 35.1359 115.571 35.4815C114.837 35.8272 113.914 36 112.801 36H106.913ZM109.548 33.7983H112.382C113.338 33.7983 114.027 33.616 114.449 33.2514C114.875 32.8821 115.088 32.4086 115.088 31.831C115.088 31.4001 114.981 31.0118 114.768 30.6662C114.555 30.3158 114.252 30.0412 113.859 29.8423C113.466 29.6387 112.997 29.5369 112.453 29.5369H109.548V33.7983ZM109.548 27.6406H112.155C112.609 27.6406 113.019 27.5578 113.383 27.392C113.748 27.2216 114.034 26.9825 114.243 26.6747C114.456 26.3622 114.562 25.9929 114.562 25.5668C114.562 25.0033 114.363 24.5393 113.966 24.1747C113.573 23.8101 112.988 23.6278 112.211 23.6278H109.548V27.6406ZM124.703 36.2131C123.637 36.2131 122.714 35.9787 121.933 35.5099C121.151 35.0412 120.545 34.3854 120.115 33.5426C119.688 32.6998 119.475 31.715 119.475 30.5881C119.475 29.4612 119.688 28.474 120.115 27.6264C120.545 26.7789 121.151 26.1207 121.933 25.652C122.714 25.1832 123.637 24.9489 124.703 24.9489C125.768 24.9489 126.691 25.1832 127.472 25.652C128.254 26.1207 128.857 26.7789 129.284 27.6264C129.714 28.474 129.93 29.4612 129.93 30.5881C129.93 31.715 129.714 32.6998 129.284 33.5426C128.857 34.3854 128.254 35.0412 127.472 35.5099C126.691 35.9787 125.768 36.2131 124.703 36.2131ZM124.717 34.1534C125.294 34.1534 125.777 33.9948 126.166 33.6776C126.554 33.3556 126.843 32.9247 127.032 32.3849C127.226 31.8452 127.323 31.2438 127.323 30.581C127.323 29.9134 127.226 29.3097 127.032 28.7699C126.843 28.2254 126.554 27.7921 126.166 27.4702C125.777 27.1482 125.294 26.9872 124.717 26.9872C124.125 26.9872 123.633 27.1482 123.24 27.4702C122.851 27.7921 122.56 28.2254 122.366 28.7699C122.177 29.3097 122.082 29.9134 122.082 30.581C122.082 31.2438 122.177 31.8452 122.366 32.3849C122.56 32.9247 122.851 33.3556 123.24 33.6776C123.633 33.9948 124.125 34.1534 124.717 34.1534ZM136.871 36.2131C135.805 36.2131 134.882 35.9787 134.101 35.5099C133.319 35.0412 132.713 34.3854 132.282 33.5426C131.856 32.6998 131.643 31.715 131.643 30.5881C131.643 29.4612 131.856 28.474 132.282 27.6264C132.713 26.7789 133.319 26.1207 134.101 25.652C134.882 25.1832 135.805 24.9489 136.871 24.9489C137.936 24.9489 138.859 25.1832 139.64 25.652C140.422 26.1207 141.025 26.7789 141.452 27.6264C141.882 28.474 142.098 29.4612 142.098 30.5881C142.098 31.715 141.882 32.6998 141.452 33.5426C141.025 34.3854 140.422 35.0412 139.64 35.5099C138.859 35.9787 137.936 36.2131 136.871 36.2131ZM136.885 34.1534C137.462 34.1534 137.945 33.9948 138.334 33.6776C138.722 33.3556 139.011 32.9247 139.2 32.3849C139.394 31.8452 139.491 31.2438 139.491 30.581C139.491 29.9134 139.394 29.3097 139.2 28.7699C139.011 28.2254 138.722 27.7921 138.334 27.4702C137.945 27.1482 137.462 26.9872 136.885 26.9872C136.293 26.9872 135.8 27.1482 135.407 27.4702C135.019 27.7921 134.728 28.2254 134.534 28.7699C134.345 29.3097 134.25 29.9134 134.25 30.581C134.25 31.2438 134.345 31.8452 134.534 32.3849C134.728 32.9247 135.019 33.3556 135.407 33.6776C135.8 33.9948 136.293 34.1534 136.885 34.1534ZM146.624 32.5767L146.617 29.473H147.029L150.949 25.0909H153.953L149.131 30.4602H148.598L146.624 32.5767ZM144.28 36V21.4545H146.851V36H144.28ZM151.127 36L147.575 31.0355L149.308 29.2244L154.202 36H151.127ZM165.649 21.2557C166.345 21.2604 167.022 21.3835 167.68 21.625C168.343 21.8617 168.94 22.25 169.47 22.7898C170 23.3248 170.422 24.0421 170.734 24.9418C171.047 25.8414 171.203 26.9541 171.203 28.2798C171.208 29.5298 171.075 30.6473 170.805 31.6321C170.54 32.6122 170.159 33.4408 169.662 34.1179C169.165 34.795 168.566 35.3111 167.865 35.6662C167.164 36.0213 166.376 36.1989 165.5 36.1989C164.581 36.1989 163.767 36.0189 163.057 35.6591C162.351 35.2992 161.781 34.8068 161.345 34.1818C160.909 33.5568 160.642 32.8419 160.542 32.0369H163.135C163.267 32.6146 163.537 33.0739 163.944 33.4148C164.356 33.7509 164.875 33.919 165.5 33.919C166.508 33.919 167.285 33.4811 167.829 32.6051C168.374 31.7292 168.646 30.5123 168.646 28.9545H168.547C168.315 29.3712 168.014 29.7311 167.645 30.0341C167.275 30.3324 166.856 30.562 166.388 30.723C165.924 30.884 165.431 30.9645 164.91 30.9645C164.058 30.9645 163.291 30.7609 162.609 30.3537C161.932 29.9465 161.395 29.3878 160.997 28.6776C160.604 27.9673 160.405 27.1553 160.4 26.2415C160.4 25.2945 160.618 24.4446 161.054 23.6918C161.494 22.9342 162.107 22.3376 162.893 21.902C163.679 21.4616 164.598 21.2462 165.649 21.2557ZM165.656 23.3864C165.145 23.3864 164.683 23.5118 164.271 23.7628C163.864 24.009 163.542 24.3452 163.305 24.7713C163.073 25.1927 162.957 25.6638 162.957 26.1847C162.962 26.7008 163.078 27.1695 163.305 27.5909C163.537 28.0123 163.852 28.3461 164.25 28.5923C164.652 28.8385 165.112 28.9616 165.628 28.9616C166.011 28.9616 166.369 28.8883 166.7 28.7415C167.032 28.5947 167.32 28.3911 167.567 28.1307C167.818 27.8655 168.012 27.5649 168.149 27.2287C168.291 26.8925 168.36 26.5374 168.355 26.1634C168.355 25.6662 168.237 25.2069 168 24.7855C167.768 24.3641 167.448 24.0256 167.041 23.7699C166.639 23.5142 166.177 23.3864 165.656 23.3864ZM179.484 21.4545V36H176.849V24.0185H176.764L173.362 26.1918V23.777L176.977 21.4545H179.484ZM188.504 36.1989C187.808 36.1941 187.129 36.0734 186.466 35.8366C185.803 35.5952 185.206 35.2045 184.676 34.6648C184.146 34.1203 183.724 33.3982 183.412 32.4986C183.099 31.5942 182.945 30.4744 182.95 29.1392C182.95 27.8939 183.083 26.7836 183.348 25.8082C183.613 24.8329 183.994 24.009 184.491 23.3366C184.988 22.6596 185.587 22.1435 186.288 21.7884C186.994 21.4332 187.782 21.2557 188.653 21.2557C189.567 21.2557 190.377 21.4356 191.082 21.7955C191.792 22.1553 192.365 22.6477 192.801 23.2727C193.237 23.893 193.506 24.5938 193.611 25.375H191.018C190.886 24.8163 190.613 24.3712 190.202 24.0398C189.794 23.7036 189.278 23.5355 188.653 23.5355C187.645 23.5355 186.868 23.9735 186.324 24.8494C185.784 25.7254 185.512 26.928 185.507 28.4574H185.606C185.838 28.0407 186.139 27.6832 186.508 27.3849C186.878 27.0866 187.294 26.857 187.758 26.696C188.227 26.5303 188.722 26.4474 189.243 26.4474C190.095 26.4474 190.86 26.651 191.537 27.0582C192.219 27.4654 192.758 28.0265 193.156 28.7415C193.554 29.4517 193.75 30.2661 193.746 31.1847C193.75 32.1411 193.532 33.0005 193.092 33.7628C192.652 34.5204 192.039 35.117 191.253 35.5526C190.467 35.9882 189.55 36.2036 188.504 36.1989ZM188.49 34.0682C189.006 34.0682 189.468 33.9427 189.875 33.6918C190.282 33.4408 190.604 33.1023 190.841 32.6761C191.077 32.25 191.193 31.7718 191.189 31.2415C191.193 30.7206 191.08 30.2495 190.848 29.8281C190.621 29.4067 190.306 29.0729 189.903 28.8267C189.501 28.5805 189.041 28.4574 188.525 28.4574C188.142 28.4574 187.784 28.5308 187.453 28.6776C187.122 28.8243 186.833 29.0279 186.586 29.2884C186.34 29.544 186.146 29.8423 186.004 30.1832C185.867 30.5194 185.796 30.8793 185.791 31.2628C185.796 31.7694 185.914 32.2358 186.146 32.6619C186.378 33.0881 186.698 33.429 187.105 33.6847C187.512 33.9403 187.974 34.0682 188.49 34.0682ZM202.787 27.669V29.7855H196.238V27.669H202.787ZM204.955 36V34.0966L210.004 29.1463C210.487 28.6586 210.89 28.2254 211.212 27.8466C211.534 27.4678 211.775 27.1009 211.936 26.7457C212.097 26.3906 212.178 26.0118 212.178 25.6094C212.178 25.1501 212.074 24.7571 211.865 24.4304C211.657 24.099 211.37 23.8433 211.006 23.6634C210.641 23.4834 210.227 23.3935 209.763 23.3935C209.285 23.3935 208.866 23.4929 208.506 23.6918C208.146 23.8859 207.867 24.1629 207.668 24.5227C207.474 24.8826 207.377 25.3111 207.377 25.8082H204.869C204.869 24.8849 205.08 24.0824 205.502 23.4006C205.923 22.7187 206.503 22.1908 207.242 21.8168C207.985 21.4427 208.837 21.2557 209.798 21.2557C210.774 21.2557 211.631 21.438 212.369 21.8026C213.108 22.1671 213.681 22.6667 214.088 23.3011C214.5 23.9356 214.706 24.66 214.706 25.4744C214.706 26.0189 214.602 26.554 214.394 27.0795C214.185 27.6051 213.818 28.1875 213.293 28.8267C212.772 29.4659 212.04 30.2401 211.098 31.1491L208.591 33.6989V33.7983H214.926V36H204.955ZM222.433 36.1989C221.486 36.1989 220.639 36.0213 219.891 35.6662C219.143 35.3063 218.548 34.8139 218.108 34.1889C217.673 33.5639 217.441 32.849 217.412 32.044H219.969C220.016 32.6406 220.274 33.1283 220.743 33.5071C221.212 33.8812 221.775 34.0682 222.433 34.0682C222.95 34.0682 223.409 33.9498 223.811 33.7131C224.214 33.4763 224.531 33.1473 224.763 32.7259C224.995 32.3045 225.109 31.8239 225.104 31.2841C225.109 30.7348 224.993 30.2472 224.756 29.821C224.519 29.3949 224.195 29.0611 223.783 28.8196C223.371 28.5734 222.897 28.4503 222.362 28.4503C221.927 28.4455 221.498 28.526 221.077 28.6918C220.655 28.8575 220.322 29.0753 220.075 29.3452L217.696 28.9545L218.456 21.4545H226.894V23.6562H220.637L220.218 27.5128H220.303C220.573 27.1955 220.954 26.9328 221.446 26.7244C221.939 26.5114 222.478 26.4048 223.066 26.4048C223.946 26.4048 224.732 26.6132 225.423 27.0298C226.115 27.4418 226.659 28.0099 227.057 28.7344C227.455 29.4588 227.654 30.2874 227.654 31.2202C227.654 32.1813 227.431 33.0384 226.986 33.7912C226.546 34.5393 225.932 35.1288 225.146 35.5597C224.365 35.9858 223.461 36.1989 222.433 36.1989ZM235.083 21.2557C235.779 21.2604 236.456 21.3835 237.114 21.625C237.777 21.8617 238.373 22.25 238.904 22.7898C239.434 23.3248 239.855 24.0421 240.168 24.9418C240.48 25.8414 240.637 26.9541 240.637 28.2798C240.641 29.5298 240.509 30.6473 240.239 31.6321C239.974 32.6122 239.593 33.4408 239.095 34.1179C238.598 34.795 237.999 35.3111 237.298 35.6662C236.598 36.0213 235.809 36.1989 234.933 36.1989C234.015 36.1989 233.2 36.0189 232.49 35.6591C231.785 35.2992 231.214 34.8068 230.779 34.1818C230.343 33.5568 230.075 32.8419 229.976 32.0369H232.568C232.701 32.6146 232.971 33.0739 233.378 33.4148C233.79 33.7509 234.308 33.919 234.933 33.919C235.942 33.919 236.718 33.4811 237.263 32.6051C237.807 31.7292 238.08 30.5123 238.08 28.9545H237.98C237.748 29.3712 237.448 29.7311 237.078 30.0341C236.709 30.3324 236.29 30.562 235.821 30.723C235.357 30.884 234.865 30.9645 234.344 30.9645C233.492 30.9645 232.725 30.7609 232.043 30.3537C231.366 29.9465 230.828 29.3878 230.431 28.6776C230.038 27.9673 229.839 27.1553 229.834 26.2415C229.834 25.2945 230.052 24.4446 230.487 23.6918C230.928 22.9342 231.541 22.3376 232.327 21.902C233.113 21.4616 234.031 21.2462 235.083 21.2557ZM235.09 23.3864C234.578 23.3864 234.117 23.5118 233.705 23.7628C233.298 24.009 232.976 24.3452 232.739 24.7713C232.507 25.1927 232.391 25.6638 232.391 26.1847C232.396 26.7008 232.512 27.1695 232.739 27.5909C232.971 28.0123 233.286 28.3461 233.683 28.5923C234.086 28.8385 234.545 28.9616 235.061 28.9616C235.445 28.9616 235.802 28.8883 236.134 28.7415C236.465 28.5947 236.754 28.3911 237 28.1307C237.251 27.8655 237.445 27.5649 237.583 27.2287C237.725 26.8925 237.793 26.5374 237.789 26.1634C237.789 25.6662 237.67 25.2069 237.433 24.7855C237.201 24.3641 236.882 24.0256 236.475 23.7699C236.072 23.5142 235.61 23.3864 235.09 23.3864ZM249.642 27.669V29.7855H243.094V27.669H249.642ZM258.234 21.4545V36H255.599V24.0185H255.514L252.112 26.1918V23.777L255.727 21.4545H258.234ZM262.46 36L268.646 23.7557V23.6562H261.466V21.4545H271.373V23.706L265.194 36H262.46ZM278.73 36.277C277.56 36.277 276.556 35.9811 275.718 35.3892C274.885 34.7926 274.243 33.9332 273.794 32.8111C273.348 31.6842 273.126 30.3277 273.126 28.7415C273.131 27.1553 273.356 25.8059 273.801 24.6932C274.25 23.5758 274.892 22.7235 275.725 22.1364C276.563 21.5492 277.565 21.2557 278.73 21.2557C279.894 21.2557 280.896 21.5492 281.734 22.1364C282.572 22.7235 283.213 23.5758 283.659 24.6932C284.108 25.8106 284.333 27.16 284.333 28.7415C284.333 30.3324 284.108 31.6913 283.659 32.8182C283.213 33.9403 282.572 34.7973 281.734 35.3892C280.901 35.9811 279.899 36.277 278.73 36.277ZM278.73 34.054C279.639 34.054 280.356 33.6065 280.882 32.7116C281.412 31.812 281.677 30.4886 281.677 28.7415C281.677 27.5862 281.556 26.6155 281.315 25.8295C281.073 25.0436 280.732 24.4517 280.292 24.054C279.852 23.6515 279.331 23.4503 278.73 23.4503C277.825 23.4503 277.11 23.9001 276.585 24.7997C276.059 25.6946 275.794 27.0085 275.789 28.7415C275.785 29.9015 275.901 30.8769 276.137 31.6676C276.379 32.4583 276.72 33.0549 277.16 33.4574C277.6 33.8551 278.124 34.054 278.73 34.054ZM292.609 21.4545V36H289.974V24.0185H289.889L286.487 26.1918V23.777L290.102 21.4545H292.609Z" fill="url(#paint1_linear_52_102)"/>
<rect x="361" width="160" height="60" rx="30" fill="#6092FF"/>
<path d="M383.946 37V22.4545H389.515C390.566 22.4545 391.439 22.6203 392.135 22.9517C392.836 23.2784 393.359 23.7259 393.705 24.294C394.055 24.8622 394.23 25.5062 394.23 26.2259C394.23 26.8177 394.117 27.3243 393.89 27.7457C393.662 28.1624 393.357 28.5009 392.973 28.7614C392.59 29.0218 392.161 29.2088 391.688 29.3224V29.4645C392.204 29.4929 392.699 29.6515 393.172 29.9403C393.65 30.2244 394.041 30.6269 394.344 31.1477C394.647 31.6686 394.799 32.2983 394.799 33.0369C394.799 33.7898 394.616 34.4669 394.252 35.0682C393.887 35.6648 393.338 36.1359 392.604 36.4815C391.87 36.8272 390.947 37 389.834 37H383.946ZM386.581 34.7983H389.415C390.372 34.7983 391.06 34.616 391.482 34.2514C391.908 33.8821 392.121 33.4086 392.121 32.831C392.121 32.4001 392.015 32.0118 391.801 31.6662C391.588 31.3158 391.285 31.0412 390.892 30.8423C390.499 30.6387 390.031 30.5369 389.486 30.5369H386.581V34.7983ZM386.581 28.6406H389.188C389.642 28.6406 390.052 28.5578 390.417 28.392C390.781 28.2216 391.068 27.9825 391.276 27.6747C391.489 27.3622 391.596 26.9929 391.596 26.5668C391.596 26.0033 391.397 25.5393 390.999 25.1747C390.606 24.8101 390.021 24.6278 389.245 24.6278H386.581V28.6406ZM401.736 37.2131C400.67 37.2131 399.747 36.9787 398.966 36.5099C398.185 36.0412 397.579 35.3854 397.148 34.5426C396.722 33.6998 396.509 32.715 396.509 31.5881C396.509 30.4612 396.722 29.474 397.148 28.6264C397.579 27.7789 398.185 27.1207 398.966 26.652C399.747 26.1832 400.67 25.9489 401.736 25.9489C402.801 25.9489 403.724 26.1832 404.506 26.652C405.287 27.1207 405.891 27.7789 406.317 28.6264C406.748 29.474 406.963 30.4612 406.963 31.5881C406.963 32.715 406.748 33.6998 406.317 34.5426C405.891 35.3854 405.287 36.0412 404.506 36.5099C403.724 36.9787 402.801 37.2131 401.736 37.2131ZM401.75 35.1534C402.328 35.1534 402.811 34.9948 403.199 34.6776C403.587 34.3556 403.876 33.9247 404.065 33.3849C404.259 32.8452 404.357 32.2438 404.357 31.581C404.357 30.9134 404.259 30.3097 404.065 29.7699C403.876 29.2254 403.587 28.7921 403.199 28.4702C402.811 28.1482 402.328 27.9872 401.75 27.9872C401.158 27.9872 400.666 28.1482 400.273 28.4702C399.884 28.7921 399.593 29.2254 399.399 29.7699C399.21 30.3097 399.115 30.9134 399.115 31.581C399.115 32.2438 399.21 32.8452 399.399 33.3849C399.593 33.9247 399.884 34.3556 400.273 34.6776C400.666 34.9948 401.158 35.1534 401.75 35.1534ZM413.904 37.2131C412.838 37.2131 411.915 36.9787 411.134 36.5099C410.353 36.0412 409.747 35.3854 409.316 34.5426C408.89 33.6998 408.676 32.715 408.676 31.5881C408.676 30.4612 408.89 29.474 409.316 28.6264C409.747 27.7789 410.353 27.1207 411.134 26.652C411.915 26.1832 412.838 25.9489 413.904 25.9489C414.969 25.9489 415.892 26.1832 416.674 26.652C417.455 27.1207 418.059 27.7789 418.485 28.6264C418.916 29.474 419.131 30.4612 419.131 31.5881C419.131 32.715 418.916 33.6998 418.485 34.5426C418.059 35.3854 417.455 36.0412 416.674 36.5099C415.892 36.9787 414.969 37.2131 413.904 37.2131ZM413.918 35.1534C414.496 35.1534 414.979 34.9948 415.367 34.6776C415.755 34.3556 416.044 33.9247 416.233 33.3849C416.427 32.8452 416.525 32.2438 416.525 31.581C416.525 30.9134 416.427 30.3097 416.233 29.7699C416.044 29.2254 415.755 28.7921 415.367 28.4702C414.979 28.1482 414.496 27.9872 413.918 27.9872C413.326 27.9872 412.834 28.1482 412.441 28.4702C412.052 28.7921 411.761 29.2254 411.567 29.7699C411.378 30.3097 411.283 30.9134 411.283 31.581C411.283 32.2438 411.378 32.8452 411.567 33.3849C411.761 33.9247 412.052 34.3556 412.441 34.6776C412.834 34.9948 413.326 35.1534 413.918 35.1534ZM423.657 33.5767L423.65 30.473H424.062L427.982 26.0909H430.987L426.164 31.4602H425.631L423.657 33.5767ZM421.313 37V22.4545H423.884V37H421.313ZM428.16 37L424.609 32.0355L426.342 30.2244L431.235 37H428.16ZM450.772 29.7273C450.772 31.2945 450.478 32.6368 449.891 33.7543C449.309 34.867 448.513 35.7192 447.505 36.3111C446.501 36.9029 445.362 37.1989 444.088 37.1989C442.815 37.1989 441.674 36.9029 440.665 36.3111C439.661 35.7145 438.866 34.8598 438.279 33.7472C437.696 32.6297 437.405 31.2898 437.405 29.7273C437.405 28.16 437.696 26.8201 438.279 25.7074C438.866 24.59 439.661 23.7353 440.665 23.1435C441.674 22.5516 442.815 22.2557 444.088 22.2557C445.362 22.2557 446.501 22.5516 447.505 23.1435C448.513 23.7353 449.309 24.59 449.891 25.7074C450.478 26.8201 450.772 28.16 450.772 29.7273ZM448.123 29.7273C448.123 28.6241 447.95 27.6937 447.604 26.9361C447.263 26.1738 446.79 25.5985 446.184 25.2102C445.578 24.8172 444.879 24.6207 444.088 24.6207C443.298 24.6207 442.599 24.8172 441.993 25.2102C441.387 25.5985 440.911 26.1738 440.566 26.9361C440.225 27.6937 440.054 28.6241 440.054 29.7273C440.054 30.8305 440.225 31.7633 440.566 32.5256C440.911 33.2831 441.387 33.8584 441.993 34.2514C442.599 34.6397 443.298 34.8338 444.088 34.8338C444.879 34.8338 445.578 34.6397 446.184 34.2514C446.79 33.8584 447.263 33.2831 447.604 32.5256C447.95 31.7633 448.123 30.8305 448.123 29.7273ZM455.72 30.608V37H453.149V26.0909H455.607V27.9446H455.734C455.985 27.3338 456.385 26.8485 456.935 26.4886C457.489 26.1288 458.173 25.9489 458.987 25.9489C459.74 25.9489 460.396 26.1098 460.955 26.4318C461.518 26.7538 461.954 27.2202 462.261 27.831C462.574 28.4418 462.728 29.1828 462.723 30.054V37H460.152V30.4517C460.152 29.7225 459.963 29.152 459.584 28.7401C459.21 28.3281 458.691 28.1222 458.028 28.1222C457.579 28.1222 457.179 28.2216 456.828 28.4205C456.482 28.6146 456.21 28.8963 456.011 29.2656C455.817 29.6349 455.72 30.0824 455.72 30.608ZM467.908 22.4545V37H465.337V22.4545H467.908ZM470.551 37V26.0909H473.123V37H470.551ZM471.844 24.5426C471.437 24.5426 471.087 24.4077 470.793 24.1378C470.499 23.8632 470.353 23.5341 470.353 23.1506C470.353 22.7623 470.499 22.4332 470.793 22.1634C471.087 21.8887 471.437 21.7514 471.844 21.7514C472.256 21.7514 472.606 21.8887 472.895 22.1634C473.189 22.4332 473.336 22.7623 473.336 23.1506C473.336 23.5341 473.189 23.8632 472.895 24.1378C472.606 24.4077 472.256 24.5426 471.844 24.5426ZM478.337 30.608V37H475.766V26.0909H478.224V27.9446H478.352C478.603 27.3338 479.003 26.8485 479.552 26.4886C480.106 26.1288 480.79 25.9489 481.604 25.9489C482.357 25.9489 483.013 26.1098 483.572 26.4318C484.135 26.7538 484.571 27.2202 484.879 27.831C485.191 28.4418 485.345 29.1828 485.34 30.054V37H482.769V30.4517C482.769 29.7225 482.58 29.152 482.201 28.7401C481.827 28.3281 481.308 28.1222 480.646 28.1222C480.196 28.1222 479.796 28.2216 479.445 28.4205C479.1 28.6146 478.827 28.8963 478.629 29.2656C478.434 29.6349 478.337 30.0824 478.337 30.608ZM492.783 37.2131C491.69 37.2131 490.745 36.9858 489.95 36.5312C489.159 36.072 488.55 35.4233 488.124 34.5852C487.698 33.7424 487.485 32.7505 487.485 31.6094C487.485 30.4872 487.698 29.5024 488.124 28.6548C488.555 27.8026 489.156 27.1397 489.928 26.6662C490.7 26.188 491.607 25.9489 492.648 25.9489C493.321 25.9489 493.955 26.0578 494.552 26.2756C495.153 26.4886 495.683 26.8201 496.143 27.2699C496.607 27.7197 496.971 28.2926 497.237 28.9886C497.502 29.6799 497.634 30.5038 497.634 31.4602V32.2486H488.692V30.5156H495.17C495.165 30.0232 495.058 29.5852 494.85 29.2017C494.642 28.8134 494.351 28.508 493.977 28.2855C493.607 28.063 493.176 27.9517 492.684 27.9517C492.158 27.9517 491.697 28.0795 491.299 28.3352C490.901 28.5862 490.591 28.9176 490.369 29.3295C490.151 29.7367 490.04 30.1842 490.035 30.6719V32.1847C490.035 32.8191 490.151 33.3636 490.383 33.8182C490.615 34.268 490.939 34.6136 491.356 34.8551C491.772 35.0919 492.26 35.2102 492.819 35.2102C493.193 35.2102 493.531 35.1581 493.835 35.054C494.138 34.9451 494.4 34.7865 494.623 34.5781C494.845 34.3698 495.013 34.1117 495.127 33.804L497.528 34.0739C497.376 34.7083 497.087 35.2623 496.661 35.7358C496.24 36.2045 495.7 36.5691 495.042 36.8295C494.384 37.0852 493.631 37.2131 492.783 37.2131Z" fill="white"/>
<defs>
<linearGradient id="paint0_linear_52_102" x1="114" y1="4.5" x2="133.323" y2="67.6548" gradientUnits="userSpaceOnUse">
<stop stop-color="#6092FF"/>
<stop offset="0.956179" stop-color="#3A5899"/>
</linearGradient>
<linearGradient id="paint1_linear_52_102" x1="34" y1="26" x2="296" y2="26" gradientUnits="userSpaceOnUse">
<stop stop-color="#6092FF"/>
<stop offset="1" stop-color="#3A5899"/>
</linearGradient>
</defs>
</svg>
