<svg width="1440" height="970" viewBox="0 0 1440 970" fill="none" xmlns="http://www.w3.org/2000/svg">
<rect width="1440" height="970" fill="#6092FF"/>
<path d="M852 213V211.04H856.48C858.853 211.04 860.693 210.16 862 208.4C863.333 206.613 864 204.107 864 200.88C864 197.547 863.347 195.013 862.04 193.28C860.733 191.547 858.933 190.68 856.64 190.68H852V188.68H857.24C859.773 188.68 861.96 189.16 863.8 190.12C865.64 191.08 867.053 192.467 868.04 194.28C869.053 196.093 869.56 198.28 869.56 200.84C869.56 203.4 869.013 205.587 867.92 207.4C866.827 209.213 865.307 210.6 863.36 211.56C861.413 212.52 859.147 213 856.56 213H852ZM846.36 213V211.2L851.48 210.68H852V213H846.36ZM849.24 213C849.293 211.16 849.32 209.28 849.32 207.36C849.347 205.413 849.36 203.427 849.36 201.4V200.12C849.36 198.227 849.347 196.32 849.32 194.4C849.32 192.48 849.293 190.573 849.24 188.68H854.76C854.707 190.547 854.667 192.44 854.64 194.36C854.64 196.253 854.64 198.173 854.64 200.12V201.36C854.64 203.387 854.64 205.36 854.64 207.28C854.667 209.2 854.707 211.107 854.76 213H849.24ZM851.48 191.04L846.36 190.48V188.68H852V191.04H851.48ZM881.097 213.48C879.363 213.48 877.817 213.12 876.457 212.4C875.123 211.653 874.083 210.6 873.337 209.24C872.59 207.853 872.217 206.2 872.217 204.28C872.217 202.28 872.643 200.573 873.497 199.16C874.377 197.747 875.51 196.667 876.897 195.92C878.31 195.173 879.79 194.8 881.337 194.8C883.603 194.8 885.39 195.507 886.697 196.92C888.03 198.307 888.697 200.12 888.697 202.36C888.697 203.133 888.617 203.787 888.457 204.32H874.337V202.52H881.817C882.697 202.52 883.283 202.347 883.577 202C883.87 201.627 884.017 201.08 884.017 200.36C884.017 199.187 883.723 198.267 883.137 197.6C882.577 196.933 881.883 196.6 881.057 196.6C880.47 196.6 879.897 196.827 879.337 197.28C878.777 197.733 878.31 198.48 877.937 199.52C877.59 200.533 877.417 201.933 877.417 203.72C877.417 205.987 877.923 207.667 878.937 208.76C879.95 209.853 881.217 210.4 882.737 210.4C883.777 210.4 884.67 210.2 885.417 209.8C886.163 209.4 886.83 208.88 887.417 208.24L888.537 209.28C887.097 212.08 884.617 213.48 881.097 213.48ZM904.401 213C904.428 212.44 904.441 211.707 904.441 210.8C904.468 209.893 904.481 208.947 904.481 207.96C904.508 206.947 904.521 206.053 904.521 205.28V201.68C904.521 200.32 904.334 199.373 903.961 198.84C903.614 198.307 903.014 198.04 902.161 198.04C900.641 198.04 899.028 198.92 897.321 200.68L897.041 198.6H897.721C898.734 197.293 899.788 196.333 900.881 195.72C901.974 195.107 903.134 194.8 904.361 194.8C905.934 194.8 907.174 195.333 908.081 196.4C909.014 197.44 909.481 199.067 909.481 201.28V205.28C909.481 206.053 909.481 206.947 909.481 207.96C909.508 208.947 909.521 209.893 909.521 210.8C909.548 211.707 909.574 212.44 909.601 213H904.401ZM891.121 213V211.44L894.721 210.72H896.881L900.441 211.44V213H891.121ZM893.321 213C893.348 212.44 893.361 211.707 893.361 210.8C893.388 209.867 893.401 208.907 893.401 207.92C893.428 206.907 893.441 206.027 893.441 205.28V203.28C893.441 202.267 893.428 201.48 893.401 200.92C893.401 200.333 893.374 199.667 893.321 198.92L890.841 198.6V197.16L897.361 194.8L898.001 195.16L898.361 199.32V205.28C898.361 206.027 898.361 206.907 898.361 207.92C898.388 208.907 898.401 209.867 898.401 210.8C898.428 211.707 898.454 212.44 898.481 213H893.321ZM902.321 213V211.44L905.841 210.72H908.001L911.601 211.44V213H902.321ZM920.34 213.48C918.793 213.48 917.58 213.12 916.7 212.4C915.847 211.653 915.42 210.44 915.42 208.76C915.42 208.173 915.42 207.627 915.42 207.12C915.447 206.587 915.46 205.96 915.46 205.24V197.68H912.86V195.68L917.26 195.08L915.38 196.48L917.3 190.24H920.58L920.42 196.04V196.8V208.36C920.42 209.24 920.593 209.893 920.94 210.32C921.313 210.72 921.78 210.92 922.34 210.92C923.007 210.92 923.727 210.627 924.5 210.04L925.38 210.96C924.447 212.64 922.767 213.48 920.34 213.48ZM917.98 197.68V195.36H924.66V197.68H917.98ZM931.433 213.48C930.02 213.48 928.86 213.093 927.953 212.32C927.047 211.547 926.593 210.4 926.593 208.88C926.593 208.053 926.78 207.307 927.153 206.64C927.527 205.947 928.193 205.307 929.153 204.72C930.14 204.107 931.54 203.507 933.353 202.92C934.127 202.707 935.06 202.453 936.153 202.16C937.273 201.84 938.273 201.587 939.153 201.4V202.88C938.327 203.093 937.447 203.333 936.513 203.6C935.607 203.867 934.887 204.107 934.353 204.32C933.26 204.773 932.473 205.32 931.993 205.96C931.513 206.6 931.273 207.293 931.273 208.04C931.273 208.973 931.513 209.667 931.993 210.12C932.473 210.547 933.047 210.76 933.713 210.76C934.033 210.76 934.34 210.707 934.633 210.6C934.953 210.493 935.367 210.267 935.873 209.92C936.407 209.573 937.127 209.067 938.033 208.4L938.473 210.44H937.073C936.433 211.107 935.847 211.667 935.313 212.12C934.78 212.573 934.207 212.907 933.593 213.12C933.007 213.36 932.287 213.48 931.433 213.48ZM940.513 213.44C939.34 213.44 938.42 213.133 937.753 212.52C937.087 211.88 936.7 211 936.593 209.88V200.96C936.593 199.253 936.367 198.107 935.913 197.52C935.46 196.907 934.647 196.6 933.473 196.6C933.047 196.6 932.567 196.64 932.033 196.72C931.5 196.8 930.847 196.96 930.073 197.2L932.233 195.84L931.753 198.6C931.7 199.587 931.447 200.32 930.993 200.8C930.54 201.253 929.993 201.48 929.353 201.48C928.1 201.48 927.353 200.907 927.113 199.76C927.3 198.267 928.087 197.067 929.473 196.16C930.86 195.253 932.753 194.8 935.153 194.8C937.367 194.8 938.967 195.32 939.953 196.36C940.94 197.4 941.433 199.133 941.433 201.56V209.68C941.433 210.64 941.767 211.12 942.433 211.12C942.807 211.12 943.22 210.84 943.673 210.28L944.553 211C944.127 211.907 943.58 212.547 942.913 212.92C942.273 213.267 941.473 213.44 940.513 213.44ZM945.49 213V211.44L949.21 210.72H951.37L955.25 211.44V213H945.49ZM947.77 213C947.85 210.44 947.89 207.867 947.89 205.28V189.6L945.37 189.24V187.76L952.41 186.12L953.01 186.48L952.85 191.64V205.28C952.85 207.867 952.89 210.44 952.97 213H947.77ZM982.399 213.64C980.026 213.64 977.879 213.147 975.959 212.16C974.039 211.173 972.519 209.733 971.399 207.84C970.279 205.92 969.719 203.587 969.719 200.84C969.719 198.067 970.306 195.733 971.479 193.84C972.653 191.947 974.213 190.507 976.159 189.52C978.133 188.533 980.279 188.04 982.599 188.04C983.853 188.04 985.066 188.187 986.239 188.48C987.439 188.773 988.613 189.24 989.759 189.88L989.919 195.44H987.279L986.119 189.76L988.559 190.28V192.36C987.626 191.533 986.733 190.947 985.879 190.6C985.026 190.227 984.173 190.04 983.319 190.04C981.906 190.04 980.586 190.427 979.359 191.2C978.159 191.973 977.199 193.16 976.479 194.76C975.759 196.36 975.399 198.4 975.399 200.88C975.399 203.333 975.746 205.36 976.439 206.96C977.133 208.56 978.066 209.747 979.239 210.52C980.413 211.267 981.706 211.64 983.119 211.64C984.053 211.64 985.013 211.467 985.999 211.12C986.986 210.747 987.933 210.2 988.839 209.48V211.4L986.439 211.92L987.599 206.28H990.199L990.039 211.8C988.999 212.387 987.839 212.84 986.559 213.16C985.279 213.48 983.893 213.64 982.399 213.64ZM997.527 213.48C996.114 213.48 994.954 213.093 994.047 212.32C993.141 211.547 992.687 210.4 992.687 208.88C992.687 208.053 992.874 207.307 993.247 206.64C993.621 205.947 994.287 205.307 995.247 204.72C996.234 204.107 997.634 203.507 999.447 202.92C1000.22 202.707 1001.15 202.453 1002.25 202.16C1003.37 201.84 1004.37 201.587 1005.25 201.4V202.88C1004.42 203.093 1003.54 203.333 1002.61 203.6C1001.7 203.867 1000.98 204.107 1000.45 204.32C999.354 204.773 998.567 205.32 998.087 205.96C997.607 206.6 997.367 207.293 997.367 208.04C997.367 208.973 997.607 209.667 998.087 210.12C998.567 210.547 999.141 210.76 999.807 210.76C1000.13 210.76 1000.43 210.707 1000.73 210.6C1001.05 210.493 1001.46 210.267 1001.97 209.92C1002.5 209.573 1003.22 209.067 1004.13 208.4L1004.57 210.44H1003.17C1002.53 211.107 1001.94 211.667 1001.41 212.12C1000.87 212.573 1000.3 212.907 999.687 213.12C999.101 213.36 998.381 213.48 997.527 213.48ZM1006.61 213.44C1005.43 213.44 1004.51 213.133 1003.85 212.52C1003.18 211.88 1002.79 211 1002.69 209.88V200.96C1002.69 199.253 1002.46 198.107 1002.01 197.52C1001.55 196.907 1000.74 196.6 999.567 196.6C999.141 196.6 998.661 196.64 998.127 196.72C997.594 196.8 996.941 196.96 996.167 197.2L998.327 195.84L997.847 198.6C997.794 199.587 997.541 200.32 997.087 200.8C996.634 201.253 996.087 201.48 995.447 201.48C994.194 201.48 993.447 200.907 993.207 199.76C993.394 198.267 994.181 197.067 995.567 196.16C996.954 195.253 998.847 194.8 1001.25 194.8C1003.46 194.8 1005.06 195.32 1006.05 196.36C1007.03 197.4 1007.53 199.133 1007.53 201.56V209.68C1007.53 210.64 1007.86 211.12 1008.53 211.12C1008.9 211.12 1009.31 210.84 1009.77 210.28L1010.65 211C1010.22 211.907 1009.67 212.547 1009.01 212.92C1008.37 213.267 1007.57 213.44 1006.61 213.44ZM1011.82 213V211.44L1015.5 210.72H1018.42L1022.06 211.44V213H1011.82ZM1014.02 213C1014.05 212.44 1014.06 211.707 1014.06 210.8C1014.09 209.867 1014.1 208.907 1014.1 207.92C1014.13 206.907 1014.14 206.027 1014.14 205.28V203.28C1014.14 202.267 1014.13 201.48 1014.1 200.92C1014.1 200.333 1014.08 199.667 1014.02 198.92L1011.54 198.6V197.16L1018.06 194.8L1018.7 195.16L1019.06 199.72V205.28C1019.06 206.027 1019.06 206.907 1019.06 207.92C1019.09 208.907 1019.1 209.867 1019.1 210.8C1019.13 211.707 1019.16 212.44 1019.18 213H1014.02ZM1018.98 202.88L1017.98 200.36H1018.82C1019.3 198.547 1020.05 197.173 1021.06 196.24C1022.1 195.28 1023.12 194.8 1024.1 194.8C1024.82 194.8 1025.46 194.987 1026.02 195.36C1026.58 195.733 1026.96 196.293 1027.14 197.04C1027.12 197.973 1026.88 198.693 1026.42 199.2C1026 199.707 1025.41 199.96 1024.66 199.96C1023.7 199.96 1022.82 199.48 1022.02 198.52L1020.98 197.32L1022.58 197.52C1021.76 198.027 1021.02 198.747 1020.38 199.68C1019.77 200.613 1019.3 201.68 1018.98 202.88ZM1037.35 213.48C1035.61 213.48 1034.07 213.12 1032.71 212.4C1031.37 211.653 1030.33 210.6 1029.59 209.24C1028.84 207.853 1028.47 206.2 1028.47 204.28C1028.47 202.28 1028.89 200.573 1029.75 199.16C1030.63 197.747 1031.76 196.667 1033.15 195.92C1034.56 195.173 1036.04 194.8 1037.59 194.8C1039.85 194.8 1041.64 195.507 1042.95 196.92C1044.28 198.307 1044.95 200.12 1044.95 202.36C1044.95 203.133 1044.87 203.787 1044.71 204.32H1030.59V202.52H1038.07C1038.95 202.52 1039.53 202.347 1039.83 202C1040.12 201.627 1040.27 201.08 1040.27 200.36C1040.27 199.187 1039.97 198.267 1039.39 197.6C1038.83 196.933 1038.13 196.6 1037.31 196.6C1036.72 196.6 1036.15 196.827 1035.59 197.28C1035.03 197.733 1034.56 198.48 1034.19 199.52C1033.84 200.533 1033.67 201.933 1033.67 203.72C1033.67 205.987 1034.17 207.667 1035.19 208.76C1036.2 209.853 1037.47 210.4 1038.99 210.4C1040.03 210.4 1040.92 210.2 1041.67 209.8C1042.41 209.4 1043.08 208.88 1043.67 208.24L1044.79 209.28C1043.35 212.08 1040.87 213.48 1037.35 213.48ZM1066.28 213.48C1064.73 213.48 1063.52 213.12 1062.64 212.4C1061.78 211.653 1061.36 210.44 1061.36 208.76C1061.36 208.173 1061.36 207.627 1061.36 207.12C1061.38 206.587 1061.4 205.96 1061.4 205.24V197.68H1058.8V195.68L1063.2 195.08L1061.32 196.48L1063.24 190.24H1066.52L1066.36 196.04V196.8V208.36C1066.36 209.24 1066.53 209.893 1066.88 210.32C1067.25 210.72 1067.72 210.92 1068.28 210.92C1068.94 210.92 1069.66 210.627 1070.44 210.04L1071.32 210.96C1070.38 212.64 1068.7 213.48 1066.28 213.48ZM1063.92 197.68V195.36H1070.6V197.68H1063.92ZM1072.25 213V211.44L1075.85 210.72H1078.01L1081.53 211.44V213H1072.25ZM1074.41 213C1074.44 212.44 1074.45 211.707 1074.45 210.8C1074.48 209.867 1074.49 208.907 1074.49 207.92C1074.52 206.907 1074.53 206.027 1074.53 205.28V189.6L1072.01 189.24V187.76L1078.97 186.12L1079.53 186.48L1079.41 191.64V199.12L1079.49 199.6V205.28C1079.49 206.027 1079.49 206.907 1079.49 207.92C1079.52 208.907 1079.53 209.867 1079.53 210.8C1079.56 211.707 1079.58 212.44 1079.61 213H1074.41ZM1083.53 213V211.44L1087.05 210.72H1089.17L1092.81 211.44V213H1083.53ZM1085.61 213C1085.64 212.44 1085.65 211.707 1085.65 210.8C1085.68 209.893 1085.69 208.947 1085.69 207.96C1085.72 206.947 1085.73 206.053 1085.73 205.28V201.68C1085.73 200.32 1085.56 199.373 1085.21 198.84C1084.86 198.307 1084.26 198.04 1083.41 198.04C1082.66 198.04 1081.89 198.28 1081.09 198.76C1080.32 199.24 1079.49 199.947 1078.61 200.88L1078.13 198.8H1078.69C1079.78 197.413 1080.88 196.4 1081.97 195.76C1083.09 195.12 1084.26 194.8 1085.49 194.8C1087.12 194.8 1088.38 195.333 1089.29 196.4C1090.22 197.44 1090.69 199.067 1090.69 201.28V205.28C1090.69 206.053 1090.69 206.947 1090.69 207.96C1090.72 208.947 1090.73 209.893 1090.73 210.8C1090.76 211.707 1090.78 212.44 1090.81 213H1085.61ZM1099.91 213.48C1098.5 213.48 1097.34 213.093 1096.43 212.32C1095.52 211.547 1095.07 210.4 1095.07 208.88C1095.07 208.053 1095.26 207.307 1095.63 206.64C1096 205.947 1096.67 205.307 1097.63 204.72C1098.62 204.107 1100.02 203.507 1101.83 202.92C1102.6 202.707 1103.54 202.453 1104.63 202.16C1105.75 201.84 1106.75 201.587 1107.63 201.4V202.88C1106.8 203.093 1105.92 203.333 1104.99 203.6C1104.08 203.867 1103.36 204.107 1102.83 204.32C1101.74 204.773 1100.95 205.32 1100.47 205.96C1099.99 206.6 1099.75 207.293 1099.75 208.04C1099.75 208.973 1099.99 209.667 1100.47 210.12C1100.95 210.547 1101.52 210.76 1102.19 210.76C1102.51 210.76 1102.82 210.707 1103.11 210.6C1103.43 210.493 1103.84 210.267 1104.35 209.92C1104.88 209.573 1105.6 209.067 1106.51 208.4L1106.95 210.44H1105.55C1104.91 211.107 1104.32 211.667 1103.79 212.12C1103.26 212.573 1102.68 212.907 1102.07 213.12C1101.48 213.36 1100.76 213.48 1099.91 213.48ZM1108.99 213.44C1107.82 213.44 1106.9 213.133 1106.23 212.52C1105.56 211.88 1105.18 211 1105.07 209.88V200.96C1105.07 199.253 1104.84 198.107 1104.39 197.52C1103.94 196.907 1103.12 196.6 1101.95 196.6C1101.52 196.6 1101.04 196.64 1100.51 196.72C1099.98 196.8 1099.32 196.96 1098.55 197.2L1100.71 195.84L1100.23 198.6C1100.18 199.587 1099.92 200.32 1099.47 200.8C1099.02 201.253 1098.47 201.48 1097.83 201.48C1096.58 201.48 1095.83 200.907 1095.59 199.76C1095.78 198.267 1096.56 197.067 1097.95 196.16C1099.34 195.253 1101.23 194.8 1103.63 194.8C1105.84 194.8 1107.44 195.32 1108.43 196.36C1109.42 197.4 1109.91 199.133 1109.91 201.56V209.68C1109.91 210.64 1110.24 211.12 1110.91 211.12C1111.28 211.12 1111.7 210.84 1112.15 210.28L1113.03 211C1112.6 211.907 1112.06 212.547 1111.39 212.92C1110.75 213.267 1109.95 213.44 1108.99 213.44ZM1120.89 213.48C1119.34 213.48 1118.13 213.12 1117.25 212.4C1116.39 211.653 1115.97 210.44 1115.97 208.76C1115.97 208.173 1115.97 207.627 1115.97 207.12C1115.99 206.587 1116.01 205.96 1116.01 205.24V197.68H1113.41V195.68L1117.81 195.08L1115.93 196.48L1117.85 190.24H1121.13L1120.97 196.04V196.8V208.36C1120.97 209.24 1121.14 209.893 1121.49 210.32C1121.86 210.72 1122.33 210.92 1122.89 210.92C1123.55 210.92 1124.27 210.627 1125.05 210.04L1125.93 210.96C1124.99 212.64 1123.31 213.48 1120.89 213.48ZM1118.53 197.68V195.36H1125.21V197.68H1118.53ZM1152.09 213.64C1149.71 213.64 1147.57 213.147 1145.65 212.16C1143.73 211.173 1142.21 209.733 1141.09 207.84C1139.97 205.92 1139.41 203.587 1139.41 200.84C1139.41 198.067 1139.99 195.733 1141.17 193.84C1142.34 191.947 1143.9 190.507 1145.85 189.52C1147.82 188.533 1149.97 188.04 1152.29 188.04C1153.54 188.04 1154.75 188.187 1155.93 188.48C1157.13 188.773 1158.3 189.24 1159.45 189.88L1159.61 195.44H1156.97L1155.81 189.76L1158.25 190.28V192.36C1157.31 191.533 1156.42 190.947 1155.57 190.6C1154.71 190.227 1153.86 190.04 1153.01 190.04C1151.59 190.04 1150.27 190.427 1149.05 191.2C1147.85 191.973 1146.89 193.16 1146.17 194.76C1145.45 196.36 1145.09 198.4 1145.09 200.88C1145.09 203.333 1145.43 205.36 1146.13 206.96C1146.82 208.56 1147.75 209.747 1148.93 210.52C1150.1 211.267 1151.39 211.64 1152.81 211.64C1153.74 211.64 1154.7 211.467 1155.69 211.12C1156.67 210.747 1157.62 210.2 1158.53 209.48V211.4L1156.13 211.92L1157.29 206.28H1159.89L1159.73 211.8C1158.69 212.387 1157.53 212.84 1156.25 213.16C1154.97 213.48 1153.58 213.64 1152.09 213.64ZM1167.21 213.48C1165.8 213.48 1164.64 213.093 1163.73 212.32C1162.83 211.547 1162.37 210.4 1162.37 208.88C1162.37 208.053 1162.56 207.307 1162.93 206.64C1163.31 205.947 1163.97 205.307 1164.93 204.72C1165.92 204.107 1167.32 203.507 1169.13 202.92C1169.91 202.707 1170.84 202.453 1171.93 202.16C1173.05 201.84 1174.05 201.587 1174.93 201.4V202.88C1174.11 203.093 1173.23 203.333 1172.29 203.6C1171.39 203.867 1170.67 204.107 1170.13 204.32C1169.04 204.773 1168.25 205.32 1167.77 205.96C1167.29 206.6 1167.05 207.293 1167.05 208.04C1167.05 208.973 1167.29 209.667 1167.77 210.12C1168.25 210.547 1168.83 210.76 1169.49 210.76C1169.81 210.76 1170.12 210.707 1170.41 210.6C1170.73 210.493 1171.15 210.267 1171.65 209.92C1172.19 209.573 1172.91 209.067 1173.81 208.4L1174.25 210.44H1172.85C1172.21 211.107 1171.63 211.667 1171.09 212.12C1170.56 212.573 1169.99 212.907 1169.37 213.12C1168.79 213.36 1168.07 213.48 1167.21 213.48ZM1176.29 213.44C1175.12 213.44 1174.2 213.133 1173.53 212.52C1172.87 211.88 1172.48 211 1172.37 209.88V200.96C1172.37 199.253 1172.15 198.107 1171.69 197.52C1171.24 196.907 1170.43 196.6 1169.25 196.6C1168.83 196.6 1168.35 196.64 1167.81 196.72C1167.28 196.8 1166.63 196.96 1165.85 197.2L1168.01 195.84L1167.53 198.6C1167.48 199.587 1167.23 200.32 1166.77 200.8C1166.32 201.253 1165.77 201.48 1165.13 201.48C1163.88 201.48 1163.13 200.907 1162.89 199.76C1163.08 198.267 1163.87 197.067 1165.25 196.16C1166.64 195.253 1168.53 194.8 1170.93 194.8C1173.15 194.8 1174.75 195.32 1175.73 196.36C1176.72 197.4 1177.21 199.133 1177.21 201.56V209.68C1177.21 210.64 1177.55 211.12 1178.21 211.12C1178.59 211.12 1179 210.84 1179.45 210.28L1180.33 211C1179.91 211.907 1179.36 212.547 1178.69 212.92C1178.05 213.267 1177.25 213.44 1176.29 213.44ZM1181.51 213V211.44L1185.19 210.72H1188.11L1191.75 211.44V213H1181.51ZM1183.71 213C1183.74 212.44 1183.75 211.707 1183.75 210.8C1183.78 209.867 1183.79 208.907 1183.79 207.92C1183.82 206.907 1183.83 206.027 1183.83 205.28V203.28C1183.83 202.267 1183.82 201.48 1183.79 200.92C1183.79 200.333 1183.76 199.667 1183.71 198.92L1181.23 198.6V197.16L1187.75 194.8L1188.39 195.16L1188.75 199.72V205.28C1188.75 206.027 1188.75 206.907 1188.75 207.92C1188.78 208.907 1188.79 209.867 1188.79 210.8C1188.82 211.707 1188.84 212.44 1188.87 213H1183.71ZM1188.67 202.88L1187.67 200.36H1188.51C1188.99 198.547 1189.74 197.173 1190.75 196.24C1191.79 195.28 1192.8 194.8 1193.79 194.8C1194.51 194.8 1195.15 194.987 1195.71 195.36C1196.27 195.733 1196.64 196.293 1196.83 197.04C1196.8 197.973 1196.56 198.693 1196.11 199.2C1195.68 199.707 1195.1 199.96 1194.35 199.96C1193.39 199.96 1192.51 199.48 1191.71 198.52L1190.67 197.32L1192.27 197.52C1191.44 198.027 1190.71 198.747 1190.07 199.68C1189.46 200.613 1188.99 201.68 1188.67 202.88ZM1207.03 213.48C1205.3 213.48 1203.75 213.12 1202.39 212.4C1201.06 211.653 1200.02 210.6 1199.27 209.24C1198.53 207.853 1198.15 206.2 1198.15 204.28C1198.15 202.28 1198.58 200.573 1199.43 199.16C1200.31 197.747 1201.45 196.667 1202.83 195.92C1204.25 195.173 1205.73 194.8 1207.27 194.8C1209.54 194.8 1211.33 195.507 1212.63 196.92C1213.97 198.307 1214.63 200.12 1214.63 202.36C1214.63 203.133 1214.55 203.787 1214.39 204.32H1200.27V202.52H1207.75C1208.63 202.52 1209.22 202.347 1209.51 202C1209.81 201.627 1209.95 201.08 1209.95 200.36C1209.95 199.187 1209.66 198.267 1209.07 197.6C1208.51 196.933 1207.82 196.6 1206.99 196.6C1206.41 196.6 1205.83 196.827 1205.27 197.28C1204.71 197.733 1204.25 198.48 1203.87 199.52C1203.53 200.533 1203.35 201.933 1203.35 203.72C1203.35 205.987 1203.86 207.667 1204.87 208.76C1205.89 209.853 1207.15 210.4 1208.67 210.4C1209.71 210.4 1210.61 210.2 1211.35 209.8C1212.1 209.4 1212.77 208.88 1213.35 208.24L1214.47 209.28C1213.03 212.08 1210.55 213.48 1207.03 213.48ZM1223.34 213.48C1221.13 213.48 1219.1 212.973 1217.26 211.96V207.6H1219.9L1220.78 212.32L1218.78 211.6V210.16C1219.55 210.667 1220.29 211.04 1220.98 211.28C1221.7 211.52 1222.5 211.64 1223.38 211.64C1225.75 211.64 1226.94 210.853 1226.94 209.28C1226.94 208.613 1226.7 208.067 1226.22 207.64C1225.77 207.213 1224.94 206.813 1223.74 206.44L1221.86 205.84C1220.47 205.387 1219.38 204.733 1218.58 203.88C1217.78 203 1217.38 201.893 1217.38 200.56C1217.38 198.96 1218.01 197.6 1219.26 196.48C1220.51 195.36 1222.31 194.8 1224.66 194.8C1225.73 194.8 1226.7 194.933 1227.58 195.2C1228.46 195.467 1229.35 195.84 1230.26 196.32L1230.06 200.2H1227.42L1226.46 195.96L1228.3 196.76V197.96C1227.66 197.507 1227.06 197.187 1226.5 197C1225.97 196.813 1225.31 196.72 1224.54 196.72C1223.63 196.72 1222.91 196.92 1222.38 197.32C1221.85 197.693 1221.58 198.227 1221.58 198.92C1221.58 199.507 1221.79 200.013 1222.22 200.44C1222.67 200.84 1223.51 201.24 1224.74 201.64L1226.34 202.12C1228.13 202.707 1229.39 203.467 1230.14 204.4C1230.91 205.333 1231.3 206.427 1231.3 207.68C1231.3 209.44 1230.61 210.853 1229.22 211.92C1227.83 212.96 1225.87 213.48 1223.34 213.48ZM846.16 253V251.44L849.96 250.72H852.76L856.52 251.44V253H846.16ZM848.44 253C848.52 250.44 848.56 247.867 848.56 245.28V237.68H845.92V235.68L850.24 235.12L848.56 236L848.6 235.56C848.787 233.747 849.08 232.28 849.48 231.16C849.907 230.04 850.56 229.04 851.44 228.16C852.293 227.307 853.24 226.693 854.28 226.32C855.347 225.947 856.373 225.76 857.36 225.76C858.32 225.76 859.187 225.947 859.96 226.32C860.76 226.667 861.253 227.28 861.44 228.16C861.44 228.8 861.213 229.333 860.76 229.76C860.333 230.187 859.733 230.4 858.96 230.4C857.84 230.4 856.813 229.68 855.88 228.24L854.68 226.96L858.12 226.16L858.68 227.24C858.493 227.107 858.28 227 858.04 226.92C857.8 226.84 857.573 226.8 857.36 226.8C856.613 226.8 855.893 227.12 855.2 227.76C854.453 228.533 853.947 229.627 853.68 231.04C853.413 232.453 853.347 234.467 853.48 237.08V245.28C853.48 247.867 853.52 250.44 853.6 253H848.44ZM851 237.68V235.36H857.72V237.68H851ZM868.483 253.48C866.75 253.48 865.19 253.107 863.803 252.36C862.443 251.613 861.376 250.547 860.603 249.16C859.83 247.747 859.443 246.08 859.443 244.16C859.443 242.213 859.856 240.547 860.683 239.16C861.51 237.773 862.603 236.707 863.963 235.96C865.35 235.187 866.856 234.8 868.483 234.8C870.11 234.8 871.603 235.173 872.963 235.92C874.35 236.667 875.456 237.733 876.283 239.12C877.11 240.507 877.523 242.187 877.523 244.16C877.523 246.107 877.136 247.773 876.363 249.16C875.59 250.547 874.523 251.613 873.163 252.36C871.803 253.107 870.243 253.48 868.483 253.48ZM868.483 251.68C869.683 251.68 870.603 251.08 871.243 249.88C871.883 248.653 872.203 246.773 872.203 244.24C872.203 241.653 871.883 239.747 871.243 238.52C870.603 237.267 869.683 236.64 868.483 236.64C867.256 236.64 866.323 237.267 865.683 238.52C865.07 239.747 864.763 241.653 864.763 244.24C864.763 246.773 865.07 248.653 865.683 249.88C866.323 251.08 867.256 251.68 868.483 251.68ZM879.949 253V251.44L883.629 250.72H886.549L890.189 251.44V253H879.949ZM882.149 253C882.176 252.44 882.189 251.707 882.189 250.8C882.216 249.867 882.229 248.907 882.229 247.92C882.256 246.907 882.269 246.027 882.269 245.28V243.28C882.269 242.267 882.256 241.48 882.229 240.92C882.229 240.333 882.202 239.667 882.149 238.92L879.669 238.6V237.16L886.189 234.8L886.829 235.16L887.189 239.72V245.28C887.189 246.027 887.189 246.907 887.189 247.92C887.216 248.907 887.229 249.867 887.229 250.8C887.256 251.707 887.282 252.44 887.309 253H882.149ZM887.109 242.88L886.109 240.36H886.949C887.429 238.547 888.176 237.173 889.189 236.24C890.229 235.28 891.242 234.8 892.229 234.8C892.949 234.8 893.589 234.987 894.149 235.36C894.709 235.733 895.082 236.293 895.269 237.04C895.242 237.973 895.002 238.693 894.549 239.2C894.122 239.707 893.536 239.96 892.789 239.96C891.829 239.96 890.949 239.48 890.149 238.52L889.109 237.32L890.709 237.52C889.882 238.027 889.149 238.747 888.509 239.68C887.896 240.613 887.429 241.68 887.109 242.88ZM913.098 253V251.2L918.458 250.68H919.818L925.218 251.2V253H913.098ZM916.418 253C916.471 251.907 916.498 250.827 916.498 249.76C916.525 248.693 916.538 247.52 916.538 246.24C916.538 244.96 916.538 243.467 916.538 241.76H921.818C921.818 243.467 921.818 244.96 921.818 246.24C921.818 247.493 921.818 248.653 921.818 249.72C921.845 250.787 921.871 251.88 921.898 253H916.418ZM917.218 245L909.258 228.68H915.298L921.378 242L920.138 242.12L926.418 228.68H928.738L920.738 245H917.218ZM907.938 230.48V228.68H919.298V230.48L914.578 231.04H913.258L907.938 230.48ZM922.578 230.48V228.68H930.458V230.48L927.018 231.04H926.258L922.578 230.48ZM940.905 253.48C939.172 253.48 937.612 253.107 936.225 252.36C934.865 251.613 933.798 250.547 933.025 249.16C932.252 247.747 931.865 246.08 931.865 244.16C931.865 242.213 932.278 240.547 933.105 239.16C933.932 237.773 935.025 236.707 936.385 235.96C937.772 235.187 939.278 234.8 940.905 234.8C942.532 234.8 944.025 235.173 945.385 235.92C946.772 236.667 947.878 237.733 948.705 239.12C949.532 240.507 949.945 242.187 949.945 244.16C949.945 246.107 949.558 247.773 948.785 249.16C948.012 250.547 946.945 251.613 945.585 252.36C944.225 253.107 942.665 253.48 940.905 253.48ZM940.905 251.68C942.105 251.68 943.025 251.08 943.665 249.88C944.305 248.653 944.625 246.773 944.625 244.24C944.625 241.653 944.305 239.747 943.665 238.52C943.025 237.267 942.105 236.64 940.905 236.64C939.678 236.64 938.745 237.267 938.105 238.52C937.492 239.747 937.185 241.653 937.185 244.24C937.185 246.773 937.492 248.653 938.105 249.88C938.745 251.08 939.678 251.68 940.905 251.68ZM959.171 253.48C957.624 253.48 956.384 253 955.451 252.04C954.544 251.053 954.104 249.347 954.131 246.92L954.251 237.08L955.331 238.12L951.971 237.36V235.92L958.771 235.04L959.291 235.44L959.091 240.6V246.84C959.091 248.147 959.291 249.053 959.691 249.56C960.091 250.04 960.664 250.28 961.411 250.28C962.211 250.28 963.038 250 963.891 249.44C964.744 248.88 965.504 248.187 966.171 247.36L966.891 248.88H966.251C964.384 251.947 962.024 253.48 959.171 253.48ZM965.611 253.36L965.251 249.04L965.371 237.84L963.171 237.36V236L969.811 235.04L970.331 235.44L970.211 240.6V251L972.331 251.44V253L965.611 253.36Z" fill="white"/>
<path d="M249.22 663.12L238.42 626.52H246.7L254.02 654.66L253.06 654.6L261.88 626.52H266.26L274.72 655.02H273.76L281.8 626.52H285.1L274.48 663.12H270.1L261.22 635.4L262.18 635.34L253.6 663.12H249.22ZM235.54 629.22V626.52H251.98V629.22L244.72 630.06H243.16L235.54 629.22ZM256.3 629.22V626.52H272.32V629.22L265.48 630.06H263.14L256.3 629.22ZM276.52 629.22V626.52H288.52V629.22L283.3 630.06H281.92L276.52 629.22ZM290.408 663V660.66L295.808 659.58H299.048L304.328 660.66V663H290.408ZM293.648 663C293.688 662.16 293.708 661.06 293.708 659.7C293.748 658.3 293.768 656.86 293.768 655.38C293.808 653.86 293.828 652.54 293.828 651.42V627.9L290.048 627.36V625.14L300.488 622.68L301.328 623.22L301.148 630.96V642.18L301.268 642.9V651.42C301.268 652.54 301.268 653.86 301.268 655.38C301.308 656.86 301.328 658.3 301.328 659.7C301.368 661.06 301.408 662.16 301.448 663H293.648ZM307.328 663V660.66L312.608 659.58H315.788L321.248 660.66V663H307.328ZM310.448 663C310.488 662.16 310.508 661.06 310.508 659.7C310.548 658.34 310.568 656.92 310.568 655.44C310.608 653.92 310.628 652.58 310.628 651.42V646.02C310.628 643.98 310.368 642.56 309.848 641.76C309.328 640.96 308.428 640.56 307.148 640.56C306.028 640.56 304.868 640.92 303.668 641.64C302.508 642.36 301.268 643.42 299.948 644.82L299.228 641.7H300.068C301.708 639.62 303.348 638.1 304.988 637.14C306.668 636.18 308.428 635.7 310.268 635.7C312.708 635.7 314.608 636.5 315.968 638.1C317.368 639.66 318.068 642.1 318.068 645.42V651.42C318.068 652.58 318.068 653.92 318.068 655.44C318.108 656.92 318.128 658.34 318.128 659.7C318.168 661.06 318.208 662.16 318.248 663H310.448ZM331.896 663.72C329.776 663.72 328.036 663.14 326.676 661.98C325.316 660.82 324.636 659.1 324.636 656.82C324.636 655.58 324.916 654.46 325.476 653.46C326.036 652.42 327.036 651.46 328.476 650.58C329.956 649.66 332.056 648.76 334.776 647.88C335.936 647.56 337.336 647.18 338.976 646.74C340.656 646.26 342.156 645.88 343.476 645.6V647.82C342.236 648.14 340.916 648.5 339.516 648.9C338.156 649.3 337.076 649.66 336.276 649.98C334.636 650.66 333.456 651.48 332.736 652.44C332.016 653.4 331.656 654.44 331.656 655.56C331.656 656.96 332.016 658 332.736 658.68C333.456 659.32 334.316 659.64 335.316 659.64C335.796 659.64 336.256 659.56 336.696 659.4C337.176 659.24 337.796 658.9 338.556 658.38C339.356 657.86 340.436 657.1 341.796 656.1L342.456 659.16H340.356C339.396 660.16 338.516 661 337.716 661.68C336.916 662.36 336.056 662.86 335.136 663.18C334.256 663.54 333.176 663.72 331.896 663.72ZM345.516 663.66C343.756 663.66 342.376 663.2 341.376 662.28C340.376 661.32 339.796 660 339.636 658.32V644.94C339.636 642.38 339.296 640.66 338.616 639.78C337.936 638.86 336.716 638.4 334.956 638.4C334.316 638.4 333.596 638.46 332.796 638.58C331.996 638.7 331.016 638.94 329.856 639.3L333.096 637.26L332.376 641.4C332.296 642.88 331.916 643.98 331.236 644.7C330.556 645.38 329.736 645.72 328.776 645.72C326.896 645.72 325.776 644.86 325.416 643.14C325.696 640.9 326.876 639.1 328.956 637.74C331.036 636.38 333.876 635.7 337.476 635.7C340.796 635.7 343.196 636.48 344.676 638.04C346.156 639.6 346.896 642.2 346.896 645.84V658.02C346.896 659.46 347.396 660.18 348.396 660.18C348.956 660.18 349.576 659.76 350.256 658.92L351.576 660C350.936 661.36 350.116 662.32 349.116 662.88C348.156 663.4 346.956 663.66 345.516 663.66ZM363.362 663.72C361.042 663.72 359.222 663.18 357.902 662.1C356.622 660.98 355.982 659.16 355.982 656.64C355.982 655.76 355.982 654.94 355.982 654.18C356.022 653.38 356.042 652.44 356.042 651.36V640.02H352.142V637.02L358.742 636.12L355.922 638.22L358.802 628.86H363.722L363.482 637.56V638.7V656.04C363.482 657.36 363.742 658.34 364.262 658.98C364.822 659.58 365.522 659.88 366.362 659.88C367.362 659.88 368.442 659.44 369.602 658.56L370.922 659.94C369.522 662.46 367.002 663.72 363.362 663.72ZM359.822 640.02V636.54H369.842V640.02H359.822ZM400.862 663.72C398.542 663.72 396.722 663.18 395.402 662.1C394.122 660.98 393.482 659.16 393.482 656.64C393.482 655.76 393.482 654.94 393.482 654.18C393.522 653.38 393.542 652.44 393.542 651.36V640.02H389.642V637.02L396.242 636.12L393.422 638.22L396.302 628.86H401.222L400.982 637.56V638.7V656.04C400.982 657.36 401.242 658.34 401.762 658.98C402.322 659.58 403.022 659.88 403.862 659.88C404.862 659.88 405.942 659.44 407.102 658.56L408.422 659.94C407.022 662.46 404.502 663.72 400.862 663.72ZM397.322 640.02V636.54H407.342V640.02H397.322ZM423.682 663.72C421.082 663.72 418.742 663.16 416.662 662.04C414.622 660.92 413.022 659.32 411.862 657.24C410.702 655.12 410.122 652.62 410.122 649.74C410.122 646.82 410.742 644.32 411.982 642.24C413.222 640.16 414.862 638.56 416.902 637.44C418.982 636.28 421.242 635.7 423.682 635.7C426.122 635.7 428.362 636.26 430.402 637.38C432.482 638.5 434.142 640.1 435.382 642.18C436.622 644.26 437.242 646.78 437.242 649.74C437.242 652.66 436.662 655.16 435.502 657.24C434.342 659.32 432.742 660.92 430.702 662.04C428.662 663.16 426.322 663.72 423.682 663.72ZM423.682 661.02C425.482 661.02 426.862 660.12 427.822 658.32C428.782 656.48 429.262 653.66 429.262 649.86C429.262 645.98 428.782 643.12 427.822 641.28C426.862 639.4 425.482 638.46 423.682 638.46C421.842 638.46 420.442 639.4 419.482 641.28C418.562 643.12 418.102 645.98 418.102 649.86C418.102 653.66 418.562 656.48 419.482 658.32C420.442 660.12 421.842 661.02 423.682 661.02ZM459.52 663V660.3L467.2 659.52H467.98V663H459.52ZM463.84 663C463.92 660.24 463.96 657.44 463.96 654.6C464 651.72 464.02 648.82 464.02 645.9V643.68C464.02 640.84 464 637.98 463.96 635.1C463.96 632.22 463.92 629.36 463.84 626.52H472.12C472.04 629.32 471.98 632.16 471.94 635.04C471.94 637.88 471.94 640.76 471.94 643.68V645.54C471.94 648.58 471.94 651.54 471.94 654.42C471.98 657.3 472.04 660.16 472.12 663H463.84ZM467.98 663V660.06H485.32L483.4 661.68L484.78 653.4H488.92L488.5 663H467.98ZM467.98 645.78V642.72H480.22V645.78H467.98ZM479.38 650.4L478.54 644.58V643.62L479.38 638.1H482.32V650.4H479.38ZM459.52 629.22V626.52H467.98V630.06H467.2L459.52 629.22ZM483.7 636.12L482.32 627.84L484.24 629.52H467.98V626.52H487.42L487.84 636.12H483.7ZM491.009 663V660.66L495.749 659.88H497.369L501.629 660.66V663H491.009ZM492.449 663L504.209 647.46L506.309 648.72L496.409 663H492.449ZM504.869 663V660.66L511.769 659.58H513.749L519.869 660.66V663H504.869ZM506.729 651.3L504.809 649.92L514.109 636.54H518.069L506.729 651.3ZM509.789 663L502.529 651.84L492.689 636.54H501.089L507.989 647.1L518.369 663H509.789ZM491.189 638.88V636.54H505.649V638.88L500.369 639.72H497.009L491.189 638.88ZM509.069 638.88V636.54H518.969V638.88L514.649 639.66H513.089L509.069 638.88ZM522.09 675.72V673.32L527.67 672.24H531.69L537.09 673.32V675.72H522.09ZM525.57 675.72C525.69 671.16 525.75 667.12 525.75 663.6V648.42C525.75 646.9 525.73 645.72 525.69 644.88C525.69 644 525.65 643 525.57 641.88L521.85 641.4V639.24L531.57 635.7L532.53 636.24L532.83 640.68L533.13 641.28V658.56L532.95 659.1V663.54C532.95 667.1 533.01 671.16 533.13 675.72H525.57ZM540.09 663.72C538.25 663.72 536.61 663.32 535.17 662.52C533.73 661.72 532.43 660.34 531.27 658.38H529.95L530.43 654.72C531.67 656.32 532.83 657.54 533.91 658.38C535.03 659.22 536.27 659.64 537.63 659.64C539.39 659.64 540.87 658.86 542.07 657.3C543.27 655.7 543.87 653.24 543.87 649.92C543.87 646.56 543.31 644.06 542.19 642.42C541.07 640.78 539.63 639.96 537.87 639.96C536.55 639.96 535.25 640.46 533.97 641.46C532.69 642.46 531.41 643.6 530.13 644.88L529.65 641.22H531.33C534.13 637.54 537.37 635.7 541.05 635.7C543.05 635.7 544.85 636.24 546.45 637.32C548.05 638.4 549.33 639.98 550.29 642.06C551.25 644.1 551.73 646.62 551.73 649.62C551.73 652.54 551.19 655.06 550.11 657.18C549.03 659.26 547.61 660.88 545.85 662.04C544.09 663.16 542.17 663.72 540.09 663.72ZM568.754 663.72C566.154 663.72 563.834 663.18 561.794 662.1C559.794 660.98 558.234 659.4 557.114 657.36C555.994 655.28 555.434 652.8 555.434 649.92C555.434 646.92 556.074 644.36 557.354 642.24C558.674 640.12 560.374 638.5 562.454 637.38C564.574 636.26 566.794 635.7 569.114 635.7C572.514 635.7 575.194 636.76 577.154 638.88C579.154 640.96 580.154 643.68 580.154 647.04C580.154 648.2 580.034 649.18 579.794 649.98H558.614V647.28H569.834C571.154 647.28 572.034 647.02 572.474 646.5C572.914 645.94 573.134 645.12 573.134 644.04C573.134 642.28 572.694 640.9 571.814 639.9C570.974 638.9 569.934 638.4 568.694 638.4C567.814 638.4 566.954 638.74 566.114 639.42C565.274 640.1 564.574 641.22 564.014 642.78C563.494 644.3 563.234 646.4 563.234 649.08C563.234 652.48 563.994 655 565.514 656.64C567.034 658.28 568.934 659.1 571.214 659.1C572.774 659.1 574.114 658.8 575.234 658.2C576.354 657.6 577.354 656.82 578.234 655.86L579.914 657.42C577.754 661.62 574.034 663.72 568.754 663.72ZM597.171 663.72C594.651 663.72 592.391 663.2 590.391 662.16C588.391 661.08 586.791 659.52 585.591 657.48C584.431 655.4 583.851 652.86 583.851 649.86C583.851 646.86 584.491 644.32 585.771 642.24C587.091 640.12 588.811 638.5 590.931 637.38C593.091 636.26 595.451 635.7 598.011 635.7C599.851 635.7 601.491 636.06 602.931 636.78C604.411 637.46 605.611 638.4 606.531 639.6C607.451 640.76 607.991 642.06 608.151 643.5C607.631 645.22 606.511 646.08 604.791 646.08C603.791 646.08 602.951 645.74 602.271 645.06C601.591 644.38 601.171 643.26 601.011 641.7L600.171 637.5L603.771 639.66C602.051 638.82 600.351 638.4 598.671 638.4C597.471 638.4 596.331 638.78 595.251 639.54C594.171 640.26 593.291 641.4 592.611 642.96C591.931 644.52 591.591 646.54 591.591 649.02C591.591 652.26 592.331 654.76 593.811 656.52C595.291 658.24 597.251 659.1 599.691 659.1C601.091 659.1 602.351 658.8 603.471 658.2C604.631 657.56 605.591 656.72 606.351 655.68L608.091 657.06C607.131 659.3 605.711 660.98 603.831 662.1C601.991 663.18 599.771 663.72 597.171 663.72ZM621.584 663.72C619.264 663.72 617.444 663.18 616.124 662.1C614.844 660.98 614.204 659.16 614.204 656.64C614.204 655.76 614.204 654.94 614.204 654.18C614.244 653.38 614.264 652.44 614.264 651.36V640.02H610.364V637.02L616.964 636.12L614.144 638.22L617.024 628.86H621.944L621.704 637.56V638.7V656.04C621.704 657.36 621.964 658.34 622.484 658.98C623.044 659.58 623.744 659.88 624.584 659.88C625.584 659.88 626.664 659.44 627.824 658.56L629.144 659.94C627.744 662.46 625.224 663.72 621.584 663.72ZM618.044 640.02V636.54H628.064V640.02H618.044ZM649.064 663V660.66L654.764 659.58H658.964L664.604 660.66V663H649.064ZM652.484 663C652.604 659.16 652.664 655.3 652.664 651.42V640.02H648.704V637.02L655.184 636.18L652.664 637.5L652.724 636.84C653.004 634.12 653.444 631.92 654.044 630.24C654.684 628.56 655.664 627.06 656.984 625.74C658.264 624.46 659.684 623.54 661.244 622.98C662.844 622.42 664.384 622.14 665.864 622.14C667.304 622.14 668.604 622.42 669.764 622.98C670.964 623.5 671.704 624.42 671.984 625.74C671.984 626.7 671.644 627.5 670.964 628.14C670.324 628.78 669.424 629.1 668.264 629.1C666.584 629.1 665.044 628.02 663.644 625.86L661.844 623.94L667.004 622.74L667.844 624.36C667.564 624.16 667.244 624 666.884 623.88C666.524 623.76 666.184 623.7 665.864 623.7C664.744 623.7 663.664 624.18 662.624 625.14C661.504 626.3 660.744 627.94 660.344 630.06C659.944 632.18 659.844 635.2 660.044 639.12V651.42C660.044 655.3 660.104 659.16 660.224 663H652.484ZM656.324 640.02V636.54H666.404V640.02H656.324ZM668.869 663V660.66L674.389 659.58H678.769L684.229 660.66V663H668.869ZM672.169 663C672.209 662.16 672.229 661.06 672.229 659.7C672.269 658.3 672.289 656.86 672.289 655.38C672.329 653.86 672.349 652.54 672.349 651.42V648.42C672.349 646.9 672.329 645.72 672.289 644.88C672.289 644 672.249 643 672.169 641.88L668.449 641.4V639.24L678.229 635.7L679.189 636.24L679.729 643.08V651.42C679.729 652.54 679.729 653.86 679.729 655.38C679.769 656.86 679.789 658.3 679.789 659.7C679.829 661.06 679.869 662.16 679.909 663H672.169ZM679.609 647.82L678.109 644.04H679.369C680.089 641.32 681.209 639.26 682.729 637.86C684.289 636.42 685.809 635.7 687.289 635.7C688.369 635.7 689.329 635.98 690.169 636.54C691.009 637.1 691.569 637.94 691.849 639.06C691.809 640.46 691.449 641.54 690.769 642.3C690.129 643.06 689.249 643.44 688.129 643.44C686.689 643.44 685.369 642.72 684.169 641.28L682.609 639.48L685.009 639.78C683.769 640.54 682.669 641.62 681.709 643.02C680.789 644.42 680.089 646.02 679.609 647.82ZM707.393 663.72C704.793 663.72 702.453 663.16 700.373 662.04C698.333 660.92 696.733 659.32 695.573 657.24C694.413 655.12 693.833 652.62 693.833 649.74C693.833 646.82 694.453 644.32 695.693 642.24C696.933 640.16 698.573 638.56 700.613 637.44C702.693 636.28 704.953 635.7 707.393 635.7C709.833 635.7 712.073 636.26 714.113 637.38C716.193 638.5 717.853 640.1 719.093 642.18C720.333 644.26 720.953 646.78 720.953 649.74C720.953 652.66 720.373 655.16 719.213 657.24C718.053 659.32 716.453 660.92 714.413 662.04C712.373 663.16 710.033 663.72 707.393 663.72ZM707.393 661.02C709.193 661.02 710.573 660.12 711.533 658.32C712.493 656.48 712.973 653.66 712.973 649.86C712.973 645.98 712.493 643.12 711.533 641.28C710.573 639.4 709.193 638.46 707.393 638.46C705.553 638.46 704.153 639.4 703.193 641.28C702.273 643.12 701.813 645.98 701.813 649.86C701.813 653.66 702.273 656.48 703.193 658.32C704.153 660.12 705.553 661.02 707.393 661.02ZM760.772 663C760.812 662.16 760.832 661.06 760.832 659.7C760.872 658.34 760.892 656.92 760.892 655.44C760.932 653.92 760.952 652.58 760.952 651.42V646.26C760.952 644.02 760.672 642.52 760.112 641.76C759.552 640.96 758.632 640.56 757.352 640.56C756.152 640.56 754.972 640.9 753.812 641.58C752.652 642.26 751.492 643.24 750.332 644.52L749.732 641.82H750.452C752.092 639.58 753.732 638 755.372 637.08C757.012 636.16 758.752 635.7 760.592 635.7C763.192 635.7 765.132 636.5 766.412 638.1C767.692 639.66 768.332 642.1 768.332 645.42V651.42C768.332 652.58 768.332 653.92 768.332 655.44C768.372 656.92 768.392 658.34 768.392 659.7C768.432 661.06 768.452 662.16 768.452 663H760.772ZM724.592 663V660.66L729.992 659.58H733.232L738.572 660.66V663H724.592ZM727.892 663C727.932 662.16 727.952 661.06 727.952 659.7C727.992 658.3 728.012 656.86 728.012 655.38C728.052 653.86 728.072 652.54 728.072 651.42V648.42C728.072 646.9 728.052 645.72 728.012 644.88C728.012 644 727.972 643 727.892 641.88L724.172 641.4V639.24L733.952 635.7L734.912 636.24L735.452 642.48V651.42C735.452 652.54 735.452 653.86 735.452 655.38C735.492 656.86 735.512 658.3 735.512 659.7C735.552 661.06 735.592 662.16 735.632 663H727.892ZM741.212 663V660.66L746.492 659.58H749.732L755.012 660.66V663H741.212ZM744.452 663C744.492 662.16 744.512 661.06 744.512 659.7C744.552 658.34 744.572 656.92 744.572 655.44C744.612 653.92 744.632 652.58 744.632 651.42V646.38C744.632 644.26 744.352 642.76 743.792 641.88C743.232 641 742.272 640.56 740.912 640.56C739.672 640.56 738.452 640.94 737.252 641.7C736.092 642.46 734.992 643.4 733.952 644.52L733.472 641.76H734.192C735.632 639.84 737.192 638.36 738.872 637.32C740.552 636.24 742.332 635.7 744.212 635.7C749.332 635.7 751.892 638.94 751.892 645.42V651.42C751.892 652.58 751.892 653.92 751.892 655.44C751.932 656.92 751.952 658.34 751.952 659.7C751.992 661.06 752.032 662.16 752.072 663H744.452ZM757.772 663V660.66L762.872 659.58H766.232L771.512 660.66V663H757.772ZM799.393 663V660.3L807.433 659.52H809.473L817.573 660.3V663H799.393ZM804.373 663C804.453 661.36 804.493 659.74 804.493 658.14C804.533 656.54 804.553 654.78 804.553 652.86C804.553 650.94 804.553 648.7 804.553 646.14H812.473C812.473 648.7 812.473 650.94 812.473 652.86C812.473 654.74 812.473 656.48 812.473 658.08C812.513 659.68 812.553 661.32 812.593 663H804.373ZM805.573 651L793.633 626.52H802.693L811.813 646.5L809.953 646.68L819.373 626.52H822.853L810.853 651H805.573ZM791.653 629.22V626.52H808.693V629.22L801.613 630.06H799.633L791.653 629.22ZM813.613 629.22V626.52H825.433V629.22L820.273 630.06H819.133L813.613 629.22ZM841.104 663.72C838.504 663.72 836.164 663.16 834.084 662.04C832.044 660.92 830.444 659.32 829.284 657.24C828.124 655.12 827.544 652.62 827.544 649.74C827.544 646.82 828.164 644.32 829.404 642.24C830.644 640.16 832.284 638.56 834.324 637.44C836.404 636.28 838.664 635.7 841.104 635.7C843.544 635.7 845.784 636.26 847.824 637.38C849.904 638.5 851.564 640.1 852.804 642.18C854.044 644.26 854.664 646.78 854.664 649.74C854.664 652.66 854.084 655.16 852.924 657.24C851.764 659.32 850.164 660.92 848.124 662.04C846.084 663.16 843.744 663.72 841.104 663.72ZM841.104 661.02C842.904 661.02 844.284 660.12 845.244 658.32C846.204 656.48 846.684 653.66 846.684 649.86C846.684 645.98 846.204 643.12 845.244 641.28C844.284 639.4 842.904 638.46 841.104 638.46C839.264 638.46 837.864 639.4 836.904 641.28C835.984 643.12 835.524 645.98 835.524 649.86C835.524 653.66 835.984 656.48 836.904 658.32C837.864 660.12 839.264 661.02 841.104 661.02ZM868.503 663.72C866.183 663.72 864.323 663 862.923 661.56C861.563 660.08 860.903 657.52 860.943 653.88L861.123 639.12L862.743 640.68L857.703 639.54V637.38L867.903 636.06L868.683 636.66L868.383 644.4V653.76C868.383 655.72 868.683 657.08 869.283 657.84C869.883 658.56 870.743 658.92 871.863 658.92C873.063 658.92 874.303 658.5 875.583 657.66C876.863 656.82 878.003 655.78 879.003 654.54L880.083 656.82H879.123C876.323 661.42 872.783 663.72 868.503 663.72ZM878.163 663.54L877.623 657.06L877.803 640.26L874.503 639.54V637.5L884.463 636.06L885.243 636.66L885.063 644.4V660L888.242 660.66V663L878.163 663.54ZM891.349 663V660.66L896.869 659.58H901.249L906.709 660.66V663H891.349ZM894.649 663C894.689 662.16 894.709 661.06 894.709 659.7C894.749 658.3 894.769 656.86 894.769 655.38C894.809 653.86 894.829 652.54 894.829 651.42V648.42C894.829 646.9 894.809 645.72 894.769 644.88C894.769 644 894.729 643 894.649 641.88L890.929 641.4V639.24L900.709 635.7L901.669 636.24L902.209 643.08V651.42C902.209 652.54 902.209 653.86 902.209 655.38C902.249 656.86 902.269 658.3 902.269 659.7C902.309 661.06 902.349 662.16 902.389 663H894.649ZM902.089 647.82L900.589 644.04H901.849C902.569 641.32 903.689 639.26 905.209 637.86C906.769 636.42 908.289 635.7 909.769 635.7C910.849 635.7 911.809 635.98 912.649 636.54C913.489 637.1 914.049 637.94 914.329 639.06C914.289 640.46 913.929 641.54 913.249 642.3C912.609 643.06 911.729 643.44 910.609 643.44C909.169 643.44 907.849 642.72 906.649 641.28L905.089 639.48L907.489 639.78C906.249 640.54 905.149 641.62 904.189 643.02C903.269 644.42 902.569 646.02 902.089 647.82ZM934.833 663V660.3L942.513 659.52H944.613L952.353 660.3V663H934.833ZM939.153 663C939.233 660.24 939.273 657.44 939.273 654.6C939.313 651.72 939.333 648.82 939.333 645.9V643.68C939.333 640.84 939.313 637.98 939.273 635.1C939.273 632.22 939.233 629.36 939.153 626.52H947.433C947.353 629.32 947.293 632.16 947.253 635.04C947.253 637.88 947.253 640.76 947.253 643.68V645.54C947.253 648.58 947.253 651.54 947.253 654.42C947.293 657.3 947.353 660.16 947.433 663H939.153ZM943.293 645.78V642.72H955.833V645.78H943.293ZM954.933 650.94L954.153 645.12V643.62L954.933 638.1H957.873V650.94H954.933ZM934.833 629.22V626.52H943.293V630.06H942.513L934.833 629.22ZM959.253 636.12L957.813 627.84L959.733 629.52H943.293V626.52H962.973L963.333 636.12H959.253ZM966.407 663V660.66L971.807 659.58H975.047L980.507 660.66V663H966.407ZM969.707 663C969.747 662.16 969.767 661.06 969.767 659.7C969.807 658.3 969.827 656.86 969.827 655.38C969.867 653.86 969.887 652.54 969.887 651.42V648.84C969.887 647.32 969.867 646.06 969.827 645.06C969.827 644.06 969.787 643 969.707 641.88L965.987 641.4V639.24L976.487 635.7L977.387 636.24L977.207 644.16V651.42C977.207 652.54 977.207 653.86 977.207 655.38C977.247 656.86 977.267 658.3 977.267 659.7C977.307 661.06 977.347 662.16 977.387 663H969.707ZM973.547 630.96C972.307 630.96 971.267 630.58 970.427 629.82C969.587 629.02 969.167 628.04 969.167 626.88C969.167 625.6 969.587 624.6 970.427 623.88C971.267 623.12 972.307 622.74 973.547 622.74C974.707 622.74 975.707 623.12 976.547 623.88C977.387 624.6 977.807 625.6 977.807 626.88C977.807 628.04 977.387 629.02 976.547 629.82C975.707 630.58 974.707 630.96 973.547 630.96ZM983.576 663V660.66L989.096 659.58H993.476L998.936 660.66V663H983.576ZM986.876 663C986.916 662.16 986.936 661.06 986.936 659.7C986.976 658.3 986.996 656.86 986.996 655.38C987.036 653.86 987.056 652.54 987.056 651.42V648.42C987.056 646.9 987.036 645.72 986.996 644.88C986.996 644 986.956 643 986.876 641.88L983.156 641.4V639.24L992.936 635.7L993.896 636.24L994.436 643.08V651.42C994.436 652.54 994.436 653.86 994.436 655.38C994.476 656.86 994.496 658.3 994.496 659.7C994.536 661.06 994.576 662.16 994.616 663H986.876ZM994.316 647.82L992.816 644.04H994.076C994.796 641.32 995.916 639.26 997.436 637.86C998.996 636.42 1000.52 635.7 1002 635.7C1003.08 635.7 1004.04 635.98 1004.88 636.54C1005.72 637.1 1006.28 637.94 1006.56 639.06C1006.52 640.46 1006.16 641.54 1005.48 642.3C1004.84 643.06 1003.96 643.44 1002.84 643.44C1001.4 643.44 1000.08 642.72 998.876 641.28L997.316 639.48L999.716 639.78C998.476 640.54 997.376 641.62 996.416 643.02C995.496 644.42 994.796 646.02 994.316 647.82ZM1017.84 663.72C1014.52 663.72 1011.48 662.96 1008.72 661.44V654.9H1012.68L1014 661.98L1011 660.9V658.74C1012.16 659.5 1013.26 660.06 1014.3 660.42C1015.38 660.78 1016.58 660.96 1017.9 660.96C1021.46 660.96 1023.24 659.78 1023.24 657.42C1023.24 656.42 1022.88 655.6 1022.16 654.96C1021.48 654.32 1020.24 653.72 1018.44 653.16L1015.62 652.26C1013.54 651.58 1011.9 650.6 1010.7 649.32C1009.5 648 1008.9 646.34 1008.9 644.34C1008.9 641.94 1009.84 639.9 1011.72 638.22C1013.6 636.54 1016.3 635.7 1019.82 635.7C1021.42 635.7 1022.88 635.9 1024.2 636.3C1025.52 636.7 1026.86 637.26 1028.22 637.98L1027.92 643.8H1023.96L1022.52 637.44L1025.28 638.64V640.44C1024.32 639.76 1023.42 639.28 1022.58 639C1021.78 638.72 1020.8 638.58 1019.64 638.58C1018.28 638.58 1017.2 638.88 1016.4 639.48C1015.6 640.04 1015.2 640.84 1015.2 641.88C1015.2 642.76 1015.52 643.52 1016.16 644.16C1016.84 644.76 1018.1 645.36 1019.94 645.96L1022.34 646.68C1025.02 647.56 1026.92 648.7 1028.04 650.1C1029.2 651.5 1029.78 653.14 1029.78 655.02C1029.78 657.66 1028.74 659.78 1026.66 661.38C1024.58 662.94 1021.64 663.72 1017.84 663.72ZM1043.17 663.72C1040.85 663.72 1039.03 663.18 1037.71 662.1C1036.43 660.98 1035.79 659.16 1035.79 656.64C1035.79 655.76 1035.79 654.94 1035.79 654.18C1035.83 653.38 1035.85 652.44 1035.85 651.36V640.02H1031.95V637.02L1038.55 636.12L1035.73 638.22L1038.61 628.86H1043.53L1043.29 637.56V638.7V656.04C1043.29 657.36 1043.55 658.34 1044.07 658.98C1044.63 659.58 1045.33 659.88 1046.17 659.88C1047.17 659.88 1048.25 659.44 1049.41 658.56L1050.73 659.94C1049.33 662.46 1046.81 663.72 1043.17 663.72ZM1039.63 640.02V636.54H1049.65V640.02H1039.63ZM1085.17 663.12L1071.85 626.52H1080.37L1090.15 655.38H1089.01L1098.79 626.52H1102.15L1089.55 663.12H1085.17ZM1069.45 629.22V626.52H1086.31V629.22L1078.87 630.06H1077.19L1069.45 629.22ZM1093.09 629.22V626.52H1105.39V629.22L1099.81 630.06H1098.91L1093.09 629.22ZM1107.32 663V660.66L1112.72 659.58H1115.96L1121.42 660.66V663H1107.32ZM1110.62 663C1110.66 662.16 1110.68 661.06 1110.68 659.7C1110.72 658.3 1110.74 656.86 1110.74 655.38C1110.78 653.86 1110.8 652.54 1110.8 651.42V648.84C1110.8 647.32 1110.78 646.06 1110.74 645.06C1110.74 644.06 1110.7 643 1110.62 641.88L1106.9 641.4V639.24L1117.4 635.7L1118.3 636.24L1118.12 644.16V651.42C1118.12 652.54 1118.12 653.86 1118.12 655.38C1118.16 656.86 1118.18 658.3 1118.18 659.7C1118.22 661.06 1118.26 662.16 1118.3 663H1110.62ZM1114.46 630.96C1113.22 630.96 1112.18 630.58 1111.34 629.82C1110.5 629.02 1110.08 628.04 1110.08 626.88C1110.08 625.6 1110.5 624.6 1111.34 623.88C1112.18 623.12 1113.22 622.74 1114.46 622.74C1115.62 622.74 1116.62 623.12 1117.46 623.88C1118.3 624.6 1118.72 625.6 1118.72 626.88C1118.72 628.04 1118.3 629.02 1117.46 629.82C1116.62 630.58 1115.62 630.96 1114.46 630.96ZM1133.91 663.72C1130.59 663.72 1127.55 662.96 1124.79 661.44V654.9H1128.75L1130.07 661.98L1127.07 660.9V658.74C1128.23 659.5 1129.33 660.06 1130.37 660.42C1131.45 660.78 1132.65 660.96 1133.97 660.96C1137.53 660.96 1139.31 659.78 1139.31 657.42C1139.31 656.42 1138.95 655.6 1138.23 654.96C1137.55 654.32 1136.31 653.72 1134.51 653.16L1131.69 652.26C1129.61 651.58 1127.97 650.6 1126.77 649.32C1125.57 648 1124.97 646.34 1124.97 644.34C1124.97 641.94 1125.91 639.9 1127.79 638.22C1129.67 636.54 1132.37 635.7 1135.89 635.7C1137.49 635.7 1138.95 635.9 1140.27 636.3C1141.59 636.7 1142.93 637.26 1144.29 637.98L1143.99 643.8H1140.03L1138.59 637.44L1141.35 638.64V640.44C1140.39 639.76 1139.49 639.28 1138.65 639C1137.85 638.72 1136.87 638.58 1135.71 638.58C1134.35 638.58 1133.27 638.88 1132.47 639.48C1131.67 640.04 1131.27 640.84 1131.27 641.88C1131.27 642.76 1131.59 643.52 1132.23 644.16C1132.91 644.76 1134.17 645.36 1136.01 645.96L1138.41 646.68C1141.09 647.56 1142.99 648.7 1144.11 650.1C1145.27 651.5 1145.85 653.14 1145.85 655.02C1145.85 657.66 1144.81 659.78 1142.73 661.38C1140.65 662.94 1137.71 663.72 1133.91 663.72ZM1149.16 663V660.66L1154.56 659.58H1157.8L1163.26 660.66V663H1149.16ZM1152.46 663C1152.5 662.16 1152.52 661.06 1152.52 659.7C1152.56 658.3 1152.58 656.86 1152.58 655.38C1152.62 653.86 1152.64 652.54 1152.64 651.42V648.84C1152.64 647.32 1152.62 646.06 1152.58 645.06C1152.58 644.06 1152.54 643 1152.46 641.88L1148.74 641.4V639.24L1159.24 635.7L1160.14 636.24L1159.96 644.16V651.42C1159.96 652.54 1159.96 653.86 1159.96 655.38C1160 656.86 1160.02 658.3 1160.02 659.7C1160.06 661.06 1160.1 662.16 1160.14 663H1152.46ZM1156.3 630.96C1155.06 630.96 1154.02 630.58 1153.18 629.82C1152.34 629.02 1151.92 628.04 1151.92 626.88C1151.92 625.6 1152.34 624.6 1153.18 623.88C1154.02 623.12 1155.06 622.74 1156.3 622.74C1157.46 622.74 1158.46 623.12 1159.3 623.88C1160.14 624.6 1160.56 625.6 1160.56 626.88C1160.56 628.04 1160.14 629.02 1159.3 629.82C1158.46 630.58 1157.46 630.96 1156.3 630.96ZM1176.35 663.72C1174.03 663.72 1172.21 663.18 1170.89 662.1C1169.61 660.98 1168.97 659.16 1168.97 656.64C1168.97 655.76 1168.97 654.94 1168.97 654.18C1169.01 653.38 1169.03 652.44 1169.03 651.36V640.02H1165.13V637.02L1171.73 636.12L1168.91 638.22L1171.79 628.86H1176.71L1176.47 637.56V638.7V656.04C1176.47 657.36 1176.73 658.34 1177.25 658.98C1177.81 659.58 1178.51 659.88 1179.35 659.88C1180.35 659.88 1181.43 659.44 1182.59 658.56L1183.91 659.94C1182.51 662.46 1179.99 663.72 1176.35 663.72ZM1172.81 640.02V636.54H1182.83V640.02H1172.81Z" fill="white"/>
<path d="M69.0053 57.0555C72.7536 51.0523 70.4451 42.8393 63.8329 38.7107C57.2208 34.5821 48.828 36.1133 45.0797 42.1165L49.4298 44.8327L52.9629 44.0157L53.7799 47.5489L62.4801 52.9812M70.1733 55.1849C73.3925 54.9318 76.607 55.7296 79.3342 57.4587C85.9464 61.5873 88.2549 69.8003 84.5066 75.8035L77.9814 71.7292L77.1644 68.1961L73.6313 69.013L67.1061 64.9388" stroke="white" stroke-width="2" stroke-linecap="round" stroke-linejoin="round"/>
<path d="M51.2183 51.1189C43.622 52.8754 38.7869 59.8928 40.3664 66.8042L55.3605 63.3185L57.8337 62.7467L60.3423 62.1666L67.8326 60.4346C66.253 53.5233 58.8146 49.3624 51.2183 51.1189Z" stroke="white" stroke-width="2" stroke-linecap="round" stroke-linejoin="round"/>
<path d="M54.4695 70.6525C52.1618 76.7692 47.9883 80.2094 43.4668 83.4323L52.1671 88.8646C63.9867 79.618 67.3766 62.0849 69.0053 57.0557" stroke="white" stroke-width="2" stroke-linecap="round" stroke-linejoin="round"/>
<path d="M54.6047 358.464C53.2705 351.513 45.9927 347.062 38.3372 348.531C30.6817 350.001 25.5697 356.831 26.9039 363.781L31.9404 362.814L33.9753 359.813L36.9769 361.848L47.0499 359.914M54.189 356.298C56.377 353.923 59.2764 352.322 62.4517 351.735C70.1072 350.266 77.385 354.717 78.7192 361.668L71.1645 363.118L68.1628 361.083L66.128 364.085L58.5732 365.535" stroke="white" stroke-width="2" stroke-linecap="round" stroke-linejoin="round"/>
<path d="M37.5266 366.207C33.1517 372.661 34.3789 381.094 40.237 385.087L48.8599 372.334L50.2843 370.233L51.729 368.102L56.0429 361.739C50.1848 357.745 41.9015 359.753 37.5266 366.207Z" stroke="white" stroke-width="2" stroke-linecap="round" stroke-linejoin="round"/>
<path d="M53.1938 378.318C55.6615 384.371 54.9411 389.732 53.8178 395.17L63.8908 393.236C66.2685 378.419 56.8307 363.259 54.6047 358.464" stroke="white" stroke-width="2" stroke-linecap="round" stroke-linejoin="round"/>
<path d="M214.999 331.245C219.724 325.383 218.334 316.414 211.877 311.21C205.421 306.007 196.362 306.553 191.637 312.415L195.885 315.838L199.72 315.426L200.132 319.262L208.628 326.109M216.471 329.418C219.904 329.562 223.197 330.814 225.856 332.988C232.313 338.192 233.703 347.161 228.978 353.023L222.607 347.887L222.195 344.052L218.359 344.464L211.988 339.328" stroke="white" stroke-width="2" stroke-linecap="round" stroke-linejoin="round"/>
<path d="M196.971 322.705C188.725 323.591 182.723 330.386 183.509 337.886L199.79 336.118L202.475 335.83L205.198 335.537L213.33 334.664C212.543 327.163 205.218 321.82 196.971 322.705Z" stroke="white" stroke-width="2" stroke-linecap="round" stroke-linejoin="round"/>
<path d="M197.913 343.75C194.695 349.916 189.849 353.016 184.662 355.843L193.158 362.691C206.82 354.433 212.638 336.348 214.999 331.245" stroke="white" stroke-width="2" stroke-linecap="round" stroke-linejoin="round"/>
<path d="M117.999 263.245C122.724 257.383 121.334 248.414 114.877 243.21C108.421 238.007 99.3614 238.553 94.6368 244.415L98.8845 247.838L102.72 247.426L103.132 251.262L111.628 258.109M119.471 261.418C122.904 261.562 126.197 262.814 128.856 264.988C135.313 270.192 136.703 279.161 131.978 285.023L125.607 279.887L125.195 276.052L121.359 276.464L114.988 271.328" stroke="white" stroke-width="2" stroke-linecap="round" stroke-linejoin="round"/>
<path d="M99.9713 254.705C91.7246 255.591 85.7228 262.386 86.5091 269.886L102.789 268.118L105.474 267.83L108.198 267.537L116.329 266.664C115.543 259.163 108.218 253.82 99.9713 254.705Z" stroke="white" stroke-width="2" stroke-linecap="round" stroke-linejoin="round"/>
<path d="M100.913 275.75C97.6952 281.916 92.8486 285.016 87.6621 287.843L96.1575 294.691C109.82 286.433 115.638 268.348 117.999 263.245" stroke="white" stroke-width="2" stroke-linecap="round" stroke-linejoin="round"/>
<path d="M422.581 44.7901C420.466 37.5644 412.31 33.5849 404.351 35.9142C396.392 38.2435 391.668 45.9928 393.783 53.2185L399.019 51.6861L400.871 48.3018L404.255 50.1536L414.727 47.0888M421.922 42.5386C424 39.8028 426.908 37.8145 430.212 36.8723C438.171 34.543 446.327 38.5225 448.442 45.7482L440.588 48.0469L437.204 46.1951L435.352 49.5793L427.498 51.8779" stroke="white" stroke-width="2" stroke-linecap="round" stroke-linejoin="round"/>
<path d="M405.277 54.7146C401.296 61.9907 403.447 70.7975 410.054 74.4347L417.898 60.0593L419.194 57.6904L420.509 55.2876L424.435 48.113C417.828 44.4758 409.259 47.4385 405.277 54.7146Z" stroke="white" stroke-width="2" stroke-linecap="round" stroke-linejoin="round"/>
<path d="M423.092 65.9578C426.316 72.1197 426.095 77.8691 425.454 83.7411L435.926 80.6762C436.948 64.7447 425.423 49.6431 422.581 44.7902" stroke="white" stroke-width="2" stroke-linecap="round" stroke-linejoin="round"/>
<path d="M241.005 46.0555C244.754 40.0523 242.445 31.8393 235.833 27.7107C229.221 23.5821 220.828 25.1133 217.08 31.1165L221.43 33.8327L224.963 33.0157L225.78 36.5489L234.48 41.9812M242.173 44.1849C245.392 43.9318 248.607 44.7296 251.334 46.4587C257.946 50.5873 260.255 58.8003 256.507 64.8035L249.981 60.7292L249.164 57.1961L245.631 58.013L239.106 53.9388" stroke="white" stroke-width="2" stroke-linecap="round" stroke-linejoin="round"/>
<path d="M223.218 40.1189C215.622 41.8754 210.787 48.8928 212.367 55.8042L227.361 52.3185L229.834 51.7467L232.342 51.1666L239.833 49.4346C238.253 42.5233 230.815 38.3624 223.218 40.1189Z" stroke="white" stroke-width="2" stroke-linecap="round" stroke-linejoin="round"/>
<path d="M226.47 59.6525C224.162 65.7692 219.988 69.2094 215.467 72.4323L224.167 77.8646C235.987 68.618 239.377 51.0849 241.005 46.0557" stroke="white" stroke-width="2" stroke-linecap="round" stroke-linejoin="round"/>
<path d="M1384.01 53.0555C1387.75 47.0523 1385.45 38.8393 1378.83 34.7107C1372.22 30.5821 1363.83 32.1133 1360.08 38.1165L1364.43 40.8327L1367.96 40.0157L1368.78 43.5489L1377.48 48.9812M1385.17 51.1849C1388.39 50.9318 1391.61 51.7296 1394.33 53.4587C1400.95 57.5873 1403.25 65.8003 1399.51 71.8035L1392.98 67.7292L1392.16 64.1961L1388.63 65.013L1382.11 60.9388" stroke="white" stroke-width="2" stroke-linecap="round" stroke-linejoin="round"/>
<path d="M1366.22 47.1189C1358.62 48.8754 1353.79 55.8928 1355.37 62.8042L1370.36 59.3185L1372.83 58.7467L1375.34 58.1666L1382.83 56.4346C1381.25 49.5233 1373.81 45.3624 1366.22 47.1189Z" stroke="white" stroke-width="2" stroke-linecap="round" stroke-linejoin="round"/>
<path d="M1369.47 66.6525C1367.16 72.7692 1362.99 76.2094 1358.47 79.4323L1367.17 84.8646C1378.99 75.618 1382.38 58.0849 1384.01 53.0557" stroke="white" stroke-width="2" stroke-linecap="round" stroke-linejoin="round"/>
<path d="M1372.01 363.055C1375.75 357.052 1373.45 348.839 1366.83 344.711C1360.22 340.582 1351.83 342.113 1348.08 348.117L1352.43 350.833L1355.96 350.016L1356.78 353.549L1365.48 358.981M1373.17 361.185C1376.39 360.932 1379.61 361.73 1382.33 363.459C1388.95 367.587 1391.25 375.8 1387.51 381.803L1380.98 377.729L1380.16 374.196L1376.63 375.013L1370.11 370.939" stroke="white" stroke-width="2" stroke-linecap="round" stroke-linejoin="round"/>
<path d="M1354.22 357.119C1346.62 358.875 1341.79 365.893 1343.37 372.804L1358.36 369.319L1360.83 368.747L1363.34 368.167L1370.83 366.435C1369.25 359.523 1361.81 355.362 1354.22 357.119Z" stroke="white" stroke-width="2" stroke-linecap="round" stroke-linejoin="round"/>
<path d="M1357.47 376.652C1355.16 382.769 1350.99 386.209 1346.47 389.432L1355.17 394.865C1366.99 385.618 1370.38 368.085 1372.01 363.056" stroke="white" stroke-width="2" stroke-linecap="round" stroke-linejoin="round"/>
<path d="M136.12 404.606C134.415 404.283 132.814 403.552 131.454 402.474C130.094 401.396 129.016 400.004 128.313 398.418C125.895 393.003 128.331 386.637 133.745 384.219C139.16 381.801 145.526 384.236 147.945 389.651C149.442 393.005 149.08 396.718 147.3 399.632M131.554 379.311L130.093 376.039M123.406 400.61L120.134 402.071M156.124 385.998L152.853 387.459M145.171 375.628L143.891 378.974M123.068 388.273L119.722 386.993M128.695 408.059L154.87 396.369M137.43 410.044L150.518 404.2" stroke="white" stroke-width="1.5" stroke-miterlimit="10" stroke-linecap="round" stroke-linejoin="round"/>
<path d="M53.1196 183.606C51.4147 183.283 49.8135 182.552 48.4537 181.474C47.094 180.396 46.0163 179.004 45.3134 177.418C42.8952 172.003 45.3305 165.637 50.7455 163.219C56.1604 160.801 62.5264 163.236 64.9447 168.651C66.4424 172.005 66.0798 175.718 64.3004 178.632M48.5537 158.311L47.0925 155.039M40.4056 179.61L37.1337 181.071M73.1244 164.998L69.8525 166.459M62.1708 154.628L60.8907 157.974M40.0684 167.273L36.7221 165.993M45.6945 187.059L71.8696 175.369M54.4301 189.044L67.5176 183.2" stroke="white" stroke-width="1.5" stroke-miterlimit="10" stroke-linecap="round" stroke-linejoin="round"/>
<path d="M202.526 230.879C201.435 229.531 200.687 227.937 200.347 226.236C200.008 224.534 200.086 222.775 200.576 221.111C202.235 215.417 208.211 212.138 213.904 213.797C219.598 215.456 222.877 221.432 221.218 227.125C220.191 230.652 217.512 233.249 214.27 234.32M215.408 208.637L216.41 205.197M195.416 219.608L191.976 218.605M229.819 229.631L226.379 228.629M228.175 214.637L225.034 216.361M203.14 209.982L201.416 206.841M194.63 228.709L222.153 236.728M200.007 235.875L213.768 239.884" stroke="white" stroke-width="1.5" stroke-miterlimit="10" stroke-linecap="round" stroke-linejoin="round"/>
<path d="M279.815 374.135C279.212 372.509 279.012 370.76 279.233 369.039C279.455 367.318 280.091 365.676 281.087 364.256C284.478 359.39 291.188 358.191 296.053 361.582C300.919 364.972 302.118 371.682 298.727 376.547C296.627 379.561 293.259 381.167 289.845 381.146M299.126 357.172L301.175 354.232M276.677 361.183L273.737 359.134M306.077 381.669L303.137 379.62M309.308 366.935L305.781 367.565M287.071 354.528L286.441 351.001M273.026 369.557L296.546 385.946M275.833 378.064L287.593 386.259" stroke="white" stroke-width="1.5" stroke-miterlimit="10" stroke-linecap="round" stroke-linejoin="round"/>
<path d="M491.225 392.904C489.57 392.383 488.066 391.468 486.842 390.238C485.619 389.008 484.713 387.498 484.201 385.84C482.437 380.178 485.605 374.143 491.266 372.379C496.928 370.615 502.964 373.782 504.728 379.444C505.82 382.951 505.023 386.596 502.913 389.28M489.667 367.247L488.601 363.826M479.07 387.439L475.649 388.505M513.281 376.779L509.859 377.845M503.623 365.192L501.958 368.364M480.187 375.148L477.014 373.483M483.445 395.459L510.814 386.931M491.886 398.459L505.571 394.195" stroke="white" stroke-width="1.5" stroke-miterlimit="10" stroke-linecap="round" stroke-linejoin="round"/>
<path d="M450.216 251.895C448.561 251.374 447.057 250.459 445.834 249.229C444.61 247.999 443.704 246.49 443.192 244.832C441.428 239.17 444.596 233.135 450.258 231.37C455.92 229.606 461.955 232.774 463.719 238.435C464.812 241.942 464.015 245.587 461.905 248.271M448.659 226.239L447.593 222.818M438.061 246.431L434.64 247.497M472.272 235.77L468.851 236.836M462.615 224.183L460.95 227.356M439.178 234.14L436.005 232.475M442.436 254.45L469.805 245.922M450.878 257.45L464.562 253.186" stroke="white" stroke-width="1.5" stroke-miterlimit="10" stroke-linecap="round" stroke-linejoin="round"/>
<path d="M631.216 218.895C629.561 218.374 628.057 217.459 626.834 216.229C625.61 214.999 624.704 213.49 624.192 211.832C622.428 206.17 625.596 200.135 631.258 198.37C636.92 196.606 642.955 199.774 644.719 205.435C645.812 208.942 645.015 212.587 642.905 215.271M629.659 193.239L628.593 189.818M619.061 213.431L615.64 214.497M653.272 202.77L649.851 203.836M643.615 191.183L641.95 194.356M620.178 201.14L617.005 199.475M623.436 221.45L650.805 212.922M631.878 224.45L645.562 220.186" stroke="white" stroke-width="1.5" stroke-miterlimit="10" stroke-linecap="round" stroke-linejoin="round"/>
<path d="M721.033 300.585C720.362 298.985 720.089 297.246 720.239 295.517C720.389 293.789 720.956 292.122 721.892 290.661C725.077 285.659 731.731 284.181 736.734 287.366C741.736 290.551 743.213 297.205 740.029 302.208C738.056 305.306 734.758 307.05 731.346 307.172M739.62 282.832L741.545 279.809M717.358 287.775L714.335 285.85M747.585 307.019L744.563 305.094M750.2 292.163L746.702 292.94M727.466 280.693L726.689 277.195M714.058 296.294L738.24 311.689M717.217 304.676L729.308 312.374" stroke="white" stroke-width="1.5" stroke-miterlimit="10" stroke-linecap="round" stroke-linejoin="round"/>
<path d="M983.582 342.558C981.945 341.983 980.472 341.019 979.29 339.749C978.108 338.479 977.252 336.941 976.796 335.267C975.219 329.55 978.585 323.623 984.302 322.046C990.019 320.47 995.946 323.835 997.522 329.553C998.499 333.093 997.581 336.71 995.384 339.323M982.873 316.865L981.921 313.41M971.614 336.696L968.16 337.648M1006.16 327.172L1002.7 328.124M996.89 315.272L995.121 318.387M973.136 324.448L970.021 322.679M975.722 344.855L1003.36 337.236M984.06 348.132L997.878 344.323" stroke="white" stroke-width="1.5" stroke-miterlimit="10" stroke-linecap="round" stroke-linejoin="round"/>
<path d="M1250.34 348.317C1248.7 347.742 1247.23 346.778 1246.05 345.508C1244.87 344.237 1244.01 342.699 1243.55 341.025C1241.98 335.308 1245.34 329.381 1251.06 327.805C1256.78 326.228 1262.7 329.594 1264.28 335.311C1265.26 338.852 1264.34 342.468 1262.14 345.081M1249.63 322.623L1248.68 319.169M1238.37 342.454L1234.92 343.406M1272.92 332.93L1269.46 333.882M1263.65 321.03L1261.88 324.145M1239.89 330.207L1236.78 328.438M1242.48 350.614L1270.12 342.995M1250.82 353.891L1264.64 350.081" stroke="white" stroke-width="1.5" stroke-miterlimit="10" stroke-linecap="round" stroke-linejoin="round"/>
<path d="M736.216 43.8948C734.561 43.3742 733.057 42.4594 731.834 41.2291C730.61 39.9987 729.704 38.4897 729.192 36.8316C727.428 31.1697 730.596 25.1345 736.258 23.3703C741.92 21.606 747.955 24.7735 749.719 30.4355C750.812 33.9421 750.015 37.5872 747.905 40.2714M734.659 18.2386L733.593 14.8175M724.061 38.4306L720.64 39.4967M758.272 27.7704L754.851 28.8364M748.615 16.1831L746.95 19.3555M725.178 26.1397L722.005 24.4747M728.436 46.4504L755.805 37.9222M736.878 49.4499L750.562 45.1858" stroke="white" stroke-width="1.5" stroke-miterlimit="10" stroke-linecap="round" stroke-linejoin="round"/>
<path d="M1008.22 127.895C1006.56 127.374 1005.06 126.459 1003.83 125.229C1002.61 123.999 1001.7 122.49 1001.19 120.832C999.428 115.17 1002.6 109.135 1008.26 107.37C1013.92 105.606 1019.95 108.774 1021.72 114.435C1022.81 117.942 1022.01 121.587 1019.9 124.271M1006.66 102.239L1005.59 98.8175M996.061 122.431L992.64 123.497M1030.27 111.77L1026.85 112.836M1020.61 100.183L1018.95 103.356M997.178 110.14L994.005 108.475M1000.44 130.45L1027.81 121.922M1008.88 133.45L1022.56 129.186" stroke="white" stroke-width="1.5" stroke-miterlimit="10" stroke-linecap="round" stroke-linejoin="round"/>
<path d="M1265.22 48.8948C1263.56 48.3742 1262.06 47.4594 1260.83 46.2291C1259.61 44.9987 1258.7 43.4897 1258.19 41.8316C1256.43 36.1697 1259.6 30.1345 1265.26 28.3703C1270.92 26.606 1276.95 29.7735 1278.72 35.4355C1279.81 38.9421 1279.01 42.5872 1276.9 45.2714M1263.66 23.2386L1262.59 19.8175M1253.06 43.4306L1249.64 44.4967M1287.27 32.7704L1283.85 33.8364M1277.61 21.1831L1275.95 24.3555M1254.18 31.1397L1251.01 29.4747M1257.44 51.4504L1284.81 42.9222M1265.88 54.4499L1279.56 50.1858" stroke="white" stroke-width="1.5" stroke-miterlimit="10" stroke-linecap="round" stroke-linejoin="round"/>
<path d="M500.512 63.4235C499.717 61.8811 499.309 60.1688 499.322 58.4337C499.335 56.6987 499.77 54.9928 500.588 53.4628C503.37 48.2251 509.887 46.2291 515.124 49.0106C520.362 51.7921 522.358 58.3092 519.576 63.5469C517.854 66.7907 514.703 68.7893 511.311 69.1789M517.645 44.2635L519.326 41.0987M495.841 50.9417L492.676 49.2611M527.488 67.7486L524.324 66.0679M528.926 52.7333L525.5 53.7825M505.36 43.0867L504.311 39.661M493.222 59.6939L518.539 73.1394M497.03 67.8024L509.689 74.5251" stroke="white" stroke-width="1.5" stroke-miterlimit="10" stroke-linecap="round" stroke-linejoin="round"/>
<path d="M316.212 60.3679C314.482 60.5032 312.746 60.2163 311.151 59.5319C309.557 58.8475 308.152 57.7861 307.059 56.439C303.308 51.8456 303.992 45.0641 308.586 41.313C313.179 37.5619 319.96 38.2464 323.712 42.8398C326.035 45.6846 326.657 49.3636 325.702 52.6416M305.186 37.1498L302.919 34.3744M302.896 59.8388L300.12 62.1053M330.65 37.1734L327.875 39.44M317.364 30.0311L317.005 33.5958M299.342 48.02L295.777 47.6602M309.95 65.6441L332.153 47.5118M318.9 65.2742L330.002 56.2081" stroke="white" stroke-width="1.5" stroke-miterlimit="10" stroke-linecap="round" stroke-linejoin="round"/>
<path d="M163.999 136.245C168.724 130.383 167.334 121.414 160.877 116.21C154.421 111.007 145.362 111.553 140.637 117.415L144.885 120.838L148.72 120.426L149.132 124.262L157.628 131.109M165.471 134.418C168.904 134.562 172.197 135.814 174.856 137.988C181.313 143.192 182.703 152.161 177.978 158.023L171.607 152.887L171.195 149.052L167.359 149.464L160.988 144.328" stroke="white" stroke-width="2" stroke-linecap="round" stroke-linejoin="round"/>
<path d="M145.971 127.705C137.725 128.591 131.723 135.386 132.509 142.886L148.79 141.118L151.475 140.83L154.198 140.537L162.33 139.664C161.543 132.163 154.218 126.82 145.971 127.705Z" stroke="white" stroke-width="2" stroke-linecap="round" stroke-linejoin="round"/>
<path d="M146.913 148.75C143.695 154.916 138.849 158.016 133.662 160.843L142.158 167.691C155.82 159.433 161.638 141.348 163.999 136.245" stroke="white" stroke-width="2" stroke-linecap="round" stroke-linejoin="round"/>
<path d="M342.999 177.245C347.724 171.383 346.334 162.414 339.877 157.21C333.421 152.007 324.362 152.553 319.637 158.415L323.885 161.838L327.72 161.426L328.132 165.262L336.628 172.109M344.471 175.418C347.904 175.562 351.197 176.814 353.856 178.988C360.313 184.192 361.703 193.161 356.978 199.023L350.607 193.887L350.195 190.052L346.359 190.464L339.988 185.328" stroke="white" stroke-width="2" stroke-linecap="round" stroke-linejoin="round"/>
<path d="M324.971 168.705C316.725 169.591 310.723 176.386 311.509 183.886L327.79 182.118L330.475 181.83L333.198 181.537L341.33 180.664C340.543 173.163 333.218 167.82 324.971 168.705Z" stroke="white" stroke-width="2" stroke-linecap="round" stroke-linejoin="round"/>
<path d="M325.913 189.75C322.695 195.916 317.849 199.016 312.662 201.843L321.158 208.691C334.82 200.433 340.638 182.348 342.999 177.245" stroke="white" stroke-width="2" stroke-linecap="round" stroke-linejoin="round"/>
<path d="M519.999 155.245C524.724 149.383 523.334 140.414 516.877 135.21C510.421 130.007 501.362 130.553 496.637 136.415L500.885 139.838L504.72 139.426L505.132 143.262L513.628 150.109M521.471 153.418C524.904 153.562 528.197 154.814 530.856 156.988C537.313 162.192 538.703 171.161 533.978 177.023L527.607 171.887L527.195 168.052L523.359 168.464L516.988 163.328" stroke="white" stroke-width="2" stroke-linecap="round" stroke-linejoin="round"/>
<path d="M501.971 146.705C493.725 147.591 487.723 154.386 488.509 161.886L504.79 160.118L507.475 159.83L510.198 159.537L518.33 158.664C517.543 151.163 510.218 145.82 501.971 146.705Z" stroke="white" stroke-width="2" stroke-linecap="round" stroke-linejoin="round"/>
<path d="M502.913 167.75C499.695 173.916 494.849 177.016 489.662 179.843L498.158 186.691C511.82 178.433 517.638 160.348 519.999 155.245" stroke="white" stroke-width="2" stroke-linecap="round" stroke-linejoin="round"/>
<path d="M634.999 92.2448C639.724 86.3829 638.334 77.4144 631.877 72.2105C625.421 67.0065 616.362 67.5528 611.637 73.4147L615.885 76.8383L619.72 76.4263L620.132 80.262L628.628 87.1093M636.471 90.4182C639.904 90.5616 643.197 91.8144 645.856 93.9884C652.313 99.1924 653.703 108.161 648.978 114.023L642.607 108.887L642.195 105.052L638.359 105.464L631.988 100.328" stroke="white" stroke-width="2" stroke-linecap="round" stroke-linejoin="round"/>
<path d="M616.971 83.7054C608.725 84.5912 602.723 91.3856 603.509 98.8865L619.79 97.1182L622.475 96.8298L625.198 96.5373L633.33 95.6638C632.543 88.163 625.218 82.8195 616.971 83.7054Z" stroke="white" stroke-width="2" stroke-linecap="round" stroke-linejoin="round"/>
<path d="M617.913 104.75C614.695 110.916 609.849 114.016 604.662 116.843L613.158 123.691C626.82 115.433 632.638 97.3485 634.999 92.2449" stroke="white" stroke-width="2" stroke-linecap="round" stroke-linejoin="round"/>
<path d="M878.999 53.2448C883.724 47.3829 882.334 38.4144 875.877 33.2105C869.421 28.0065 860.362 28.5528 855.637 34.4147L859.885 37.8383L863.72 37.4263L864.132 41.262L872.628 48.1093M880.471 51.4182C883.904 51.5616 887.197 52.8144 889.856 54.9884C896.313 60.1924 897.703 69.1609 892.978 75.0227L886.607 69.8873L886.195 66.0516L882.359 66.4636L875.988 61.3281" stroke="white" stroke-width="2" stroke-linecap="round" stroke-linejoin="round"/>
<path d="M860.971 44.7054C852.725 45.5912 846.723 52.3856 847.509 59.8865L863.79 58.1182L866.475 57.8298L869.198 57.5373L877.33 56.6638C876.543 49.163 869.218 43.8195 860.971 44.7054Z" stroke="white" stroke-width="2" stroke-linecap="round" stroke-linejoin="round"/>
<path d="M861.913 65.7501C858.695 71.9156 853.849 75.0164 848.662 77.8433L857.158 84.6906C870.82 76.4331 876.638 58.3485 878.999 53.2449" stroke="white" stroke-width="2" stroke-linecap="round" stroke-linejoin="round"/>
<path d="M395.999 292.245C400.724 286.383 399.334 277.414 392.877 272.21C386.421 267.007 377.362 267.553 372.637 273.415L376.885 276.838L380.72 276.426L381.132 280.262L389.628 287.109M397.471 290.418C400.904 290.562 404.197 291.814 406.856 293.988C413.313 299.192 414.703 308.161 409.978 314.023L403.607 308.887L403.195 305.052L399.359 305.464L392.988 300.328" stroke="white" stroke-width="2" stroke-linecap="round" stroke-linejoin="round"/>
<path d="M377.971 283.705C369.725 284.591 363.723 291.386 364.509 298.886L380.79 297.118L383.475 296.83L386.198 296.537L394.33 295.664C393.543 288.163 386.218 282.82 377.971 283.705Z" stroke="white" stroke-width="2" stroke-linecap="round" stroke-linejoin="round"/>
<path d="M378.913 304.75C375.695 310.916 370.849 314.016 365.662 316.843L374.158 323.691C387.82 315.433 393.638 297.348 395.999 292.245" stroke="white" stroke-width="2" stroke-linecap="round" stroke-linejoin="round"/>
<path d="M602.999 307.245C607.724 301.383 606.334 292.414 599.877 287.21C593.421 282.007 584.362 282.553 579.637 288.415L583.885 291.838L587.72 291.426L588.132 295.262L596.628 302.109M604.471 305.418C607.904 305.562 611.197 306.814 613.856 308.988C620.313 314.192 621.703 323.161 616.978 329.023L610.607 323.887L610.195 320.052L606.359 320.464L599.988 315.328" stroke="white" stroke-width="2" stroke-linecap="round" stroke-linejoin="round"/>
<path d="M584.971 298.705C576.725 299.591 570.723 306.386 571.509 313.886L587.79 312.118L590.475 311.83L593.198 311.537L601.33 310.664C600.543 303.163 593.218 297.82 584.971 298.705Z" stroke="white" stroke-width="2" stroke-linecap="round" stroke-linejoin="round"/>
<path d="M585.913 319.75C582.695 325.916 577.849 329.016 572.662 331.843L581.158 338.691C594.82 330.433 600.638 312.348 602.999 307.245" stroke="white" stroke-width="2" stroke-linecap="round" stroke-linejoin="round"/>
<path d="M853.999 376.245C858.724 370.383 857.334 361.414 850.877 356.21C844.421 351.007 835.362 351.553 830.637 357.415L834.885 360.838L838.72 360.426L839.132 364.262L847.628 371.109M855.471 374.418C858.904 374.562 862.197 375.814 864.856 377.988C871.313 383.192 872.703 392.161 867.978 398.023L861.607 392.887L861.195 389.052L857.359 389.464L850.988 384.328" stroke="white" stroke-width="2" stroke-linecap="round" stroke-linejoin="round"/>
<path d="M835.971 367.705C827.725 368.591 821.723 375.386 822.509 382.886L838.79 381.118L841.475 380.83L844.198 380.537L852.33 379.664C851.543 372.163 844.218 366.82 835.971 367.705Z" stroke="white" stroke-width="2" stroke-linecap="round" stroke-linejoin="round"/>
<path d="M836.913 388.75C833.695 394.916 828.849 398.016 823.662 400.843L832.158 407.691C845.82 399.433 851.638 381.348 853.999 376.245" stroke="white" stroke-width="2" stroke-linecap="round" stroke-linejoin="round"/>
<path d="M1130 279.245C1134.72 273.383 1133.33 264.414 1126.88 259.21C1120.42 254.007 1111.36 254.553 1106.64 260.415L1110.88 263.838L1114.72 263.426L1115.13 267.262L1123.63 274.109M1131.47 277.418C1134.9 277.562 1138.2 278.814 1140.86 280.988C1147.31 286.192 1148.7 295.161 1143.98 301.023L1137.61 295.887L1137.2 292.052L1133.36 292.464L1126.99 287.328" stroke="white" stroke-width="2" stroke-linecap="round" stroke-linejoin="round"/>
<path d="M1111.97 270.705C1103.72 271.591 1097.72 278.386 1098.51 285.886L1114.79 284.118L1117.47 283.83L1120.2 283.537L1128.33 282.664C1127.54 275.163 1120.22 269.82 1111.97 270.705Z" stroke="white" stroke-width="2" stroke-linecap="round" stroke-linejoin="round"/>
<path d="M1112.91 291.75C1109.7 297.916 1104.85 301.016 1099.66 303.843L1108.16 310.691C1121.82 302.433 1127.64 284.348 1130 279.245" stroke="white" stroke-width="2" stroke-linecap="round" stroke-linejoin="round"/>
<path d="M1346 219.245C1350.72 213.383 1349.33 204.414 1342.88 199.21C1336.42 194.007 1327.36 194.553 1322.64 200.415L1326.88 203.838L1330.72 203.426L1331.13 207.262L1339.63 214.109M1347.47 217.418C1350.9 217.562 1354.2 218.814 1356.86 220.988C1363.31 226.192 1364.7 235.161 1359.98 241.023L1353.61 235.887L1353.2 232.052L1349.36 232.464L1342.99 227.328" stroke="white" stroke-width="2" stroke-linecap="round" stroke-linejoin="round"/>
<path d="M1327.97 210.705C1319.72 211.591 1313.72 218.386 1314.51 225.886L1330.79 224.118L1333.47 223.83L1336.2 223.537L1344.33 222.664C1343.54 215.163 1336.22 209.82 1327.97 210.705Z" stroke="white" stroke-width="2" stroke-linecap="round" stroke-linejoin="round"/>
<path d="M1328.91 231.75C1325.7 237.916 1320.85 241.016 1315.66 243.843L1324.16 250.691C1337.82 242.433 1343.64 224.348 1346 219.245" stroke="white" stroke-width="2" stroke-linecap="round" stroke-linejoin="round"/>
<path d="M771.999 171.245C776.724 165.383 775.334 156.414 768.877 151.21C762.421 146.007 753.362 146.553 748.637 152.415L752.885 155.838L756.72 155.426L757.132 159.262L765.628 166.109M773.471 169.418C776.904 169.562 780.197 170.814 782.856 172.988C789.313 178.192 790.703 187.161 785.978 193.023L779.607 187.887L779.195 184.052L775.359 184.464L768.988 179.328" stroke="white" stroke-width="2" stroke-linecap="round" stroke-linejoin="round"/>
<path d="M753.971 162.705C745.725 163.591 739.723 170.386 740.509 177.886L756.79 176.118L759.475 175.83L762.198 175.537L770.33 174.664C769.543 167.163 762.218 161.82 753.971 162.705Z" stroke="white" stroke-width="2" stroke-linecap="round" stroke-linejoin="round"/>
<path d="M754.913 183.75C751.695 189.916 746.849 193.016 741.662 195.843L750.158 202.691C763.82 194.433 769.638 176.348 771.999 171.245" stroke="white" stroke-width="2" stroke-linecap="round" stroke-linejoin="round"/>
<path d="M1168 101.245C1172.72 95.3829 1171.33 86.4144 1164.88 81.2105C1158.42 76.0065 1149.36 76.5528 1144.64 82.4147L1148.88 85.8383L1152.72 85.4263L1153.13 89.262L1161.63 96.1093M1169.47 99.4182C1172.9 99.5616 1176.2 100.814 1178.86 102.988C1185.31 108.192 1186.7 117.161 1181.98 123.023L1175.61 117.887L1175.2 114.052L1171.36 114.464L1164.99 109.328" stroke="white" stroke-width="2" stroke-linecap="round" stroke-linejoin="round"/>
<path d="M1149.97 92.7054C1141.72 93.5912 1135.72 100.386 1136.51 107.886L1152.79 106.118L1155.47 105.83L1158.2 105.537L1166.33 104.664C1165.54 97.163 1158.22 91.8195 1149.97 92.7054Z" stroke="white" stroke-width="2" stroke-linecap="round" stroke-linejoin="round"/>
<path d="M1150.91 113.75C1147.7 119.916 1142.85 123.016 1137.66 125.843L1146.16 132.691C1159.82 124.433 1165.64 106.348 1168 101.245" stroke="white" stroke-width="2" stroke-linecap="round" stroke-linejoin="round"/>
</svg>
